<svg width="15" height="14" viewBox="0 0 15 14" fill="none" xmlns="http://www.w3.org/2000/svg">
  <path fill-rule="evenodd" clip-rule="evenodd"
    d="M5.43861 9.70719C6.26326 11.4272 8.76526 11.4882 9.55453 9.71695C9.33861 9.49859 9.1788 9.26559 9.02021 9.03259C8.9946 8.99478 8.96776 8.95696 8.94214 8.91792C8.56031 9.22046 8.09797 9.4132 7.49535 9.41198C6.84514 9.41076 6.35475 9.1619 5.9534 8.79471C5.929 8.77276 5.90583 8.7508 5.88265 8.72762C5.82531 8.88743 5.75212 9.07895 5.67405 9.25705C5.59841 9.42906 5.51668 9.5913 5.43861 9.70719ZM9.78753 9.52543C10.6683 10.1476 12.8104 10.2976 13.6326 10.7563C13.9059 10.9088 14.1523 11.1028 14.3511 11.365C14.7647 11.9115 15.6113 13.8951 14.2389 14H11.6564L11.9736 10.4477C11.2819 10.3123 10.5487 10.2074 9.78265 9.76575C9.31055 11.8444 6.10101 12.1421 5.17755 9.82186C4.49075 10.1683 3.82225 10.3659 3.02322 10.4891L3.52093 14H0.751776C-0.620604 13.8951 0.226002 11.9115 0.639546 11.365C0.838388 11.1028 1.08481 10.9088 1.35806 10.7563C2.17783 10.2988 4.31143 10.1488 5.19585 9.53031C5.2605 9.43272 5.33126 9.28999 5.39835 9.13628C5.4996 8.9045 5.59231 8.65077 5.65209 8.47754C5.40445 8.18599 5.19219 7.85662 4.98847 7.53334L4.31753 6.46716C4.07233 6.10119 3.94424 5.76694 3.93692 5.49246C3.93326 5.36315 3.95522 5.24604 4.00279 5.14357C4.05281 5.03622 4.12966 4.94595 4.23335 4.8752C4.28215 4.84226 4.33582 4.81542 4.3956 4.79224C4.35168 4.21401 4.33582 3.48452 4.36388 2.87457C4.37852 2.7294 4.40658 2.58546 4.44683 2.44029C4.61884 1.8279 5.04824 1.33506 5.58011 0.995934C5.87289 0.80929 6.19494 0.667783 6.53041 0.572631C6.74267 0.512856 6.49991 0.032218 6.7195 0.0102599C7.78324 -0.0983106 9.35569 0.672662 10.0998 1.47657C10.4719 1.87914 10.7061 2.41345 10.7561 3.12099L10.7146 4.86178C10.9013 4.91789 11.0196 5.03622 11.0684 5.22774C11.1221 5.43879 11.0635 5.73766 10.8842 6.14389C10.8806 6.1512 10.8769 6.15852 10.8732 6.16584L10.1084 7.42477C9.82778 7.88711 9.54233 8.35067 9.17026 8.71786C9.2032 8.76544 9.23736 8.81545 9.27029 8.86425C9.42156 9.08627 9.57405 9.30829 9.77045 9.50713C9.77655 9.51201 9.78265 9.51811 9.78753 9.52543ZM4.78108 5.1021C4.63226 5.1082 4.52003 5.13869 4.44317 5.18993C4.39926 5.21921 4.36632 5.25702 4.3468 5.30216C4.32362 5.35217 4.31265 5.41195 4.31509 5.48148C4.32118 5.6852 4.42732 5.95236 4.6347 6.25978L4.63714 6.26465L5.30808 7.33084C5.57646 7.75902 5.85947 8.19453 6.20958 8.51536C6.54627 8.82399 6.95494 9.03137 7.49535 9.03381C8.0809 9.03503 8.50908 8.81911 8.85675 8.4934C9.21784 8.15549 9.50329 7.69071 9.78387 7.22837L10.539 5.98408C10.6793 5.66325 10.7317 5.44733 10.6988 5.32168C10.6793 5.24604 10.5963 5.20945 10.456 5.20213C10.4255 5.20091 10.395 5.20091 10.3645 5.20091C10.3304 5.20213 10.2962 5.20457 10.2584 5.20701C10.2389 5.20823 10.2182 5.20701 10.1999 5.20335C10.1328 5.20701 10.0632 5.20213 9.99247 5.19237L10.2511 4.04689C8.33097 4.34942 6.89516 2.92337 4.86526 3.76143L5.01164 5.11186C4.92991 5.11551 4.85306 5.11307 4.78108 5.1021Z"
    fill="#82cf45" />
</svg>
