<svg width="15" height="16" viewBox="0 0 15 16" fill="none" xmlns="http://www.w3.org/2000/svg">
<path fill-rule="evenodd" clip-rule="evenodd" d="M12.9055 9.43159C12.9219 9.34789 12.9525 9.27236 12.9954 9.20703C13.0403 9.13966 13.0974 9.08046 13.1648 9.03554C13.2301 8.99063 13.3057 8.95797 13.3873 8.9396C13.4649 8.92326 13.5466 8.92122 13.6303 8.93755C13.714 8.95389 13.7895 8.98451 13.8548 9.02738C13.9222 9.07229 13.9814 9.12945 14.0263 9.19682C14.0712 9.26215 14.1039 9.33768 14.1223 9.41934C14.1386 9.49692 14.1406 9.57858 14.1243 9.66228C14.1059 9.76027 14.0855 9.85826 14.0631 9.95421C14.0406 10.0522 14.0161 10.1502 13.9875 10.2461C13.9589 10.3462 13.9304 10.4421 13.9018 10.534C13.8732 10.6218 13.8405 10.7157 13.8017 10.8178C13.765 10.9178 13.7283 11.0117 13.6935 11.0954C13.6588 11.1791 13.618 11.271 13.5711 11.371C13.5302 11.4608 13.4853 11.5506 13.4363 11.6405C13.3894 11.7283 13.3424 11.816 13.2914 11.9038L13.2893 11.9079C13.0525 12.3182 12.779 12.698 12.4768 13.043C12.1665 13.3982 11.8256 13.7146 11.4622 13.9943C11.0907 14.2801 10.6946 14.5251 10.2782 14.7313C9.85762 14.9395 9.41666 15.1028 8.96753 15.2253C8.52045 15.3457 8.05907 15.4213 7.59362 15.4539C7.13429 15.4846 6.67087 15.4703 6.20541 15.4111C5.75016 15.3519 5.299 15.2478 4.856 15.0987C4.42116 14.9517 3.99654 14.7619 3.5862 14.5292L3.53925 14.5026C3.12891 14.2638 2.75124 13.9902 2.41031 13.6901C2.05918 13.3818 1.74479 13.0409 1.46511 12.6775C1.18338 12.308 0.938406 11.912 0.734259 11.4955C0.52807 11.075 0.36271 10.6381 0.244304 10.1931C0.123857 9.74598 0.0483227 9.28461 0.015659 8.81915C-0.0149631 8.35982 -0.000672758 7.8964 0.05853 7.43094C0.117733 6.97774 0.221848 6.52657 0.370876 6.08357C0.517862 5.64874 0.707719 5.22411 0.940448 4.81581L0.952697 4.79336C0.964945 4.7709 0.969028 4.76478 0.973111 4.75865C1.21196 4.3524 1.48144 3.97881 1.77949 3.63992C2.08776 3.28879 2.42868 2.9744 2.79207 2.69472C3.16157 2.413 3.55762 2.16802 3.97408 1.96387C4.39463 1.75768 4.8315 1.59232 5.27654 1.47392C5.72567 1.35347 6.18908 1.27589 6.65658 1.24527C7.11795 1.21465 7.58545 1.22894 8.05091 1.29019C8.5082 1.35143 8.96345 1.45554 9.40645 1.60661C9.83924 1.7536 10.2639 1.9455 10.6783 2.18435L10.6844 2.18843C10.7559 2.23131 10.8151 2.28438 10.8641 2.34767C10.9131 2.413 10.9498 2.48649 10.9702 2.56202C10.9906 2.6396 10.9968 2.72126 10.9866 2.80292C10.9763 2.88254 10.9498 2.96215 10.909 3.03361C10.8681 3.1071 10.813 3.16834 10.7497 3.2153C10.6844 3.26633 10.6089 3.30308 10.5313 3.3235C10.4537 3.34391 10.3721 3.35003 10.2904 3.33983C10.2108 3.32962 10.1312 3.30308 10.0597 3.26225C9.72084 3.06627 9.36766 2.90908 9.00836 2.78659C8.63885 2.66206 8.26526 2.57427 7.88963 2.52528C7.50584 2.47424 7.12 2.46403 6.7362 2.48853C6.3524 2.51303 5.97064 2.57836 5.59705 2.67635C5.22346 2.77638 4.86212 2.91316 4.51711 3.0826C4.17415 3.25204 3.84547 3.45415 3.53721 3.69096C3.23507 3.92165 2.95538 4.185 2.7002 4.47693C2.45114 4.76274 2.22658 5.07508 2.0306 5.41397L2.01222 5.44663C1.82441 5.77531 1.67334 6.11623 1.55493 6.46533C1.4304 6.83483 1.34262 7.20842 1.29362 7.58201C1.24259 7.96581 1.23238 8.35165 1.25688 8.73545C1.28137 9.11925 1.3467 9.501 1.44469 9.87459C1.54472 10.2482 1.6815 10.6095 1.85095 10.9545C2.02039 11.2975 2.22249 11.6262 2.45931 11.9344C2.68999 12.2366 2.95334 12.5163 3.24323 12.7714C3.527 13.0205 3.83934 13.2451 4.18231 13.4431C4.5212 13.6391 4.87233 13.7963 5.23163 13.9188C5.60114 14.0433 5.97473 14.1311 6.35036 14.1801C6.73416 14.2311 7.12 14.2413 7.50379 14.2168C7.88759 14.1923 8.26935 14.127 8.64294 14.029C9.01653 13.929 9.37787 13.7922 9.72492 13.6227C10.0679 13.4533 10.3966 13.2512 10.7048 13.0144C11.007 12.7837 11.2866 12.5224 11.5418 12.2305C11.7909 11.9467 12.0155 11.6323 12.2135 11.2914C12.2543 11.222 12.2931 11.1505 12.3298 11.0791C12.3625 11.0178 12.3993 10.9402 12.4442 10.8504C12.4748 10.7871 12.5075 10.7096 12.5442 10.6218C12.5769 10.5422 12.6075 10.4666 12.634 10.3952C12.6606 10.3217 12.6871 10.2461 12.7136 10.1665C12.7402 10.0869 12.7626 10.0073 12.7851 9.92767C12.8096 9.83989 12.83 9.75823 12.8463 9.68678C12.8708 9.59695 12.8892 9.51529 12.9055 9.43159ZM11.4745 8.43331H9.84741C9.8617 8.56396 9.8964 8.65991 9.95356 8.72524C10.0311 8.81711 10.1353 8.86202 10.2598 8.86202C10.3394 8.86202 10.4149 8.8416 10.4864 8.80282C10.5313 8.77832 10.5783 8.73341 10.6273 8.67012L11.4275 8.74361C11.305 8.95593 11.158 9.10904 10.9845 9.2009C10.811 9.29277 10.564 9.33972 10.2394 9.33972C9.95969 9.33972 9.73921 9.30094 9.57589 9.22132C9.41461 9.1417 9.28192 9.01717 9.17576 8.84365C9.06961 8.67216 9.01653 8.47006 9.01653 8.23529C9.01653 7.90457 9.12268 7.63713 9.335 7.43094C9.54731 7.2268 9.83924 7.12268 10.2149 7.12268C10.517 7.12268 10.7579 7.16964 10.9335 7.2615C11.109 7.35337 11.2417 7.48606 11.3336 7.65959C11.4255 7.83312 11.4704 8.05972 11.4704 8.3394V8.43331H11.4745ZM10.6477 8.04339C10.6313 7.88619 10.5885 7.77391 10.5211 7.70654C10.4517 7.63918 10.3619 7.60447 10.2516 7.60447C10.123 7.60447 10.0189 7.65551 9.94132 7.75758C9.89232 7.82087 9.8617 7.91682 9.84741 8.04339H10.6477ZM7.96721 7.17168H8.72868V9.17232L8.73072 9.26623C8.73072 9.39893 8.70214 9.5255 8.64498 9.64595C8.58782 9.76639 8.51432 9.86438 8.42042 9.93788C8.32651 10.0114 8.2081 10.0665 8.06316 10.0992C7.91821 10.1318 7.75285 10.1502 7.56708 10.1502C7.14245 10.1502 6.84848 10.0869 6.68924 9.95829C6.53001 9.83172 6.45039 9.66024 6.45039 9.44588C6.45039 9.41934 6.45243 9.3826 6.45447 9.33768L7.24248 9.42751C7.2629 9.501 7.29352 9.55204 7.33435 9.57858C7.39355 9.61941 7.46909 9.63982 7.55891 9.63982C7.67528 9.63982 7.76306 9.6092 7.82022 9.54591C7.87738 9.48263 7.90596 9.37443 7.90596 9.21928V8.89877C7.82635 8.99267 7.74673 9.06208 7.66711 9.10495C7.54258 9.17028 7.40784 9.20499 7.2629 9.20499C6.97913 9.20499 6.75049 9.08046 6.57696 8.83344C6.45447 8.65787 6.39119 8.42514 6.39119 8.1373C6.39119 7.80658 6.47081 7.55547 6.63004 7.38195C6.78928 7.20842 6.99751 7.12268 7.25677 7.12268C7.42213 7.12268 7.55687 7.15126 7.66507 7.20638C7.77123 7.2615 7.87126 7.35541 7.96517 7.48402V7.17168H7.96721ZM7.2037 8.19854C7.2037 8.35165 7.23636 8.46393 7.30169 8.53947C7.36701 8.61296 7.45276 8.64971 7.55891 8.64971C7.65895 8.64971 7.74469 8.61092 7.81206 8.53538C7.88147 8.45985 7.91413 8.34348 7.91413 8.19037C7.91413 8.03522 7.87738 7.91886 7.80593 7.8372C7.73448 7.75554 7.6467 7.71471 7.54258 7.71471C7.43847 7.71471 7.35681 7.75146 7.29556 7.82699C7.23432 7.90048 7.2037 8.02501 7.2037 8.19854ZM5.26634 8.8069H4.23743L4.09657 9.28869H3.17382L4.27214 6.36325H5.25817L6.35852 9.28869H5.41332L5.26634 8.8069ZM5.07648 8.17608L4.75393 7.12472L4.43341 8.17608H5.07648ZM10.0495 5.32822C9.96785 5.35476 9.8862 5.36293 9.80862 5.35681C9.72696 5.35068 9.64734 5.32618 9.57589 5.28944C9.50444 5.25269 9.43911 5.20165 9.38603 5.13837C9.335 5.07712 9.29417 5.00771 9.26763 4.9281C9.24109 4.84644 9.23292 4.76478 9.23905 4.6872C9.24517 4.6035 9.26967 4.52388 9.30642 4.45243C9.34316 4.38098 9.3942 4.31565 9.45749 4.26462C9.51873 4.21358 9.58814 4.17275 9.66776 4.14621L12.0032 3.39903L10.9518 1.38001C10.9131 1.30448 10.8906 1.2269 10.8845 1.14728C10.8784 1.06562 10.8865 0.983964 10.911 0.906388C10.9335 0.828812 10.9743 0.755319 11.0274 0.692033C11.0784 0.630789 11.1417 0.57771 11.2172 0.538922C11.2928 0.500134 11.3703 0.477678 11.45 0.471553C11.5316 0.465429 11.6133 0.473595 11.6909 0.498093C11.7684 0.52259 11.8419 0.561378 11.9052 0.614457C11.9665 0.665494 12.0175 0.728779 12.0563 0.804314L13.4486 3.47661C13.4547 3.4909 13.4608 3.50927 13.469 3.52152L13.4792 3.5501L13.4874 3.57664C13.5119 3.65626 13.52 3.73587 13.5139 3.81345C13.5078 3.89715 13.4833 3.97677 13.4465 4.04822C13.4098 4.11967 13.3587 4.185 13.2955 4.23604C13.2342 4.28707 13.1648 4.3279 13.0852 4.35444L10.0495 5.32822Z" fill="#82CF45"/>
</svg>
