<svg width="16" height="14" viewBox="0 0 16 14" fill="none" xmlns="http://www.w3.org/2000/svg">
                <path
                  d="M7.71217 4.65328C7.56077 4.73924 7.36832 4.68664 7.28236 4.53396C7.1964 4.38256 7.249 4.19011 7.40168 4.10415C7.71602 3.92581 8.00085 3.73464 8.24205 3.52423C8.47171 3.32408 8.65903 3.10725 8.7899 2.87246C8.82197 2.81473 8.84892 2.75827 8.87329 2.70182C9.02725 2.34258 9.06318 1.95511 8.9708 1.6087C8.88099 1.27511 8.66929 0.978739 8.32288 0.78757C8.27669 0.76191 8.22922 0.738816 8.18175 0.718288C8.05473 0.663119 7.93285 0.634892 7.81609 0.631043C7.70062 0.627194 7.58643 0.646439 7.47481 0.688779C7.21564 0.785004 7.0155 0.955645 6.88976 1.15195C6.81791 1.26357 6.77172 1.38417 6.75376 1.50221C6.73708 1.61383 6.74478 1.7216 6.77942 1.81654C6.81919 1.92432 6.89746 2.02311 7.01934 2.10137C7.09119 2.14756 7.18614 2.16937 7.30674 2.16809C7.45557 2.16552 7.63647 2.12575 7.85202 2.0462C8.01624 1.98718 8.19715 2.07186 8.25616 2.23481C8.31518 2.39903 8.2305 2.57993 8.06756 2.63895C7.78658 2.74159 7.53768 2.7942 7.31572 2.79805C7.06682 2.8019 6.85384 2.74673 6.67678 2.63254C6.43429 2.47729 6.27392 2.26945 6.18795 2.03594C6.11354 1.83451 6.09429 1.61896 6.12765 1.40726C6.15844 1.20198 6.23799 0.997984 6.35859 0.809382C6.55361 0.505308 6.86025 0.243575 7.25542 0.0973114C7.4453 0.0267459 7.63904 -0.00661232 7.83662 0.00108573C8.0342 0.00750078 8.23179 0.0524061 8.42937 0.138368C8.49994 0.16916 8.56665 0.201235 8.62824 0.234593C9.13631 0.515572 9.45065 0.953079 9.5828 1.44704C9.71238 1.92945 9.66491 2.46318 9.45578 2.95072C9.42242 3.02899 9.38521 3.10469 9.34544 3.17782C9.17608 3.48446 8.94257 3.75645 8.65903 4.00279C8.38575 4.23887 8.06628 4.45441 7.71217 4.65328ZM5.39505 10.142C5.28856 10.0304 5.2937 9.8546 5.40532 9.74811C5.51694 9.64162 5.69271 9.64675 5.7992 9.75837C6.55874 10.5564 7.30802 10.9028 8.04575 10.8759C8.79375 10.8489 9.55585 10.4448 10.3269 9.74426C10.4411 9.64033 10.6169 9.64931 10.7208 9.76222C10.8247 9.87641 10.8158 10.0522 10.7029 10.1561C9.83555 10.9439 8.95669 11.4006 8.06628 11.4314C7.16432 11.4635 6.27392 11.0658 5.39505 10.142ZM5.80562 6.25447C6.26237 6.25447 6.63316 6.62526 6.63316 7.08201C6.63316 7.53877 6.26237 7.90956 5.80562 7.90956C5.34887 7.90956 4.97808 7.53877 4.97808 7.08201C4.97808 6.62526 5.34887 6.25447 5.80562 6.25447ZM10.282 6.25447C10.7388 6.25447 11.1096 6.62526 11.1096 7.08201C11.1096 7.53877 10.7388 7.90956 10.282 7.90956C9.82529 7.90956 9.4545 7.53877 9.4545 7.08201C9.4545 6.62526 9.82529 6.25447 10.282 6.25447ZM10.3988 3.82317C10.2435 3.75389 10.173 3.56913 10.2397 3.41004C10.3064 3.25095 10.486 3.17653 10.6413 3.24582C11.4098 3.58966 12.0885 4.07079 12.6364 4.65328C13.1136 5.16007 13.4934 5.74512 13.7513 6.38277L13.7718 6.37764C13.8834 6.35326 13.9976 6.34043 14.1118 6.34043C14.5673 6.34043 14.9804 6.5316 15.2806 6.84081C15.5796 7.15001 15.7643 7.57597 15.7643 8.04555C15.7643 8.51514 15.5796 8.94109 15.2806 9.2503C14.9804 9.5595 14.5673 9.75067 14.1118 9.75067C14.0528 9.75067 13.9938 9.74682 13.9348 9.74041C13.5986 10.9323 12.8468 11.9728 11.8281 12.726C10.7516 13.5227 9.37752 14 7.88153 14C6.38682 14 5.01143 13.5214 3.93499 12.726C2.91628 11.9716 2.16444 10.9323 1.82829 9.74041C1.76927 9.74682 1.71025 9.75067 1.65123 9.75067C1.19576 9.75067 0.782636 9.5595 0.482412 9.2503C0.184753 8.94366 0 8.5177 0 8.04684C0 7.57726 0.184753 7.1513 0.483695 6.84209C0.783919 6.53289 1.19705 6.34172 1.65252 6.34172C1.7667 6.34172 1.88089 6.35455 1.99251 6.37893L2.01304 6.38406C2.27093 5.74512 2.6507 5.16135 3.12798 4.65456C3.6771 4.07079 4.35582 3.58966 5.12306 3.2471C5.2783 3.17782 5.45792 3.25223 5.52464 3.41132C5.59135 3.57042 5.51951 3.75645 5.36555 3.82445C4.67272 4.13366 4.06072 4.5686 3.56677 5.09463C3.08435 5.60784 2.71356 6.207 2.49032 6.8639C2.48647 6.87802 2.48134 6.89085 2.47621 6.90368C2.40821 7.06277 2.2273 7.1359 2.07334 7.06534C2.00663 7.03583 1.93863 7.01273 1.86934 6.99734C1.80263 6.98322 1.7295 6.97552 1.6538 6.97552C1.36512 6.97552 1.10595 7.09484 0.918635 7.28858C0.730032 7.48231 0.614561 7.75175 0.614561 8.0494C0.614561 8.34706 0.731315 8.61521 0.918635 8.81023C1.10595 9.00396 1.36641 9.12328 1.6538 9.12328C1.70769 9.12328 1.76029 9.11943 1.81161 9.11173C1.86678 9.10275 1.9181 9.09121 1.96429 9.07581C1.97199 9.07324 1.97968 9.07196 1.98738 9.0694C2.15161 9.03091 2.31583 9.13739 2.35304 9.30804C2.60707 10.4717 3.31016 11.493 4.29552 12.2205C5.26932 12.9415 6.52025 13.3739 7.88538 13.3739C9.2505 13.3739 10.5001 12.9415 11.4752 12.2205C12.458 11.493 13.1611 10.473 13.4164 9.31188C13.4177 9.3029 13.4203 9.29392 13.4228 9.28494C13.4729 9.11815 13.6435 9.02577 13.8052 9.07581C13.8527 9.09121 13.9027 9.10275 13.9579 9.11173C14.0079 9.11943 14.0605 9.12328 14.1157 9.12328C14.4043 9.12328 14.6635 9.00396 14.8508 8.81023C15.0394 8.61649 15.1549 8.34706 15.1549 8.0494C15.1549 7.75175 15.0382 7.4836 14.8508 7.28858C14.6635 7.09484 14.4031 6.97552 14.1157 6.97552C14.0387 6.97552 13.9668 6.98322 13.9001 6.99734C13.8308 7.01273 13.7628 7.03583 13.6961 7.06534C13.6884 7.06918 13.6807 7.07175 13.673 7.07432C13.5139 7.13205 13.3394 7.04481 13.2843 6.88058C13.061 6.21727 12.6877 5.61169 12.2014 5.09463C11.7023 4.56732 11.0916 4.13238 10.3988 3.82317Z"
                  fill="#82cf45" />
              </svg>