<svg width="10" height="14" viewBox="0 0 10 14" fill="none" xmlns="http://www.w3.org/2000/svg">
                <path
                  d="M9.38167 14C9.33267 13.7653 9.26887 13.5625 9.19481 13.387C8.87464 12.6327 8.07707 12.2886 7.29432 11.9514C7.16215 11.8944 7.02998 11.8375 6.89098 11.7736C6.87275 11.7964 6.85566 11.8181 6.83629 11.8397C6.72919 11.9719 6.60272 12.0881 6.46257 12.1907C6.0729 12.4721 5.57157 12.6339 5.05316 12.6589C4.53702 12.684 4.00379 12.5746 3.54803 12.3137C3.3213 12.1838 3.11393 12.0163 2.93733 11.8101C2.81199 11.8705 2.68324 11.9286 2.55107 11.989C1.79908 12.3319 0.950244 12.7193 0.640332 13.3642C0.567412 13.5169 0.509304 13.6855 0.468286 13.8678C0.458031 13.9111 0.450056 13.9544 0.440941 13.9989H0C0.0125332 13.9214 0.0273452 13.8462 0.0432965 13.7721C0.0922899 13.5579 0.159513 13.3597 0.248385 13.1762C0.627799 12.3878 1.55184 11.9662 2.37105 11.5925C2.55335 11.5093 2.72996 11.4284 2.88833 11.3498C2.99657 11.2074 3.08544 11.0547 3.15381 10.8906C3.21306 10.7505 3.25635 10.6024 3.28598 10.4463C3.12077 10.3471 2.96125 10.2321 2.81085 10.0988C2.19673 9.55299 1.76718 9.10864 1.49031 8.59364C1.20888 8.0718 1.09153 7.49185 1.10634 6.68631L1.15078 4.354C1.15078 4.32893 1.15533 4.305 1.16331 4.28336L0.619823 4.11245C0.542346 2.39312 1.53703 1.3654 2.76984 0.870908C3.21875 0.690886 2.46676 -0.292401 3.50018 0.085874C4.87997 0.59062 7.94149 1.27767 8.66613 2.14474C9.25519 2.84887 9.27912 3.23057 9.26545 4.14891C9.26089 4.44743 9.21532 4.70834 9.07745 4.80633C9.01365 4.85077 8.93845 4.869 8.84958 4.86102V6.85608C8.84958 7.96128 8.45421 8.88418 7.84806 9.56895C7.50624 9.95406 7.09721 10.264 6.65399 10.4861C6.68019 10.6286 6.71665 10.7642 6.76337 10.8929C6.8192 11.0467 6.88984 11.1948 6.97643 11.335C7.12569 11.4045 7.2966 11.4774 7.46751 11.5515C8.33002 11.9229 9.20734 12.3012 9.59701 13.2184C9.68702 13.4292 9.76108 13.673 9.81805 13.9567L9.82716 14H9.38167ZM4.10291 10.7892C3.96277 10.7528 3.8249 10.706 3.69046 10.6502C3.65741 10.7926 3.61298 10.9294 3.55715 11.0604C3.48765 11.2256 3.39991 11.384 3.29509 11.5332C3.41131 11.662 3.54348 11.7725 3.6859 11.8648C4.07101 12.1143 4.53588 12.2305 4.99277 12.2203C5.44738 12.2089 5.89174 12.0699 6.23811 11.8078C6.3304 11.7383 6.41586 11.6597 6.4922 11.572C6.51498 11.5446 6.53663 11.515 6.55714 11.4865C6.47624 11.3452 6.40788 11.1971 6.35205 11.0399C6.30875 10.9203 6.27343 10.7972 6.24495 10.6707C5.80059 10.8302 5.35053 10.9089 4.90959 10.902C4.63614 10.8975 4.36611 10.861 4.10291 10.7892ZM3.64374 10.1432C3.78844 10.2195 3.93542 10.2811 4.08582 10.3301L4.09152 10.3323C4.36953 10.4178 4.66007 10.4599 4.95175 10.4599C5.42004 10.4599 5.89402 10.354 6.33382 10.1534C6.7759 9.95292 7.1838 9.65782 7.51764 9.28068C8.05657 8.67225 8.40864 7.84848 8.40864 6.85722V4.83596H8.40977C8.40522 4.69695 8.38471 4.56934 8.34711 4.45312C8.31065 4.34146 8.25824 4.24348 8.18759 4.1603C7.91984 3.84583 7.66576 3.85837 7.30343 3.87774C7.27039 3.87888 7.23849 3.88115 7.19178 3.88343C5.75843 3.9461 4.81958 3.94496 4.05848 3.87887C3.35776 3.81621 2.8063 3.70113 2.16369 3.53136C2.1033 3.67379 2.03266 3.81279 1.95062 3.94838C1.8458 4.12156 1.72388 4.28677 1.58488 4.44401L1.54272 6.69429C1.52905 7.42007 1.63045 7.93507 1.87428 8.38855C2.12267 8.85 2.52259 9.26245 3.09912 9.77403C3.25179 9.90962 3.41473 10.0236 3.58449 10.117C3.60728 10.1227 3.62665 10.1318 3.64374 10.1432ZM3.99581 8.81126C3.89441 8.74517 3.86592 8.61073 3.932 8.50932C3.99809 8.40792 4.13254 8.37943 4.23394 8.44552C4.48233 8.60731 4.7216 8.69504 4.94833 8.69732C5.16823 8.70074 5.38586 8.62212 5.6012 8.45577C5.69691 8.38171 5.83363 8.3988 5.90769 8.49451C5.98175 8.59022 5.96466 8.72694 5.86895 8.801C5.57271 9.03116 5.26394 9.13712 4.94264 9.1337C4.62931 9.12914 4.3137 9.01748 3.99581 8.81126ZM3.18229 6.0756C3.44321 6.0756 3.654 6.28639 3.654 6.54731C3.654 6.80822 3.44321 7.01901 3.18229 7.01901C2.92137 7.01901 2.71059 6.80822 2.71059 6.54731C2.71059 6.28639 2.92137 6.0756 3.18229 6.0756ZM6.73944 6.0756C7.00036 6.0756 7.21114 6.28639 7.21114 6.54731C7.21114 6.80822 7.00036 7.01901 6.73944 7.01901C6.47852 7.01901 6.26774 6.80822 6.26774 6.54731C6.26774 6.28639 6.47852 6.0756 6.73944 6.0756Z"
                  fill="#82cf45" />
              </svg>