<svg width="36" height="32" viewBox="0 0 36 32" fill="none" xmlns="http://www.w3.org/2000/svg">
<path d="M33.4336 2.5877C32.5898 1.73728 31.582 1.09339 30.4102 0.656034C29.2383 0.218678 27.9023 0 26.4023 0C25.9805 0 25.5586 0.0364456 25.1367 0.109339C24.7148 0.182232 24.293 0.291571 23.8711 0.437357C23.4258 0.607439 23.0039 0.789673 22.6055 0.984053C22.207 1.17843 21.8203 1.40926 21.4453 1.67654C21.0703 1.91951 20.7246 2.16249 20.4082 2.40547C20.0918 2.64844 19.793 2.87927 19.5117 3.09795C19.2539 3.31663 18.9961 3.54138 18.7383 3.77221C18.4805 4.00304 18.2344 4.25209 18 4.51936C17.7656 4.25209 17.5195 4.00304 17.2617 3.77221C17.0039 3.54138 16.7461 3.31663 16.4883 3.09795C16.207 2.87927 15.9082 2.64844 15.5918 2.40547C15.2754 2.16249 14.9297 1.91951 14.5547 1.67654C14.1797 1.40926 13.793 1.17843 13.3945 0.984053C12.9961 0.789673 12.5742 0.607439 12.1289 0.437357C11.707 0.291571 11.2852 0.182232 10.8633 0.109339C10.4414 0.0364456 10.0195 0 9.59766 0C8.09766 0 6.76172 0.218678 5.58984 0.656034C4.41797 1.09339 3.41016 1.73728 2.56641 2.5877C1.69922 3.43812 1.05469 4.46469 0.632812 5.66743C0.210938 6.87016 0 8.2369 0 9.76765C0 10.2293 0.0410156 10.697 0.123047 11.1708C0.205078 11.6446 0.316406 12.1245 0.457031 12.6105C0.621094 13.1207 0.791016 13.5824 0.966797 13.9954C1.14258 14.4085 1.33594 14.7973 1.54688 15.1617C1.75781 15.5019 1.97461 15.8421 2.19727 16.1822C2.41992 16.5224 2.66016 16.8504 2.91797 17.1663C3.17578 17.5065 3.39844 17.792 3.58594 18.0228C3.77344 18.2536 3.92578 18.4298 4.04297 18.5513C4.16016 18.6727 4.25977 18.776 4.3418 18.861C4.42383 18.9461 4.5 19.0251 4.57031 19.0979L17.1211 31.6355C17.2383 31.757 17.373 31.8481 17.5254 31.9089C17.6777 31.9696 17.8359 32 18 32C18.1641 32 18.3223 31.9696 18.4746 31.9089C18.627 31.8481 18.7617 31.757 18.8789 31.6355L31.3945 19.1344C32.9414 17.5308 34.0957 15.9514 34.8574 14.3964C35.6191 12.8413 36 11.2984 36 9.76765C36 8.2369 35.7891 6.87016 35.3672 5.66743C34.9453 4.46469 34.3008 3.43812 33.4336 2.5877ZM29.6367 17.1663L18 28.7927L6.32812 17.1298C5.08594 15.8421 4.14844 14.5847 3.51562 13.3576C2.88281 12.1306 2.56641 10.9339 2.56641 9.76765C2.56641 9.18451 2.60156 8.64996 2.67188 8.16401C2.74219 7.67805 2.84766 7.2164 2.98828 6.77904C3.15234 6.34168 3.32227 5.95292 3.49805 5.61275C3.67383 5.27259 3.87891 4.98102 4.11328 4.73804C4.32422 4.47077 4.57031 4.23386 4.85156 4.02733C5.13281 3.8208 5.42578 3.64465 5.73047 3.49886C6.05859 3.32878 6.38086 3.18906 6.69727 3.07973C7.01367 2.97039 7.32422 2.89142 7.62891 2.84282C7.93359 2.79423 8.25 2.75171 8.57812 2.71526C8.90625 2.67881 9.24609 2.66059 9.59766 2.66059C9.94922 2.66059 10.3125 2.70919 10.6875 2.80638C11.0625 2.90357 11.4492 3.0372 11.8477 3.20729C12.2461 3.37737 12.6328 3.57175 13.0078 3.79043C13.3828 4.00911 13.7344 4.25209 14.0625 4.51936C14.4141 4.78663 14.7305 5.04783 15.0117 5.30296C15.293 5.55809 15.5625 5.80714 15.8203 6.05011C16.0547 6.26879 16.2715 6.48747 16.4707 6.70615C16.6699 6.92483 16.8516 7.13136 17.0156 7.32574C17.1328 7.47153 17.2734 7.58086 17.4375 7.65376C17.6016 7.72665 17.7891 7.7631 18 7.7631C18.2109 7.7631 18.3984 7.72665 18.5625 7.65376C18.7266 7.58086 18.8672 7.47153 18.9844 7.32574C19.1484 7.13136 19.3301 6.92483 19.5293 6.70615C19.7285 6.48747 19.9453 6.26879 20.1797 6.05011C20.4375 5.80714 20.707 5.55809 20.9883 5.30296C21.2695 5.04783 21.5859 4.78663 21.9375 4.51936C22.2656 4.25209 22.6172 4.00911 22.9922 3.79043C23.3672 3.57175 23.7539 3.37737 24.1523 3.20729C24.5508 3.0372 24.9375 2.90357 25.3125 2.80638C25.6875 2.70919 26.0508 2.66059 26.4023 2.66059C26.7539 2.66059 27.0938 2.67881 27.4219 2.71526C27.75 2.75171 28.0664 2.79423 28.3711 2.84282C28.6758 2.89142 28.9863 2.97039 29.3027 3.07973C29.6191 3.18906 29.9414 3.32878 30.2695 3.49886C30.5742 3.64465 30.8672 3.8208 31.1484 4.02733C31.4297 4.23386 31.6758 4.47077 31.8867 4.73804C32.1211 4.98102 32.3262 5.27259 32.502 5.61275C32.6777 5.95292 32.8477 6.34168 33.0117 6.77904C33.1523 7.2164 33.2578 7.67805 33.3281 8.16401C33.3984 8.64996 33.4336 9.18451 33.4336 9.76765C33.4336 10.9339 33.1172 12.1306 32.4844 13.3576C31.8516 14.5847 30.9023 15.8542 29.6367 17.1663Z" fill="black"/>
</svg>
