<svg width="19" height="13" viewBox="0 0 19 13" fill="none" xmlns="http://www.w3.org/2000/svg">
<g clip-path="url(#clip0_1063_10595)">
<path fill-rule="evenodd" clip-rule="evenodd" d="M18.2901 1.67085C18.6472 2.02494 18.8931 2.48939 18.9719 3.00749C19.0013 3.20676 18.9998 3.37843 18.9998 3.57464V6.80739C18.9998 6.98214 19.0044 7.15535 18.989 7.33009C18.9209 8.05359 18.5127 8.72037 17.8973 9.11431C17.118 9.61555 16.2274 9.50059 15.295 9.50059C15.6027 10.3406 16.2228 11.1162 16.8923 11.7033L16.6418 12.1693L16.6341 12.1662C15.0121 11.7523 13.3019 10.802 12.2598 9.49906C11.615 9.49292 11.0877 9.50059 10.4445 9.41475C9.73635 9.84088 8.89365 10.1183 8.06179 10.1183C7.52215 10.7851 6.89439 11.3553 6.17694 11.8228C5.40228 12.3271 4.52712 12.7104 3.55145 12.9648C3.50352 12.9771 3.45559 12.9893 3.40611 12.9955C3.23757 13.0139 3.0613 12.9541 2.94069 12.8192C2.74278 12.5985 2.76442 12.2597 2.98708 12.0635C3.61794 11.5101 3.97048 10.9031 4.22251 10.1214C2.99172 10.1214 1.96193 10.2501 0.95998 9.2584C-0.290915 8.0168 0.0198757 5.13047 0.0832709 3.39836C0.103372 2.84194 0.0647162 2.47559 0.288919 1.89465C0.579609 1.13742 1.18264 0.525822 1.94492 0.22232C2.65773 -0.0627884 3.43239 0.00772218 4.18386 0.00772218H8.75295C9.08848 0.00772218 9.36216 0.00618934 9.70542 0.0858969C10.2837 0.217721 10.8079 0.522756 11.2176 0.965746L16.4933 0.967279C17.1907 0.967279 17.7891 1.17268 18.2901 1.67085ZM15.4512 6.55907H14.0642L13.8725 7.24272H12.6293C13.0453 6.07776 13.4627 4.91127 13.8787 3.74478C14.0287 3.32325 14.1987 2.62581 14.7446 2.62581C15.3105 2.62581 15.4976 3.265 15.6553 3.70646L16.9201 7.24119H15.646L15.4512 6.55907ZM15.1961 5.66236L14.76 4.17244L14.3271 5.66236H15.1961ZM12.8566 10.9844L11.9552 10.2455L10.8295 11.6236L9.19517 10.218L8.4236 11.0825L10.194 12.4789L11.6289 12.3563L12.8566 10.9844ZM11.8516 1.51144C12.3804 3.55164 12.9448 7.13542 11.5253 8.9503C11.8609 8.9549 12.1918 8.9549 12.5273 8.9549C13.288 9.95737 14.2652 10.6579 15.4156 11.1699C15.5239 11.2174 15.6336 11.2649 15.7434 11.3078C15.3522 10.8388 15.009 10.2977 14.791 9.72438C14.6904 9.4592 14.6363 9.22621 14.5683 8.9549C14.8837 8.9549 15.193 8.95796 15.5099 8.96869C16.2104 8.99322 16.9479 9.01315 17.5309 8.68972C17.7829 8.55023 17.9855 8.35249 18.1447 8.1149C18.2854 7.90184 18.3844 7.65812 18.4277 7.39907C18.4601 7.20286 18.4493 6.98673 18.4493 6.78747V3.46887C18.4493 3.3815 18.4509 3.30179 18.4447 3.21442C18.4091 2.7653 18.2081 2.35756 17.902 2.05406C17.6051 1.75822 17.2077 1.56202 16.7686 1.5191C16.6557 1.50837 16.5444 1.5099 16.4315 1.5099L11.8516 1.51144ZM3.27932 2.06786H5.35744V1.48691H6.28517V2.06786H8.37103V3.02128H7.94273C7.90871 3.28953 7.84531 3.55624 7.75873 3.81989H7.76027C7.67214 4.08814 7.55153 4.35792 7.40773 4.62463C7.16343 5.07682 6.848 5.51061 6.48309 5.92754C7.06756 6.62039 7.7912 7.22279 8.65554 7.77155L8.17775 8.50884C7.27167 7.9325 6.50165 7.2979 5.86924 6.56674C5.30332 7.10936 4.66164 7.6152 3.98749 8.07658L3.48496 7.35615C4.15139 6.89936 4.78379 6.39966 5.32806 5.86776C4.82554 5.13966 4.44208 4.32266 4.17613 3.38303L5.02809 3.14697C5.24611 3.91799 5.55226 4.59551 5.94501 5.20251C6.2125 4.88061 6.44444 4.55105 6.62844 4.2123C6.7444 3.9977 6.84336 3.77391 6.91913 3.54551H6.92067C6.97788 3.37537 7.02118 3.19909 7.05056 3.02128H3.27932V2.06786Z" fill="#82CF45"/>
</g>
<defs>
<clipPath id="clip0_1063_10595">
<rect width="19" height="13" fill="white"/>
</clipPath>
</defs>
</svg>