<svg width="16" height="16" viewBox="0 0 16 16" fill="none" xmlns="http://www.w3.org/2000/svg">
<path fill-rule="evenodd" clip-rule="evenodd" d="M0.0418387 14.9209L1.32683 12.6512C1.43228 12.4795 1.54815 12.3372 1.67704 12.236C2.08194 11.9181 3.10264 12.2475 3.59216 12.3321C3.6898 12.3539 6.91854 10.7006 8.48214 10.7006L9.3401 10.22C9.70073 10.0175 10.5327 9.45617 10.8985 9.46386C11.1667 9.47027 11.4193 9.62021 11.6549 9.92524L12.8878 11.7554L15.9122 14.8158C16.1686 14.9811 15.7976 15.0696 15.6375 15.0696H0.104331C-0.0232569 15.0439 -0.0206531 14.9888 0.0418387 14.9209ZM8.98859 3.68128C8.93911 3.50057 9.04847 3.31474 9.23204 3.26732C9.41561 3.21862 9.60439 3.32627 9.65256 3.50698L9.76192 3.9094L9.77624 3.90299L9.78015 3.90171C9.91034 3.85814 10.064 3.88505 10.1968 3.96323C10.2918 4.01834 10.3777 4.09908 10.4389 4.19904C10.5014 4.29901 10.5392 4.4182 10.5379 4.54892C10.5366 4.73732 10.4532 4.9475 10.2397 5.15512C10.2306 5.16409 10.2202 5.1705 10.2085 5.17434L10.1147 5.21151L11.0977 8.81921C11.0352 8.81024 10.9714 8.80383 10.9076 8.80255C10.7553 8.79871 10.5847 8.83716 10.4077 8.89867L9.4716 5.4627L9.23074 5.55626L9.14091 5.5883C8.61754 5.77157 8.23738 5.90357 7.57341 5.74209C7.5682 5.74081 7.56429 5.73953 7.55908 5.73697C7.0943 5.5601 6.85345 5.31276 6.6191 5.07181L6.58525 5.03721L6.28842 6.89809C6.55401 7.06214 6.8196 7.18389 7.06957 7.29924C7.82988 7.64783 8.4548 7.93619 8.5889 9.11142C8.61364 9.32288 8.60192 9.52153 8.5902 9.73684V9.74068C8.5889 9.77144 8.5863 9.80476 8.58369 9.88166L8.29467 10.0444C7.96658 10.0649 7.59424 10.1354 7.20366 10.2367C7.21017 10.0816 7.21798 9.9278 7.2258 9.77401L7.231 9.66763C7.23751 9.5446 7.24402 9.43182 7.23751 9.32545C7.231 9.2242 7.21278 9.13064 7.16981 9.03965L7.1581 9.0153C7.11123 8.91405 7.06696 8.81921 7.00187 8.78974C6.87167 8.7295 6.66597 8.65645 6.43163 8.58084C6.16343 8.49369 5.86399 8.40526 5.59971 8.33221C5.40572 8.96532 5.14273 9.72915 4.86022 10.4571C4.76258 10.7083 4.66363 10.9544 4.56338 11.1902C4.46834 11.2312 4.37851 11.2709 4.29128 11.3081C3.85775 11.4978 3.55831 11.6464 3.09743 11.5503C3.04926 11.5401 2.99979 11.5311 2.95031 11.5208C3.13518 11.0466 3.33177 10.5122 3.52315 9.97265C3.80958 9.16525 4.08428 8.34118 4.28608 7.67987C4.1663 7.53505 4.05043 7.37229 3.97231 7.19286C3.88509 6.9955 3.84343 6.78147 3.88639 6.55206L4.30951 4.30029L4.28738 4.29901C4.14026 4.2926 4.01788 4.28748 3.87858 4.34771C3.68589 4.43101 3.53487 4.5989 3.36432 4.7873C3.29662 4.86291 3.22502 4.94237 3.143 5.02311L3.13779 5.02824C3.0766 5.08976 3.01411 5.15384 2.95422 5.21279L2.20692 5.95612C2.17437 5.98816 2.1236 5.98816 2.09105 5.95612L1.27605 5.11411C1.24481 5.08207 1.24611 5.0308 1.27866 5.00004L2.02465 4.258C2.08845 4.19392 2.14443 4.13753 2.19781 4.0837L2.20562 4.07601C2.54151 3.7146 2.81622 3.42496 3.16643 3.23015C3.52185 3.03279 3.94758 2.9341 4.58421 2.9623H4.58552C4.81335 2.96486 5.08024 2.98921 5.30157 3.00972C5.40442 3.01869 5.49685 3.02766 5.57497 3.03279C6.64775 3.10199 7.15028 3.65821 7.54086 4.09011C7.71401 4.28107 7.86243 4.44639 8.02387 4.52201C8.09938 4.55789 8.21916 4.50791 8.35455 4.45152C8.43657 4.41692 8.5238 4.38103 8.61494 4.35668C8.67482 4.33489 8.70737 4.32208 8.73211 4.31311C8.76466 4.30029 8.78679 4.2926 8.79981 4.28747L9.11748 4.16316L8.98859 3.68128ZM5.6635 0.137652C5.99939 0.0248715 6.35091 0.0569115 6.64644 0.199169C6.94198 0.341427 7.18283 0.596465 7.2987 0.927118C7.41327 1.25777 7.38202 1.6038 7.23621 1.89473C7.0917 2.18565 6.83262 2.42275 6.49672 2.53553C6.16083 2.64831 5.80931 2.61755 5.51378 2.47401C5.21825 2.33175 4.97739 2.07671 4.86282 1.74606C4.74825 1.41541 4.7795 1.06938 4.92531 0.778453C5.06853 0.488811 5.3263 0.251715 5.6635 0.137652Z" fill="#82CF45"/>
</svg>