<svg width="21" height="13" viewBox="0 0 21 13" fill="none" xmlns="http://www.w3.org/2000/svg">
<path fill-rule="evenodd" clip-rule="evenodd" d="M0 12.468C0 8.19687 4.2793 10.5611 4.60742 7.94241C4.64331 7.65735 3.92896 6.57024 3.7666 6.04843C3.41626 5.52179 3.2915 4.68753 3.67432 4.1319C3.82642 3.91126 3.76147 3.10599 3.76147 2.8016C3.76147 1.94158 4.19214 1.44876 4.7749 0.989758C4.98853 0.822263 5.02441 0.620947 5.33545 0.550084C6.87183 0.200599 9.38574 0.9962 9.38574 2.80321C9.38574 3.18652 9.29175 3.88871 9.51221 4.18988C9.72583 4.48138 9.75146 4.90495 9.67456 5.30114C9.59082 5.36234 9.50879 5.42837 9.42676 5.49602C9.2439 5.64902 9.06104 5.81812 8.88159 6.00333C8.87305 6.00978 8.86621 6.01783 8.85767 6.02427L8.85596 6.02588C8.77051 6.10641 8.70386 6.20948 8.67139 6.32866C8.59961 6.58151 8.69019 6.8392 8.8833 7.00186C8.65601 7.39966 8.45264 7.77814 8.48853 7.94402C8.54492 8.21298 8.75684 8.461 9.05933 8.68808V8.69292C9.05933 8.70741 9.06104 8.72191 9.06274 8.73479C9.073 8.83303 9.09009 8.92644 9.11401 9.01019C9.14136 9.1036 9.17725 9.1954 9.22339 9.28076C9.30371 9.43054 9.41138 9.56099 9.5481 9.66406C9.61646 9.7156 9.69165 9.7607 9.77026 9.79613C9.79077 9.81868 9.81128 9.84122 9.83179 9.86216L9.86597 9.90081C9.24048 10.0135 8.8064 10.1198 8.44067 10.4613C8.03564 10.8398 7.88184 11.3712 7.88184 12.3295C7.88184 12.3778 7.88696 12.4245 7.8938 12.4696L0 12.468ZM13.1643 5.15136C13.9333 0.877021 18.3665 0.978485 19.033 5.45736C19.4705 8.40624 21.3469 8.29995 18.4177 8.29995H17.2488C17.2437 9.05045 17.1206 9.43376 17.946 9.85572C18.7715 10.2761 21 10.4935 21 11.5597V12.2425C21 12.2973 20.9521 12.3424 20.894 12.3424H15.7551V12.3279C15.7551 11.3696 15.5996 10.8365 15.1946 10.4597C14.875 10.1617 14.5042 10.0441 13.9983 9.94269C14.0991 9.8992 14.1931 9.8525 14.282 9.80257C15.0083 9.39189 14.8853 8.97959 14.8801 8.29995H14.564C14.5588 8.26452 14.552 8.2323 14.5452 8.20009H14.5435C14.5093 8.05031 14.4529 7.90537 14.3708 7.77653C14.3572 7.75398 14.3418 7.73143 14.3264 7.71049V7.61064C14.4238 7.27082 14.4495 6.89557 14.3862 6.54769C14.3162 6.15633 14.135 5.78913 13.8274 5.51695C13.6685 5.37523 13.4907 5.27054 13.2976 5.19807C13.2549 5.17874 13.2104 5.16425 13.1643 5.15136ZM9.36182 6.49777C10.4607 5.35429 11.7305 4.73424 12.6807 5.75048C12.9302 5.76175 13.1541 5.83906 13.3403 6.00494C13.7317 6.35121 13.7932 7.00025 13.6138 7.51562V7.96496C13.7351 8.04065 13.8137 8.18077 13.8479 8.34021C13.8718 8.44328 13.877 8.55763 13.865 8.66554C13.853 8.77827 13.824 8.88618 13.7761 8.97476C13.7078 9.10199 13.6052 9.19057 13.4651 9.2099C13.3284 9.3484 13.1934 9.49496 13.0737 9.63669C12.9421 9.79291 12.8293 9.93947 12.7524 10.0619C12.6926 10.1553 12.7114 10.2165 12.7336 10.2857C12.7439 10.3212 12.7559 10.3566 12.7627 10.3952C13.0037 10.4436 13.2207 10.4822 13.4155 10.5176C14.6545 10.7367 15.0408 10.8043 15.0408 12.3247C15.0408 12.402 14.9741 12.4648 14.8921 12.4648H8.74487C8.66284 12.4648 8.59619 12.402 8.59619 12.3247C8.59619 10.8043 8.98071 10.7367 10.2214 10.5176C10.418 10.4822 10.6384 10.4436 10.8794 10.3952C10.8879 10.3646 10.8982 10.3373 10.9084 10.3083C10.9341 10.2422 10.958 10.1746 10.8845 10.0619C10.8059 9.94108 10.6931 9.79291 10.5632 9.63669C10.4436 9.49496 10.3086 9.34679 10.1719 9.2099C10.0317 9.19057 9.92749 9.10199 9.86084 8.97476C9.81299 8.88779 9.78394 8.77827 9.77197 8.66554C9.76172 8.55763 9.76685 8.44328 9.78906 8.34021C9.82495 8.18077 9.90186 8.04065 10.0215 7.96496L9.86084 7.87477C9.81641 7.42865 9.94287 6.64754 9.36182 6.49777Z" fill="#82CF45"/>
</svg>