<svg width="16" height="16" viewBox="0 0 16 16" fill="none" xmlns="http://www.w3.org/2000/svg">
<path fill-rule="evenodd" clip-rule="evenodd" d="M3.13244 2.63552C9.14557 -1.29982 9.59467 6.48882 15.5 1.62586V9.56172C9.86776 14.3566 8.65276 6.60943 3.13244 10.5466V2.63552ZM1.64731 0.469604C2.28105 0.469604 2.79475 0.956181 2.79475 1.55579C2.79475 1.95411 2.56807 2.30214 2.23064 2.49123H2.28479V3.4219V12.5177V13.4483H2.23064C2.56807 13.6374 2.79475 13.8846 2.79475 14.3837C2.79475 14.8826 2.28105 15.4696 1.64731 15.4696C1.0137 15.4696 0.5 14.8824 0.5 14.3837C0.5 13.8846 0.726548 13.6374 1.06398 13.4483H1.00996V12.5177V3.4219V2.49123H1.06398C0.726548 2.30214 0.5 1.95424 0.5 1.55579C0.5 0.956181 1.0137 0.469604 1.64731 0.469604Z" fill="#82CF45"/>
</svg>