<svg width="16" height="17" viewBox="0 0 16 17" fill="none" xmlns="http://www.w3.org/2000/svg">
<path d="M10.4531 3.72937C10.7865 3.92729 11.1458 3.97677 11.5312 3.87781C11.9167 3.77885 12.2083 3.5575 12.4062 3.21375C12.6042 2.88041 12.6536 2.52104 12.5547 2.13562C12.4557 1.7502 12.2396 1.45854 11.9062 1.26062C11.5625 1.0627 11.1979 1.01322 10.8125 1.11218C10.4271 1.21114 10.1354 1.42729 9.9375 1.76062C9.73958 2.10437 9.6901 2.46895 9.78906 2.85437C9.88802 3.23979 10.1094 3.53145 10.4531 3.72937ZM12.7969 8.66687C12.7552 8.66687 12.7135 8.66687 12.6719 8.66687C12.6302 8.66687 12.5938 8.67208 12.5625 8.6825L12.0938 6.35437L12.2344 6.29187C12.4115 6.22937 12.5391 6.11218 12.6172 5.94031C12.6953 5.76843 12.7031 5.59916 12.6406 5.4325C12.5677 5.25541 12.4479 5.12781 12.2812 5.04968C12.1146 4.97156 11.9427 4.96895 11.7656 5.04187L10.0781 5.66687L10.0156 5.0575C10.1094 4.83875 10.1484 4.60437 10.1328 4.35437C10.1172 4.10437 10.026 3.88562 9.85938 3.69812C9.50521 3.3127 9.14844 3.15906 8.78906 3.23718C8.42969 3.31531 8.1875 3.40645 8.0625 3.51062L4.57812 6.32312C4.52604 6.3752 4.47917 6.42989 4.4375 6.48718C4.39583 6.54447 4.35938 6.60958 4.32812 6.6825C4.28646 6.76583 4.26302 6.85177 4.25781 6.94031C4.2526 7.02885 4.26042 7.12 4.28125 7.21375C4.13542 7.22416 4.01562 7.27885 3.92188 7.37781C3.82812 7.47677 3.78125 7.59916 3.78125 7.745C3.78125 7.89083 3.83333 8.01583 3.9375 8.12C4.04167 8.22416 4.16667 8.27625 4.3125 8.27625L4.09375 8.79187C3.94792 8.7502 3.80208 8.71895 3.65625 8.69812C3.51042 8.67729 3.35938 8.66687 3.20312 8.66687C2.76562 8.66687 2.35417 8.7502 1.96875 8.91687C1.57292 9.08354 1.22917 9.3127 0.9375 9.60437C0.645833 9.89604 0.416667 10.2398 0.25 10.6356C0.0833333 11.021 0 11.4325 0 11.87C0 12.3179 0.0833333 12.7346 0.25 13.12C0.416667 13.5158 0.645833 13.8596 0.9375 14.1512C1.22917 14.4429 1.57292 14.6721 1.96875 14.8387C2.35417 15.0054 2.76562 15.0887 3.20312 15.0887C3.65104 15.0887 4.06771 15.0054 4.45312 14.8387C4.84896 14.6721 5.19271 14.4429 5.48438 14.1512C5.77604 13.8596 6.00521 13.5158 6.17188 13.12C6.33854 12.7346 6.42188 12.3179 6.42188 11.87C6.42188 11.2867 6.27604 10.7502 5.98438 10.2606C5.69271 9.77104 5.30729 9.38562 4.82812 9.10437L5.1875 8.27625H5.76562L7.73438 9.07312L6.67188 10.7919C6.53646 11.0106 6.5 11.245 6.5625 11.495C6.625 11.745 6.76562 11.9377 6.98438 12.0731C7.06771 12.1252 7.15104 12.1617 7.23438 12.1825C7.31771 12.2033 7.40104 12.2137 7.48438 12.2137C7.64062 12.2137 7.79167 12.1747 7.9375 12.0966C8.08333 12.0184 8.19792 11.9065 8.28125 11.7606L9.23438 10.1981L9.85938 10.5731C9.76562 10.771 9.69531 10.9794 9.64844 11.1981C9.60156 11.4169 9.57812 11.6408 9.57812 11.87C9.57812 12.3179 9.66146 12.7346 9.82812 13.12C9.99479 13.5158 10.224 13.8596 10.5156 14.1512C10.8073 14.4429 11.151 14.6721 11.5469 14.8387C11.9323 15.0054 12.349 15.0887 12.7969 15.0887C13.2344 15.0887 13.6458 15.0054 14.0312 14.8387C14.4271 14.6721 14.7708 14.4429 15.0625 14.1512C15.3542 13.8596 15.5833 13.5158 15.75 13.12C15.9167 12.7346 16 12.3179 16 11.87C16 11.4325 15.9167 11.021 15.75 10.6356C15.5833 10.2398 15.3542 9.89604 15.0625 9.60437C14.7708 9.3127 14.4271 9.08354 14.0312 8.91687C13.6458 8.7502 13.2344 8.66687 12.7969 8.66687ZM3.20312 14.2762C2.54688 14.2762 1.98438 14.0419 1.51562 13.5731C1.04688 13.1044 0.8125 12.5367 0.8125 11.87C0.8125 11.2137 1.04688 10.6486 1.51562 10.1747C1.98438 9.70072 2.54688 9.46375 3.20312 9.46375C3.30729 9.46375 3.40625 9.47156 3.5 9.48718C3.59375 9.50281 3.68229 9.52104 3.76562 9.54187L3.10938 11.1044C2.91146 11.1252 2.7474 11.2085 2.61719 11.3544C2.48698 11.5002 2.42188 11.6721 2.42188 11.87C2.42188 12.0887 2.5 12.2762 2.65625 12.4325C2.8125 12.5887 2.99479 12.6669 3.20312 12.6669C3.34896 12.6669 3.48177 12.6304 3.60156 12.5575C3.72135 12.4846 3.8125 12.3908 3.875 12.2762H5.57812C5.48438 12.8492 5.21615 13.3257 4.77344 13.7059C4.33073 14.0861 3.80729 14.2762 3.20312 14.2762ZM5.57812 11.4794H3.875C3.875 11.469 3.8724 11.4585 3.86719 11.4481C3.86198 11.4377 3.85417 11.4273 3.84375 11.4169L4.51562 9.85437C4.78646 10.0419 5.01562 10.2736 5.20312 10.5497C5.39062 10.8257 5.51562 11.1356 5.57812 11.4794ZM9.65625 9.51062L9.90625 9.10437C9.97917 8.98979 10.0234 8.86479 10.0391 8.72937C10.0547 8.59395 10.0417 8.45854 10 8.32312C9.95833 8.1877 9.89062 8.07052 9.79688 7.97156C9.70312 7.8726 9.58854 7.79708 9.45312 7.745L7.73438 7.0575L8.79688 6.19812L8.85938 6.66687C8.86979 6.77104 8.90365 6.86739 8.96094 6.95593C9.01823 7.04447 9.08854 7.11479 9.17188 7.16687C9.22396 7.19812 9.28125 7.22156 9.34375 7.23718C9.40625 7.25281 9.46354 7.26062 9.51562 7.26062C9.55729 7.26062 9.59896 7.25802 9.64062 7.25281C9.68229 7.2476 9.71875 7.23458 9.75 7.21375L11.3281 6.63562L11.7656 8.83875C11.474 8.9325 11.2005 9.07052 10.9453 9.25281C10.6901 9.4351 10.4688 9.64604 10.2812 9.88562L9.65625 9.51062ZM12.2188 11.0575L10.9844 10.3075C11.1094 10.1617 11.2526 10.0315 11.4141 9.91687C11.5755 9.80229 11.7448 9.70854 11.9219 9.63562L12.2188 11.0575ZM12.7969 14.2762C12.1302 14.2762 11.5625 14.0419 11.0938 13.5731C10.625 13.1044 10.3906 12.5367 10.3906 11.87C10.3906 11.7137 10.4036 11.5627 10.4297 11.4169C10.4557 11.271 10.5 11.1304 10.5625 10.995L12 11.87C12 12.0887 12.0781 12.2762 12.2344 12.4325C12.3906 12.5887 12.5781 12.6669 12.7969 12.6669C13.0052 12.6669 13.1875 12.5887 13.3438 12.4325C13.5 12.2762 13.5781 12.0887 13.5781 11.87C13.5781 11.7033 13.5286 11.5523 13.4297 11.4169C13.3307 11.2815 13.2031 11.1877 13.0469 11.1356L12.7188 9.47937C12.7292 9.47937 12.7396 9.47677 12.75 9.47156C12.7604 9.46635 12.776 9.46375 12.7969 9.46375C13.4531 9.46375 14.0156 9.70072 14.4844 10.1747C14.9531 10.6486 15.1875 11.2137 15.1875 11.87C15.1875 12.5367 14.9531 13.1044 14.4844 13.5731C14.0156 14.0419 13.4531 14.2762 12.7969 14.2762Z" fill="#82CF45"/>
</svg>