<svg width="13" height="12" viewBox="0 0 13 12" fill="none" xmlns="http://www.w3.org/2000/svg">
<g clip-path="url(#clip0_1014_12146)">
<path d="M11.9472 0.808692C11.6828 0.660254 11.4126 0.681739 11.1365 0.873145C10.8605 1.06455 10.633 1.24229 10.4542 1.40635C10.0498 1.80479 9.66881 2.22471 9.31111 2.66611C8.95341 3.10752 8.58405 3.53525 8.20302 3.94932C7.77534 4.41025 7.35932 4.86924 6.95497 5.32627C6.55061 5.7833 6.13071 6.23447 5.69525 6.67979C5.44641 6.92979 5.19758 7.1915 4.94875 7.46494C4.69991 7.73838 4.48996 8.03135 4.31889 8.34385C3.94564 7.97666 3.586 7.60361 3.23996 7.22471C2.89393 6.8458 2.51485 6.49619 2.10272 6.17588C1.79945 5.94932 1.45925 5.80674 1.08211 5.74814C0.704973 5.68955 0.520292 5.9376 0.528068 6.49229C0.535844 6.85166 0.613604 7.21494 0.761349 7.58213C0.909094 7.9415 1.09377 8.29307 1.31539 8.63682C1.53701 8.98057 1.77612 9.30869 2.03273 9.62119C2.28934 9.92588 2.53429 10.2032 2.76757 10.4532C2.96197 10.6563 3.18747 10.8497 3.44408 11.0333C3.70069 11.2169 3.98063 11.3126 4.2839 11.3204C4.64159 11.3438 4.99346 11.1915 5.33949 10.8634C5.68553 10.5353 5.96741 10.2501 6.18514 10.0079C6.57394 9.59385 6.93164 9.16025 7.25823 8.70713C7.58483 8.254 7.92697 7.8126 8.28467 7.38291C8.51018 7.10166 8.73957 6.82432 8.97285 6.55088C9.19835 6.26963 9.4258 5.98838 9.6552 5.70713C9.88459 5.42588 10.112 5.14463 10.3375 4.86338C10.5708 4.58213 10.7963 4.29697 11.0141 4.00791C11.154 3.83604 11.3484 3.60557 11.5973 3.3165C11.8383 3.02744 12.0444 2.72861 12.2155 2.42002C12.3865 2.11143 12.4721 1.8126 12.4721 1.52354C12.4721 1.23447 12.2971 0.996192 11.9472 0.808692ZM1.43786 6.41025C1.43009 6.41025 1.42037 6.41025 1.4087 6.41025C1.39704 6.41025 1.37954 6.41807 1.35622 6.43369C1.31734 6.41807 1.2804 6.40439 1.24541 6.39268C1.21042 6.38096 1.17348 6.36338 1.1346 6.33994C1.1657 6.32432 1.20653 6.32041 1.25707 6.32822C1.30762 6.33604 1.36788 6.36338 1.43786 6.41025Z" fill="#82CF45"/>
</g>
<defs>
<clipPath id="clip0_1014_12146">
<rect width="12" height="12" fill="white" transform="matrix(1 0 0 -1 0.5 12)"/>
</clipPath>
</defs>
</svg>
