<svg width="20" height="25" viewBox="0 0 20 25" fill="none" xmlns="http://www.w3.org/2000/svg">
<path fill-rule="evenodd" clip-rule="evenodd" d="M5.06845 17.8772C5.44273 13.3891 6.19127 9.70256 9.30365 8.23975C11.0549 13.7085 9.67005 18.9453 7.63124 25H10.8086C12.8021 15.3137 11.7876 11.7635 10.5742 8.60392C12.4909 9.84904 14.1988 12.5366 15.8337 16.7969C18.1286 12.3779 16.6709 9.13493 11.2223 7.02718C14.3386 6.03231 17.2599 7.30184 20 9.80632C18.5325 4.09546 14.3465 2.712 10.6077 5.97331C11.1179 1.88192 9.48291 0.897217 7.29243 0C8.32266 1.61947 9.1047 3.30811 8.98651 5.24902C5.60622 2.04468 2.79523 3.23079 0.196986 6.05265C2.68886 5.45044 5.26741 5.19816 7.44411 6.7037C3.53787 6.191 1.35132 8.46558 0 11.4522C1.63498 9.90601 3.17345 8.90503 4.80843 8.72192C3.09465 11.9303 3.85305 14.7664 5.06845 17.8772Z" fill="#82CF45"/>
</svg>
