<svg width="22" height="22" viewBox="0 0 22 22" fill="none" xmlns="http://www.w3.org/2000/svg">
<path fill-rule="evenodd" clip-rule="evenodd" d="M11 20L6.99998 21V19.2C6.99998 19.1 7.09997 18.9 7.19998 18.8L8.99997 17.2001V12.4L1.69999 15.6C1.39999 15.8 1 15.6 1 15.2V13.5C1 13.2 1.19999 12.9 1.39999 12.7L8.99997 7.7V3.00001C8.99997 1.9 9.89997 1 11 1C12.1 1 13 1.9 13 3.00001V7.7L20.6 12.7C20.9 12.9 21 13.2 21 13.5V15.2C21 15.6 20.6 15.8 20.3 15.7001L13 12.5V17.3L14.7999 18.9C14.9 19.0001 15 19.1 15 19.3001V21L11 20Z" stroke="#82CF45" stroke-width="1.5" stroke-linecap="round" stroke-linejoin="round"/>
</svg>
