<svg width="13" height="13" viewBox="0 0 13 13" xmlns="http://www.w3.org/2000/svg">
<path d="M6.09998 0.680176C6.69598 0.680176 7.04931 1.41618 7.04931 2.18884V4.57351C7.04931 4.81084 7.16798 4.98951 7.34598 5.10818L11.8026 7.54418C11.9813 7.66351 12.1 7.84151 12.1 8.07951V8.46284C12.1 8.87884 11.684 9.17618 11.3273 8.99818L7.46531 7.69084C7.41809 7.67681 7.36829 7.67373 7.31969 7.68183C7.2711 7.68994 7.225 7.70902 7.18489 7.73763C7.14478 7.76623 7.11172 7.8036 7.08823 7.8469C7.06473 7.8902 7.05142 7.93829 7.04931 7.98751V9.98218C7.04931 10.2202 7.16798 10.3415 7.34598 10.4602L8.47531 11.1735C8.71264 11.2922 8.86998 11.4842 8.79198 11.6242C8.77464 11.6562 8.74598 11.7908 8.58198 11.8268C8.41798 11.8635 7.76331 11.7095 6.80531 11.5435L6.75064 11.5355C6.58798 11.9242 6.37064 12.1188 6.09998 12.1188C5.82864 12.1188 5.60998 11.9235 5.44464 11.5335C5.42791 11.5355 5.41124 11.5379 5.39464 11.5408C4.43664 11.7075 3.78131 11.8608 3.61798 11.8242C3.45398 11.7882 3.42531 11.6535 3.40798 11.6215C3.32998 11.4815 3.48731 11.2895 3.72464 11.1708L4.85398 10.4575C5.03198 10.3388 5.15064 10.1008 5.15064 9.92284V7.92818C5.15064 7.69084 4.91331 7.57151 4.73464 7.63151L0.872642 8.93818C0.515976 9.11684 0.0999756 8.82018 0.0999756 8.40351V8.02018C0.0999756 7.84151 0.218642 7.60418 0.397309 7.54418L4.85398 5.10818C5.03198 4.98951 5.15064 4.81084 5.15064 4.57351V2.12951C5.15064 1.23818 5.50398 0.680176 6.09998 0.680176Z"/>
</svg>
