<svg width="16" height="8" viewBox="0 0 16 8" fill="none" xmlns="http://www.w3.org/2000/svg">
<path d="M8.00003 8C7.90452 8.00009 7.80992 7.98288 7.72168 7.94936C7.63344 7.91584 7.5533 7.86667 7.48585 7.80467L0.213136 1.13804C-0.0710453 0.877537 -0.0710453 0.455706 0.213136 0.195374C0.497317 -0.064958 0.957498 -0.0651246 1.2415 0.195374L8.00003 6.39067L14.7586 0.195374C15.0428 -0.0651246 15.5029 -0.0651246 15.7869 0.195374C16.0709 0.455873 16.0711 0.877703 15.7869 1.13804L8.51422 7.80467C8.44677 7.86667 8.36662 7.91584 8.27838 7.94936C8.19014 7.98288 8.09555 8.00009 8.00003 8Z" fill="#FF6C0E"/>
</svg>
