<svg width="13" height="17" viewBox="0 0 13 17" fill="none" xmlns="http://www.w3.org/2000/svg">
<path fill-rule="evenodd" clip-rule="evenodd" d="M7.11973 3.35628C8.40081 3.4914 9.57055 4.00433 10.5151 4.77998L11.1669 4.09941C11.2995 3.96054 11.5222 3.95804 11.6611 4.0919L12.0989 4.51726C12.2365 4.65112 12.239 4.87256 12.1064 5.01017L11.4371 5.70826C12.3316 6.81294 12.8683 8.22037 12.8683 9.75166C12.8683 13.3046 9.98714 16.1858 6.43416 16.1858C2.88117 16.1871 0 13.3059 0 9.75291C0 8.14906 0.587994 6.68158 1.55881 5.55438L0.805677 4.84629C0.665559 4.71493 0.661806 4.49224 0.794418 4.35337L1.21602 3.91175C1.34863 3.77288 1.57007 3.76913 1.70894 3.90049L2.51086 4.65488C3.48793 3.90174 4.68644 3.42384 5.99254 3.33627V1.94009H4.754C4.58886 1.94009 4.45374 1.80498 4.45374 1.63984V1.1144C4.45374 0.949262 4.58886 0.814148 4.754 0.814148H8.35703C8.52216 0.814148 8.65728 0.949262 8.65728 1.1144V1.63984C8.65728 1.80498 8.52216 1.94009 8.35703 1.94009H7.11848V3.35628H7.11973ZM5.90997 7.39843H6.45918C6.55926 7.39843 6.64183 7.481 6.64183 7.58109V9.87677H8.332C8.43209 9.87677 8.51466 9.95933 8.51466 10.0594V10.6086C8.51466 10.7087 8.43209 10.7913 8.332 10.7913H5.72731V10.5223V9.87677V7.58109C5.72731 7.47975 5.80988 7.39843 5.90997 7.39843ZM6.43416 4.52852C9.31908 4.52852 11.6586 6.86799 11.6586 9.75291C11.6586 12.6378 9.31908 14.9773 6.43416 14.9773C3.54923 14.9773 1.20977 12.6378 1.20977 9.75291C1.20977 6.86799 3.54923 4.52852 6.43416 4.52852Z" fill="black"/>
</svg>
