<svg width="13" height="13" viewBox="0 0 13 13" fill="none" xmlns="http://www.w3.org/2000/svg">
<path d="M0.639232 1.31176C0.453589 1.12612 0.453589 0.825045 0.639232 0.639305C0.824874 0.453565 1.12595 0.453565 1.31169 0.639305L6.49981 5.82743L11.6879 0.639305C11.8736 0.453565 12.1747 0.453565 12.3605 0.639305C12.5461 0.824948 12.5461 1.12612 12.3605 1.31176L7.17217 6.49979L12.3604 11.688C12.546 11.8737 12.546 12.1747 12.3604 12.3605C12.1747 12.5462 11.8736 12.5462 11.6878 12.3605L6.49971 7.17234L1.31169 12.3605C1.12604 12.5462 0.824972 12.5462 0.639232 12.3605C0.453589 12.1748 0.453589 11.8738 0.639232 11.688L5.82736 6.49979L0.639232 1.31176Z" fill="black"/>
</svg>
