<svg width="11" height="15" viewBox="0 0 11 15" fill="none" xmlns="http://www.w3.org/2000/svg">
<path fill-rule="evenodd" clip-rule="evenodd" d="M8.16916 12.9738C7.5026 13.7221 6.72634 14.3922 5.85469 14.9342C5.74737 15.0148 5.60189 15.0246 5.48265 14.9464C4.19485 14.1078 3.11333 13.1007 2.26314 12.0058C1.08981 10.4994 0.351705 8.82949 0.0989136 7.2206C-0.158647 5.58975 0.0822198 4.01992 0.875174 2.74429C1.18759 2.24014 1.58704 1.78115 2.07355 1.38442C3.19203 0.472558 4.4691 -0.00962017 5.7426 0.000145455C6.9684 0.00991108 8.1787 0.47744 9.22444 1.45522C9.5917 1.79702 9.90054 2.18887 10.1533 2.61367C11.0059 4.05166 11.1895 5.88516 10.8151 7.74307C10.4455 9.579 9.52731 11.4442 8.16916 12.9701V12.9738ZM5.49935 2.90054C7.01133 2.90054 8.23593 4.15542 8.23593 5.70205C8.23593 7.2499 7.01013 8.50356 5.49935 8.50356C3.98737 8.50356 2.76276 7.2499 2.76276 5.70205C2.76157 4.1542 3.98737 2.90054 5.49935 2.90054Z" fill="#82CF45"/>
</svg>
