<svg width="35" height="40" viewBox="0 0 35 40" fill="none" xmlns="http://www.w3.org/2000/svg">
<path d="M13.237 0C16.8123 0 20.0502 1.45508 22.3958 3.80534C24.7382 6.15559 26.1884 9.40429 26.1884 12.9948C26.1884 14.2318 26.0165 15.4264 25.6953 16.5592L24.4949 15.7357C24.7058 14.8568 24.8193 13.9388 24.8193 12.9948C24.8193 9.78515 23.5216 6.88151 21.4258 4.77864C19.3299 2.67252 16.436 1.3737 13.237 1.3737C10.0381 1.3737 7.14418 2.67578 5.04833 4.77864C2.94925 6.87825 1.65476 9.78515 1.65476 12.9948C1.65476 16.2044 2.95249 19.1081 5.04833 21.2109C6.60237 22.7702 8.5944 23.8867 10.8233 24.362L10.9336 25.7812C8.28294 25.3027 5.91133 24.0137 4.08477 22.181C1.73586 19.8307 0.285645 16.582 0.285645 12.9948C0.285645 9.40755 1.73586 6.15885 4.07828 3.80534C6.42069 1.45508 9.65854 0 13.237 0ZM26.8373 39.8763C26.5486 40.0097 26.2274 40.0325 25.9419 39.9577C25.6272 39.873 25.3482 39.6744 25.1762 39.3782L21.9611 33.8183L18.9049 37.2591C18.4799 37.7376 17.9965 38.0989 17.5293 38.2877C17.1692 38.4342 16.8155 38.4798 16.4846 38.4082C16.118 38.3301 15.8066 38.1185 15.5762 37.7571C15.3945 37.4674 15.2745 37.0833 15.2356 36.5885L13.5323 14.3164C13.529 14.3001 13.529 14.2806 13.529 14.2676C13.5258 14.1276 13.5517 13.9909 13.6101 13.8672C13.6718 13.7239 13.7756 13.5937 13.9054 13.4993C13.9605 13.457 14.0222 13.4277 14.0871 13.4114C14.2136 13.3691 14.3466 13.3529 14.4731 13.3691C14.5964 13.3822 14.7165 13.418 14.8268 13.4831C14.8625 13.4993 14.9014 13.5221 14.9338 13.5482L33.2708 26.1458C33.6764 26.4258 33.9489 26.722 34.1079 27.0247C34.309 27.4056 34.3317 27.7799 34.2149 28.138C34.1111 28.4603 33.8905 28.7467 33.5888 28.9844C33.1962 29.2936 32.6414 29.5345 32.012 29.6647C32.0055 29.6679 31.9958 29.6679 31.9893 29.6679L27.5121 30.5989L30.7046 36.1751C30.8733 36.4713 30.9057 36.8131 30.8214 37.1256C30.7403 37.4316 30.5456 37.7116 30.2633 37.8971C30.2536 37.9069 30.2406 37.9134 30.2276 37.9199L26.9152 39.8405C26.886 39.8535 26.8633 39.8665 26.8373 39.8763ZM26.2371 38.8281C26.2696 38.8379 26.302 38.8379 26.3312 38.8248C26.3409 38.8183 26.3539 38.8118 26.3669 38.8086L29.6372 36.914C29.6664 36.8913 29.6858 36.8587 29.6988 36.8261C29.7053 36.7968 29.7053 36.7708 29.6956 36.7545L25.9516 30.3255H25.9549C25.9257 30.2734 25.9029 30.2148 25.89 30.153C25.8251 29.8372 26.0295 29.5312 26.3409 29.4661L31.6032 28.5286C31.6097 28.5254 31.6162 28.5254 31.626 28.5254C32.0802 28.431 32.463 28.2682 32.7225 28.0664C32.8491 27.9655 32.9334 27.8678 32.9626 27.7734C32.9821 27.7148 32.9724 27.6432 32.9302 27.5618C32.8556 27.4219 32.7063 27.2721 32.4662 27.1028L14.8884 14.9805L16.5495 36.2695C16.5722 36.5657 16.6306 36.7708 16.7117 36.901C16.7604 36.9759 16.8188 37.0215 16.8772 37.0345C16.9745 37.0573 17.1011 37.0312 17.2503 36.9726C17.552 36.8522 17.8797 36.5983 18.1911 36.25L21.4712 32.2851C21.5134 32.2396 21.5588 32.2005 21.6139 32.1679C21.8897 32.0084 22.2466 32.0996 22.4055 32.3795L26.1787 38.789C26.1917 38.8086 26.2112 38.8216 26.2371 38.8281ZM26.3669 38.8086C26.4415 38.7728 26.5291 38.75 26.6199 38.75L26.3669 38.8086ZM13.237 8.89973C14.3628 8.89973 15.3848 9.35872 16.1213 10.1009C16.1959 10.1758 16.2705 10.2572 16.3386 10.3385C16.2997 10.3255 16.2608 10.3125 16.2218 10.2995C16.011 10.2311 15.7838 10.179 15.5438 10.1432C15.4691 10.1302 15.3913 10.1172 15.3134 10.1107C14.9728 10.0716 14.6191 10.0716 14.2655 10.1107C14.2168 10.1172 14.1682 10.1237 14.1163 10.1302C13.8372 10.0423 13.5388 9.99674 13.2306 9.99674C12.4032 9.99674 11.6538 10.332 11.1152 10.8724L11.112 10.8756C10.5734 11.416 10.2393 12.168 10.2393 12.998C10.2393 13.4212 10.275 13.4342 10.1874 13.8737C10.1419 14.095 10.116 14.3424 10.1095 14.6159C10.0965 14.7982 10.0965 14.9837 10.1095 15.1725L10.1484 15.6868C9.52552 14.9674 9.14918 14.0299 9.14918 13.0013C9.14918 11.875 9.60663 10.8496 10.3463 10.1074L10.3496 10.1042C11.0925 9.35546 12.1113 8.89973 13.237 8.89973ZM13.237 4.45312C15.5859 4.45312 17.7142 5.41015 19.2553 6.95312C20.7964 8.49934 21.7469 10.6348 21.7469 12.9915C21.7469 13.2715 21.734 13.5449 21.708 13.8183L20.4589 12.959C20.4492 10.97 19.6446 9.16992 18.3436 7.86783C17.0362 6.55598 15.2323 5.74544 13.237 5.74544C11.2418 5.74544 9.43792 6.55598 8.13046 7.86783C6.82299 9.17968 6.01515 10.9896 6.01515 12.9915C6.01515 14.9935 6.82299 16.8034 8.13046 18.1152C8.7923 18.7793 9.58392 19.3164 10.4631 19.6842L10.5734 21.1068C9.29517 20.6836 8.14992 19.9642 7.2188 19.0332C5.67774 17.487 4.72714 15.3516 4.72714 12.9948C4.72714 10.638 5.68098 8.5026 7.2188 6.95638C8.75661 5.41015 10.8849 4.45312 13.237 4.45312Z" fill="#82CF45"/>
<path d="M26.5484 38.9833C26.2083 39.1526 25.7805 39.0424 25.5969 38.7344L21.9414 32.5804L18.315 36.56C17.2217 37.7594 15.7779 38.0572 15.6339 36.2398L13.9125 14.3223C13.9042 14.208 13.9543 14.0918 14.0481 14.0244C14.1566 13.9775 14.2839 13.9938 14.3799 14.0591L32.9331 26.4753C34.4708 27.5054 33.486 28.5783 31.8773 28.9047L26.54 29.9858L30.1643 36.1582C30.3437 36.4662 30.229 36.8843 29.9097 37.0863L26.5484 38.9833Z" fill="#82CF45"/>
</svg>
