<svg width="18" height="19" viewBox="0 0 18 19" fill="none" xmlns="http://www.w3.org/2000/svg">
<path fill-rule="evenodd" clip-rule="evenodd" d="M9 0.469971C10.78 0.469971 12.5201 0.997811 14.0001 1.98674C15.4802 2.97568 16.6337 4.38128 17.3149 6.02582C17.9961 7.67035 18.1743 9.47995 17.8271 11.2258C17.4798 12.9716 16.6226 14.5753 15.364 15.8339C14.1053 17.0926 12.5016 17.9498 10.7558 18.297C9.00998 18.6443 7.20038 18.4661 5.55585 17.7849C3.91131 17.1037 2.50571 15.9501 1.51677 14.4701C0.527841 12.9901 0 11.25 0 9.46997C0 7.08302 0.948211 4.79384 2.63604 3.10601C4.32387 1.41818 6.61305 0.469971 9 0.469971ZM10.9248 5.86059C11.1797 5.60132 11.3394 5.39477 11.6572 5.71411L12.6826 6.75854C13.0181 7.0896 13.0005 7.28296 12.6826 7.59204L10.7417 9.5271L12.6094 11.3948C12.8687 11.6497 13.0752 11.8093 12.7559 12.1272L11.7114 13.1526C11.3804 13.488 11.187 13.4705 10.8794 13.1526L9 11.2688L7.12353 13.1453C6.81592 13.4602 6.62256 13.4778 6.2915 13.1453L5.24707 12.1199C4.9248 11.8049 5.13135 11.6453 5.39355 11.3874L7.2583 9.5271L5.32471 7.59497C5.00976 7.28589 4.99219 7.09253 5.32471 6.76147L6.3501 5.71704C6.66504 5.39477 6.82471 5.60132 7.08252 5.86352L9 7.7854L10.9248 5.86059Z" fill="#DE2D2D"/>
</svg>
