<svg width="15" height="16" viewBox="0 0 15 16" fill="none" xmlns="http://www.w3.org/2000/svg">
<path d="M9.96216 1.07735C9.96216 0.758768 10.2771 0.5 10.6665 0.5C11.0559 0.5 11.3708 0.758768 11.3708 1.07735V3.60644C11.3708 3.92501 11.0559 4.18378 10.6665 4.18378C10.2771 4.18378 9.96216 3.92501 9.96216 3.60644V1.07735ZM8.07007 13.1711C8.02856 13.1711 7.99561 12.9965 7.99561 12.7805C7.99561 12.5644 8.02856 12.3899 8.07007 12.3899H9.99756C10.0391 12.3899 10.072 12.5644 10.072 12.7805C10.072 12.9965 10.0391 13.1711 9.99756 13.1711H8.07007ZM1.93481 8.68903C1.89331 8.68903 1.86035 8.51448 1.86035 8.29844C1.86035 8.08239 1.89331 7.90784 1.93481 7.90784H3.8623C3.90381 7.90784 3.93677 8.08239 3.93677 8.29844C3.93677 8.51448 3.90381 8.68903 3.8623 8.68903H1.93481ZM5.00244 8.68903C4.96094 8.68903 4.92798 8.51448 4.92798 8.29844C4.92798 8.08239 4.96094 7.90784 5.00244 7.90784H6.92993C6.97144 7.90784 7.00439 8.08239 7.00439 8.29844C7.00439 8.51448 6.97144 8.68903 6.92993 8.68903H5.00244ZM8.07007 8.68903C8.02856 8.68903 7.99561 8.51448 7.99561 8.29844C7.99561 8.08239 8.02856 7.90784 8.07007 7.90784H9.99756C10.0391 7.90784 10.072 8.08239 10.072 8.29844C10.072 8.51448 10.0391 8.68903 9.99756 8.68903H8.07007ZM11.1389 8.68903C11.0974 8.68903 11.0645 8.51448 11.0645 8.29844C11.0645 8.08239 11.0974 7.90784 11.1389 7.90784H13.0664C13.1079 7.90784 13.1409 8.08239 13.1409 8.29844C13.1409 8.51448 13.1079 8.68903 13.0664 8.68903H11.1389ZM1.93481 10.9301C1.89331 10.9301 1.86035 10.7555 1.86035 10.5395C1.86035 10.3234 1.89331 10.1489 1.93481 10.1489H3.8623C3.90381 10.1489 3.93677 10.3234 3.93677 10.5395C3.93677 10.7555 3.90381 10.9301 3.8623 10.9301H1.93481ZM5.00244 10.9301C4.96094 10.9301 4.92798 10.7555 4.92798 10.5395C4.92798 10.3234 4.96094 10.1489 5.00244 10.1489H6.92993C6.97144 10.1489 7.00439 10.3234 7.00439 10.5395C7.00439 10.7555 6.97144 10.9301 6.92993 10.9301H5.00244ZM8.07007 10.9301C8.02856 10.9301 7.99561 10.7555 7.99561 10.5395C7.99561 10.3234 8.02856 10.1489 8.07007 10.1489H9.99756C10.0391 10.1489 10.072 10.3234 10.072 10.5395C10.072 10.7555 10.0391 10.9301 9.99756 10.9301H8.07007ZM11.1389 10.9301C11.0974 10.9301 11.0645 10.7555 11.0645 10.5395C11.0645 10.3234 11.0974 10.1489 11.1389 10.1489H13.0664C13.1079 10.1489 13.1409 10.3234 13.1409 10.5395C13.1409 10.7555 13.1079 10.9301 13.0664 10.9301H11.1389ZM1.93481 13.1711C1.89331 13.1711 1.86035 12.9965 1.86035 12.7805C1.86035 12.5644 1.89331 12.3899 1.93481 12.3899H3.8623C3.90381 12.3899 3.93677 12.5644 3.93677 12.7805C3.93677 12.9965 3.90381 13.1711 3.8623 13.1711H1.93481ZM5.00244 13.1711C4.96094 13.1711 4.92798 12.9965 4.92798 12.7805C4.92798 12.5644 4.96094 12.3899 5.00244 12.3899H6.92993C6.97144 12.3899 7.00439 12.5644 7.00439 12.7805C7.00439 12.9965 6.97144 13.1711 6.92993 13.1711H5.00244ZM3.6145 1.07735C3.6145 0.758768 3.92944 0.5 4.31885 0.5C4.70825 0.5 5.02319 0.758768 5.02319 1.07735V3.60644C5.02319 3.92501 4.70825 4.18378 4.31885 4.18378C3.92944 4.18378 3.6145 3.92501 3.6145 3.60644V1.07735ZM0.78125 6.03178H14.2175V3.12064C14.2175 3.02299 14.1772 2.93388 14.1125 2.86797C14.0479 2.80328 13.9587 2.763 13.8599 2.763H12.5732C12.3572 2.763 12.1826 2.58845 12.1826 2.37241C12.1826 2.15636 12.3572 1.98181 12.5732 1.98181H13.8611C14.1748 1.98181 14.4592 2.10998 14.6655 2.31626C14.8718 2.52254 15 2.80694 15 3.12064V6.42359V14.3612C15 14.6749 14.8718 14.9593 14.6655 15.1656C14.4592 15.3718 14.1748 15.5 13.8611 15.5H1.13892C0.825195 15.5 0.540771 15.3718 0.334473 15.1656C0.128174 14.9581 0 14.6737 0 14.36V6.42237V3.12064C0 2.80694 0.128174 2.52254 0.334473 2.31626C0.540771 2.10998 0.825195 1.98181 1.13892 1.98181H2.51465C2.73071 1.98181 2.90527 2.15636 2.90527 2.37241C2.90527 2.58845 2.73071 2.763 2.51465 2.763H1.13892C1.04126 2.763 0.952148 2.80328 0.88623 2.86797C0.821533 2.93266 0.78125 3.02177 0.78125 3.12064V6.03178ZM14.2188 6.81418H0.78125V14.36C0.78125 14.4576 0.821533 14.5467 0.88623 14.6126C0.950928 14.6773 1.04004 14.7176 1.13892 14.7176H13.8611C13.9587 14.7176 14.0479 14.6773 14.1138 14.6126C14.1785 14.5479 14.2188 14.4588 14.2188 14.36V6.81418ZM6.15601 2.763C5.93994 2.763 5.76538 2.58845 5.76538 2.37241C5.76538 2.15636 5.93994 1.98181 6.15601 1.98181H8.7793C8.99536 1.98181 9.16992 2.15636 9.16992 2.37241C9.16992 2.58845 8.99536 2.763 8.7793 2.763H6.15601Z" fill="#5D5D5D"/>
</svg>
