<svg width="17" height="18" viewBox="0 0 17 18" fill="none" xmlns="http://www.w3.org/2000/svg">
<path fill-rule="evenodd" clip-rule="evenodd" d="M5.27045 5.68469C5.10553 5.69038 4.98183 5.7245 4.89653 5.7828C4.84819 5.8155 4.81264 5.85673 4.7899 5.90649C4.7643 5.96194 4.75293 6.02876 4.75435 6.10553C4.76146 6.33159 4.87947 6.6259 5.10695 6.9657L5.10979 6.96996L5.85195 8.15002C6.1491 8.62346 6.46046 9.10544 6.8486 9.45946C7.2211 9.80068 7.67322 10.031 8.27036 10.0324C8.91725 10.0338 9.3907 9.79499 9.776 9.43529C10.1755 9.06137 10.4911 8.54811 10.8011 8.03628L11.6371 6.66002C11.7935 6.30458 11.8489 6.06715 11.8134 5.92781C11.792 5.84535 11.7011 5.80412 11.5447 5.79559C11.512 5.79417 11.4778 5.79417 11.4423 5.79417C11.4053 5.79559 11.3655 5.79701 11.3257 5.80128C11.303 5.8027 11.2816 5.80128 11.2617 5.79701C11.1878 5.80128 11.111 5.79559 11.0328 5.78422L11.3186 4.51743C9.19592 4.85155 7.60782 3.27482 5.36286 4.2018L5.52494 5.69465C5.43537 5.69891 5.35007 5.69607 5.27045 5.68469ZM10.3191 10.7362C10.1883 10.5599 10.0589 10.3694 9.94092 10.1959C9.88689 10.1163 9.83429 10.041 9.78595 9.97129C9.38075 10.2684 8.89451 10.4533 8.27178 10.4518C7.60213 10.4504 7.08603 10.2116 6.65951 9.85044C6.65666 9.85471 6.65382 9.85897 6.65098 9.86324C6.58131 9.95992 6.50311 10.0737 6.41923 10.1959C6.27137 10.4135 6.10502 10.658 5.9401 10.867L5.71262 10.6139C5.85764 10.4234 6.00834 10.2045 6.14199 10.0068C6.22871 9.87888 6.30975 9.75945 6.378 9.66561C6.38937 9.64997 6.40359 9.63576 6.41923 9.6258C6.05953 9.25757 5.77091 8.81114 5.49651 8.37181L4.75435 7.19318C4.4828 6.7894 4.34204 6.41832 4.33351 6.11549C4.32925 5.97331 4.35342 5.84251 4.40602 5.73019C4.46147 5.61076 4.54678 5.51124 4.66052 5.43447C4.71454 5.39892 4.77426 5.36764 4.83966 5.34347C4.79132 4.70368 4.77426 3.89755 4.80411 3.22363C4.81975 3.06298 4.85103 2.90374 4.89511 2.74308C5.0842 2.06632 5.56049 1.52037 6.14767 1.14645C6.35525 1.01423 6.58273 0.90475 6.82159 0.818023C7.24811 0.663051 7.04054 0.0104653 7.51398 0.000513014C8.62153 -0.0250786 10.4371 0.911859 11.1451 1.67819C11.5575 2.1232 11.8148 2.71465 11.8717 3.49661L11.8247 5.42167C12.0309 5.48423 12.1617 5.61503 12.2157 5.82545C12.2754 6.05862 12.21 6.38846 12.0124 6.83916C12.0082 6.84769 12.0053 6.8548 11.9996 6.86333L11.1551 8.25523C10.8295 8.79123 10.4982 9.33008 10.0575 9.74239L10.039 9.75945C10.0916 9.8348 10.1499 9.92011 10.2111 10.0097C10.3063 10.1504 10.4101 10.3026 10.5153 10.4462L10.3191 10.7362ZM6.42492 11.4073C7.15143 11.7997 8.53338 12.0798 9.81154 11.4712L8.36561 13.5698L6.42492 11.4073ZM11.0058 10.8002C12.0821 11.3291 14.0597 11.5054 14.8659 11.9546C15.1616 12.1196 15.4289 12.33 15.645 12.6143C16.181 13.3224 16.2279 15.7607 16.4213 16.6294C16.3744 17.1355 16.0872 17.427 15.5227 17.4696H9.40634L10.3333 16.8824C10.6617 16.6749 10.6703 16.5057 10.4641 16.1929L8.9855 13.938C9.00114 13.9181 9.01678 13.8982 9.03242 13.8769L11.0058 10.8002ZM8.26609 17.4682H0.89855C0.334113 17.4256 0.046918 17.1341 0 16.628C0.194781 15.7593 0.240277 13.3209 0.776279 12.6129C0.990964 12.3286 1.25825 12.1181 1.5554 11.9532C2.28334 11.5466 3.96528 11.3646 5.07851 10.9438L7.69881 13.8769C7.71871 13.9081 7.74004 13.9366 7.75995 13.965L6.8159 14.5664C6.65666 14.6801 6.60974 14.8465 6.705 15.0754L8.26609 17.4682ZM8.01871 14.2351C8.24476 14.4015 8.47225 14.3858 8.6983 14.2223C8.72958 14.2138 8.76086 14.2039 8.79356 14.1925C8.79783 14.2181 8.80067 14.2451 8.80067 14.2735C8.80067 14.5209 8.6002 14.72 8.35424 14.72C8.10828 14.72 7.90781 14.5195 7.90781 14.2735C7.90781 14.2465 7.91065 14.2195 7.91492 14.1925C7.94762 14.2095 7.98316 14.2238 8.01871 14.2351Z" fill="#82CF45"/>
</svg>
