<svg width="29" height="20" viewBox="0 0 29 20" fill="none" xmlns="http://www.w3.org/2000/svg">
<path fill-rule="evenodd" clip-rule="evenodd" d="M2.86252 0.5H26.1377C27.4372 0.5 28.5 1.35548 28.5 2.40112C28.5 3.44676 27.4372 4.30242 26.1377 4.30242H2.86252C1.56322 4.30242 0.5 3.44694 0.5 2.4013C0.5 1.35548 1.56322 0.5 2.86252 0.5ZM2.86252 15.6978H26.1377C27.4372 15.6978 28.5 16.5532 28.5 17.5989C28.5 18.6445 27.4372 19.5 26.1377 19.5H2.86252C1.56322 19.5 0.5 18.6445 0.5 17.5989C0.5 16.5532 1.56322 15.6978 2.86252 15.6978ZM2.86252 8.09897H26.1377C27.4372 8.09897 28.5 8.95445 28.5 10.0001C28.5 11.0457 27.4372 11.9014 26.1377 11.9014H2.86252C1.56322 11.9014 0.5 11.0457 0.5 10.0001C0.5 8.95445 1.56322 8.09897 2.86252 8.09897Z" fill="#82CF45"/>
</svg>
