<svg width="12" height="11" viewBox="0 0 12 11" fill="none" xmlns="http://www.w3.org/2000/svg">
<path d="M3.58977 2.86515C3.52377 2.92982 3.39777 2.93382 3.02444 2.94515L2.98644 2.94649C2.68777 2.95715 2.39977 2.97849 2.34111 2.99715C2.11177 3.06649 1.86111 3.22115 1.67444 3.41049C1.45168 3.62028 1.30212 3.89602 1.24777 4.19715C1.20244 4.43448 0.967773 8.69782 0.967773 9.15915C0.967773 9.61782 1.10377 9.95915 1.40777 10.2658C1.62911 10.4872 1.81311 10.5992 2.08777 10.6738C2.26311 10.7238 2.35644 10.7298 2.97311 10.7298H3.65311V10.7272H4.51444V10.7298H8.09711V10.7272H8.95644L8.95577 10.7298H9.63577C10.2418 10.7298 10.3398 10.7232 10.5091 10.6765C10.7811 10.6018 10.9784 10.4818 11.1944 10.2658C11.4984 9.95915 11.6344 9.62049 11.6344 9.15915C11.6344 8.71915 11.3971 4.43715 11.3544 4.19715C11.3006 3.89583 11.151 3.61992 10.9278 3.41049C10.7415 3.22173 10.513 3.08005 10.2611 2.99715C10.2024 2.97849 9.91444 2.95715 9.61577 2.94649L9.57777 2.94515C9.20444 2.93382 9.07777 2.92982 9.01244 2.86515C8.97911 2.83182 8.96111 2.78248 8.93377 2.70848L8.93044 2.69848C8.92144 2.67442 8.91028 2.65121 8.89711 2.62915C8.85581 2.44615 8.79409 2.26837 8.71311 2.09915C8.47624 1.61716 8.0912 1.22371 7.61444 0.976485C7.27844 0.808485 6.87377 0.757152 6.13244 0.736485C5.84977 0.728485 5.68177 0.739151 5.56177 0.765818C5.18044 0.851151 4.88177 0.984485 4.60977 1.18982C4.39462 1.35947 4.20274 1.55672 4.03911 1.77648C4.00577 1.82515 3.97244 1.88048 3.94111 1.93915C3.81044 2.18049 3.69977 2.48582 3.65777 2.69915C3.65311 2.72315 3.64911 2.74582 3.64644 2.76715C3.6346 2.80341 3.61529 2.8368 3.58977 2.86515ZM5.45844 2.93515C5.05577 2.93982 4.89777 2.93515 4.71844 2.93049C4.67177 2.92915 4.68444 2.93515 4.71844 2.79515C4.82777 2.35315 5.18111 1.69515 6.42311 1.69515C7.08711 1.69515 7.67111 2.09382 7.86844 2.74182C7.88377 2.78915 7.89711 2.87715 7.86844 2.89848C7.86844 2.94915 7.44911 2.93515 6.89444 2.93182L6.52377 2.93049H5.98444C5.78977 2.93049 5.61377 2.93315 5.45844 2.93515ZM9.42911 5.62182H4.57911C4.41244 5.62182 4.30111 5.73315 4.30111 5.89982C4.30111 5.89982 4.30577 6.06382 4.30111 6.45515C4.30111 6.72982 4.24444 6.89915 3.85711 6.89915C3.49644 6.89915 3.41311 6.73248 3.41311 6.45515V5.89982C3.41311 5.73315 3.30177 5.62182 3.19111 5.62182H3.09977C3.04124 5.62263 2.98314 5.61169 2.92891 5.58967C2.87468 5.56764 2.82541 5.53496 2.78402 5.49357C2.74263 5.45218 2.70995 5.40291 2.68793 5.34868C2.6659 5.29445 2.65497 5.23635 2.65577 5.17782C2.65577 4.90049 2.82244 4.73382 3.09977 4.73382H9.42911C9.65111 4.73382 9.87311 4.90049 9.87311 5.17782C9.87391 5.23635 9.86298 5.29445 9.84095 5.34868C9.81893 5.40291 9.78625 5.45218 9.74486 5.49357C9.70347 5.53496 9.6542 5.56764 9.59997 5.58967C9.54574 5.61169 9.48764 5.62263 9.42911 5.62182Z" fill="#5D5D5D"/>
</svg>
