<svg width="16" height="16" viewBox="0 0 16 16" fill="none" xmlns="http://www.w3.org/2000/svg">
<path d="M10.3188 9.11893C11.7531 9.30974 12.9934 9.67436 13.8755 10.1508C14.8774 10.6916 15.4667 11.4026 15.4667 12.2169C15.4667 13.2245 14.5475 14.0825 13.0626 14.6538C11.7556 15.1569 9.96549 15.4668 7.99999 15.4668C6.03573 15.4668 4.24442 15.1557 2.93738 14.6538C1.45245 14.0837 0.533325 13.2257 0.533325 12.2181C0.533325 11.3917 1.1399 10.6734 2.16774 10.1289C3.07204 9.65005 4.34202 9.28665 5.80842 9.10313L5.96655 10.3319C4.65704 10.4947 3.54025 10.8107 2.76443 11.2215C2.15539 11.5436 1.79712 11.8912 1.79712 12.2181C1.79712 12.6618 2.40864 13.1187 3.39695 13.4979C4.56315 13.9464 6.19015 14.2235 7.99999 14.2235C9.80983 14.2235 11.4368 13.9464 12.603 13.4979C13.5913 13.1175 14.2029 12.6605 14.2029 12.2181C14.2029 11.8985 13.857 11.557 13.2677 11.2398C12.5153 10.8338 11.4294 10.5178 10.1508 10.3477L10.3188 9.11893ZM8.6041 5.92492V12.1075H7.3403V5.92492C6.11109 5.64295 5.19567 4.55884 5.19567 3.26446C5.19567 1.75618 6.43847 0.533508 7.97281 0.533508C9.50593 0.533508 10.7487 1.75618 10.7487 3.26446C10.7487 4.56005 9.8333 5.64417 8.6041 5.92492Z" fill="white"/>
</svg>
