<svg width="13" height="12" viewBox="0 0 13 12" fill="none" xmlns="http://www.w3.org/2000/svg">
<path d="M3.77437 7.87473C4.06603 7.58223 4.5002 7.54223 4.74353 7.78557C4.98687 8.0289 4.9477 8.46307 4.6552 8.75557L1.65937 11.7514C1.3677 12.0431 0.9327 12.0831 0.689367 11.8397C0.446034 11.5964 0.486033 11.1622 0.7777 10.8706L3.77437 7.8739V7.87473ZM9.8052 0.302235C9.69093 0.1881 9.5515 0.102338 9.3981 0.0518302C9.2447 0.00132273 9.08159 -0.0125237 8.92187 0.0114016L8.54103 0.0680681C8.28667 0.106271 8.05529 0.236797 7.89103 0.434735L7.88437 0.443068L6.32437 2.5064H6.32103C5.71217 2.41328 5.0907 2.44568 4.49482 2.6016C3.89894 2.75752 3.34125 3.03367 2.85603 3.41307C2.35103 3.80807 2.3877 4.50974 2.78103 4.9039L7.62687 9.7489C8.0202 10.1431 8.72187 10.1797 9.11687 9.6739C9.49637 9.18872 9.77264 8.63106 9.92871 8.03519C10.0848 7.43931 10.1173 6.81782 10.0244 6.2089V6.2064L12.0844 4.64807L12.096 4.63973C12.2935 4.47473 12.4244 4.2439 12.4627 3.98973L12.5185 3.60807C12.5426 3.44841 12.5288 3.28534 12.4785 3.13194C12.4281 2.97854 12.3425 2.83908 12.2285 2.72473L9.8052 0.302235ZM9.0552 1.09557L11.4352 3.47557L11.3852 3.8089L9.32687 5.36473L9.3152 5.3739C9.17253 5.49453 9.06349 5.65001 8.99865 5.82523C8.93382 6.00045 8.91541 6.18946 8.9452 6.3739C9.08167 7.26662 8.86004 8.17711 8.32853 8.90723L3.62353 4.20057C4.35344 3.66928 5.26358 3.44766 6.15603 3.5839C6.34047 3.61369 6.52948 3.59528 6.7047 3.53045C6.87993 3.46561 7.0354 3.35657 7.15603 3.2139L7.16353 3.2064L8.72187 1.1439L9.0552 1.0939V1.09557Z" fill="#4F5E71"/>
</svg>
