<svg width="14" height="14" viewBox="0 0 14 14" fill="none" xmlns="http://www.w3.org/2000/svg">
<path d="M9.02531 8.04883C10.3482 8.22772 11.4921 8.56954 12.3057 9.0162C13.2298 9.52324 13.7733 10.1898 13.7733 10.9532C13.7733 11.8978 12.9255 12.7022 11.556 13.2377C10.3505 13.7094 8.69944 14 6.88663 14C5.07496 14 3.4228 13.7083 2.2173 13.2377C0.847725 12.7033 0 11.8989 0 10.9543C0 10.1795 0.559453 9.50614 1.50745 8.99569C2.3415 8.54676 3.51282 8.20607 4.8653 8.03402L5.01115 9.18597C3.80337 9.33865 2.77334 9.6349 2.05778 10.02C1.49605 10.322 1.16562 10.6478 1.16562 10.9543C1.16562 11.3702 1.72963 11.7986 2.64117 12.1541C3.71677 12.5746 5.21738 12.8344 6.88663 12.8344C8.55587 12.8344 10.0565 12.5746 11.1321 12.1541C12.0436 11.7975 12.6076 11.3691 12.6076 10.9543C12.6076 10.6547 12.2886 10.3345 11.7451 10.0371C11.0512 9.65655 10.0496 9.3603 8.87035 9.20078L9.02531 8.04883ZM7.4438 5.05445V10.8507H6.27818V5.05445C5.14446 4.7901 4.30015 3.77374 4.30015 2.56027C4.30015 1.14625 5.44641 0 6.86156 0C8.27558 0 9.42183 1.14625 9.42183 2.56027C9.42183 3.77488 8.57752 4.79124 7.4438 5.05445Z" fill="black"/>
</svg>
