<svg width="15" height="15" viewBox="0 0 15 15" fill="none" xmlns="http://www.w3.org/2000/svg">
<path d="M8.82819 5.45942C9.00036 5.48225 9.15476 5.56135 9.27179 5.67806C9.41161 5.81722 9.49801 6.0096 9.49801 6.22201C9.49801 6.43441 9.41161 6.62667 9.27179 6.76596C9.13197 6.90524 8.93896 6.9913 8.72574 6.9913C8.51252 6.9913 8.31951 6.90512 8.17969 6.76596C8.03999 6.6268 7.95347 6.43441 7.95347 6.22201C7.95347 6.01803 8.03313 5.8326 8.16327 5.6949C8.27527 5.27998 8.39475 4.89179 8.51999 4.52924H6.23358L0.628462 10.1127L4.90619 14.3742L10.5087 8.7932L10.3679 4.52912H9.12964C9.02511 4.82026 8.92438 5.12995 8.82819 5.45942ZM5.30875 10.4028C5.42872 10.2833 5.49342 10.1599 5.502 10.0333C5.51144 9.90601 5.47161 9.73743 5.3835 9.52856C5.29466 9.31897 5.21831 9.12011 5.15434 8.93224C5.09038 8.74437 5.05459 8.56432 5.04442 8.39122C5.03585 8.21788 5.06084 8.05333 5.12089 7.89744C5.17934 7.74131 5.28608 7.58677 5.44036 7.43308C5.69758 7.17685 5.99609 7.05185 6.33664 7.05893C6.67645 7.06662 7.00536 7.20029 7.32189 7.46103L7.67493 7.8314C7.9134 8.14964 8.01793 8.48204 7.98828 8.82824C7.95948 9.1737 7.80054 9.4906 7.51121 9.77857L6.73968 9.00988C6.89789 8.85229 6.98906 8.70092 7.01394 8.55492C7.03734 8.4088 6.99372 8.28001 6.88147 8.1682C6.78086 8.0681 6.67106 8.02232 6.55183 8.02916C6.43333 8.03697 6.31801 8.09593 6.20662 8.20702C6.09364 8.31956 6.03592 8.44066 6.03359 8.57042C6.03126 8.70018 6.07109 8.86535 6.15283 9.06652C6.23383 9.26818 6.30478 9.46325 6.36556 9.65259C6.42634 9.84216 6.46139 10.0231 6.4707 10.1952C6.48002 10.3693 6.45514 10.5354 6.39828 10.6962C6.33983 10.8568 6.23456 11.0131 6.08114 11.1659C5.82073 11.4253 5.527 11.5548 5.19736 11.5541C4.86772 11.5534 4.54653 11.4243 4.23478 11.1684L3.77561 11.6256L3.4124 11.2637L3.87389 10.8042C3.57697 10.4385 3.43666 10.072 3.45149 9.70312C3.46705 9.3352 3.63236 8.99352 3.94717 8.6798L4.7165 9.44604C4.54347 9.61841 4.44997 9.78772 4.43747 9.95386C4.42423 10.1207 4.4882 10.2745 4.62998 10.4157C4.7328 10.5182 4.84505 10.5695 4.96587 10.5673C5.08658 10.5652 5.20116 10.5099 5.30875 10.4028ZM8.71005 4.01043C9.58207 1.76468 10.7006 0.619892 11.7404 0.199355C12.7241 -0.198355 13.6424 0.0322385 14.2541 0.597064C14.8623 1.15884 15.1613 2.05204 14.9118 2.98418C14.6082 4.1181 13.4865 5.30915 11.099 5.97982C11.0432 5.99544 10.9865 5.99349 10.9349 5.97725L11.0311 8.88964C11.0335 8.96398 11.0041 9.03173 10.9553 9.08056L10.9559 9.08105L5.09038 14.924C4.98867 15.0253 4.82385 15.0253 4.72226 14.924L0.0762831 10.2963C-0.0254277 10.195 -0.0254277 10.0306 0.0762831 9.92932L5.94181 4.08648C5.99266 4.03582 6.0592 4.01056 6.12587 4.01056L8.71005 4.01043ZM10.9172 5.43586C10.9256 5.43257 10.9346 5.42964 10.9435 5.42708C13.0991 4.8216 14.0975 3.79901 14.3548 2.83818C14.5463 2.12296 14.3215 1.44204 13.8618 1.01724C13.4052 0.5956 12.7106 0.427263 11.9572 0.731954C11.0717 1.08999 10.1128 2.07609 9.32779 4.01031H10.6192C10.7629 4.01031 10.8794 4.1264 10.8794 4.26971C10.8794 4.27399 10.8793 4.27838 10.8791 4.28265L10.9172 5.43586Z" fill="#82CF45"/>
</svg>
