<svg width="15" height="16" viewBox="0 0 15 16" fill="none" xmlns="http://www.w3.org/2000/svg">
<path d="M6.04857 0.500244C7.71884 0.500244 9.23077 1.1604 10.3253 2.22779C11.4199 3.29517 12.0969 4.76967 12.0969 6.39845C12.0969 7.96206 11.473 9.3832 10.4549 10.4388C10.4734 10.4521 10.4913 10.4668 10.5082 10.4832L14.8626 14.7236C15.045 14.9004 15.046 15.1883 14.8644 15.3663C14.683 15.5442 14.3878 15.545 14.2054 15.3681L9.85103 11.1277C9.82337 11.1009 9.79996 11.0716 9.78056 11.0404C8.75245 11.8274 7.45672 12.2968 6.04844 12.2968C4.37817 12.2968 2.86599 11.6366 1.77142 10.5692C0.676973 9.50186 0 8.02724 0 6.39845C0 4.76967 0.676973 3.29517 1.77155 2.22779C2.86612 1.16052 4.37829 0.500244 6.04857 0.500244ZM9.64912 2.88734C8.72767 1.98877 7.45471 1.43299 6.04857 1.43299C4.64242 1.43299 3.36934 1.98877 2.44789 2.88734C1.52644 3.7859 0.9565 5.02724 0.9565 6.39845C0.9565 7.76967 1.52644 9.01113 2.44789 9.9097C3.36922 10.8083 4.6423 11.364 6.04857 11.364C7.45471 11.364 8.72767 10.8083 9.64912 9.9097C10.5706 9.01126 11.1405 7.7698 11.1405 6.39845C11.1405 5.02724 10.5706 3.7859 9.64912 2.88734Z" fill="#5D5D5D"/>
</svg>
