<svg width="34" height="42" viewBox="0 0 34 42" fill="none" xmlns="http://www.w3.org/2000/svg">
<path d="M6.49204 22.18C6.73535 22.4599 6.70831 22.8766 6.41769 23.1109C6.12707 23.3453 5.69452 23.3192 5.45121 23.0393C2.49094 19.7063 0.96349 15.9338 1.00066 12.1158C1.03783 8.3889 2.54839 4.64248 5.64721 1.22155C5.89052 0.951389 6.32307 0.92535 6.61369 1.1597C6.89418 1.39406 6.92459 1.81069 6.6779 2.09061C3.80211 5.25766 2.39632 8.71439 2.36928 12.1256C2.34225 15.6279 3.74804 19.0911 6.49204 22.18ZM18.6069 14.0687C18.9921 18.6582 19.8606 22.9417 21.1244 26.7076H12.6458C13.9198 22.8961 14.8051 18.5573 15.2073 13.8962L15.1904 13.88C14.7207 13.4275 14.4402 12.8156 14.4402 12.1288C14.4402 11.442 14.7308 10.8301 15.1904 10.3777C15.6601 9.92522 16.2954 9.65506 17.0084 9.65506C17.7215 9.65506 18.3568 9.93499 18.8265 10.3777C19.2962 10.8301 19.5767 11.442 19.5767 12.1288C19.5767 12.5096 19.4889 12.8644 19.33 13.1867C19.1442 13.5512 18.9009 13.8474 18.6069 14.0687ZM21.5705 27.9738C21.8949 28.8526 22.243 29.7022 22.6147 30.5159H11.1656C11.5306 29.7022 11.8753 28.8526 12.1997 27.9738H21.5705ZM23.2196 31.7886C24.274 33.8782 29.1875 39.6557 29.1875 40.1505C29.1875 40.4336 29.1131 40.7168 28.9611 41H23.7299C23.7806 35.3657 16.4002 32.6837 12.3146 36.4887C11.098 37.6214 10.4627 39.1838 10.1721 41H5.03556C4.87335 40.7233 4.8159 40.4239 4.83618 40.1082C4.86997 39.5906 9.54693 33.8392 10.5641 31.7918H23.2196V31.7886ZM10.0707 18.9739C10.3242 19.2441 10.2971 19.6607 10.0133 19.9048C9.7328 20.1489 9.30024 20.1229 9.0468 19.8495C6.76914 17.3692 5.5999 14.7425 5.64721 12.08C5.69452 9.48906 6.88404 6.89163 9.31038 4.40812C9.57397 4.14773 10.0031 4.1282 10.2769 4.38208C10.5472 4.63597 10.5675 5.04934 10.3039 5.31299C8.12087 7.55238 7.04287 9.84385 7.00569 12.0995C6.96852 14.4268 8.01611 16.7573 10.0606 18.9869L10.0707 18.9739ZM13.2371 15.924C13.4703 16.204 13.4331 16.6173 13.1324 16.8452C12.8418 17.0698 12.4126 17.034 12.176 16.7475C10.9493 15.2958 10.3107 13.714 10.3005 12.1093C10.2904 10.5469 10.8987 8.97804 12.1456 7.50681C12.3788 7.22689 12.8113 7.18132 13.102 7.40591C13.3926 7.6305 13.4399 8.04713 13.2067 8.32705C12.1659 9.55416 11.6624 10.8464 11.6624 12.0995C11.6624 13.3885 12.2064 14.6904 13.227 15.9078L13.2371 15.924ZM28.5488 23.0361C28.3055 23.316 27.8729 23.342 27.5823 23.1077C27.2917 22.8733 27.2647 22.4567 27.508 22.1768C30.252 19.0911 31.6679 15.6148 31.6307 12.1223C31.6037 8.71439 30.1979 5.25766 27.3221 2.09061C27.0788 1.82045 27.1058 1.40382 27.3863 1.1597C27.6668 0.92535 28.0993 0.951389 28.3528 1.22155C31.455 4.64248 32.9622 8.3889 32.9993 12.1158C33.0365 15.9338 31.5091 19.7063 28.5488 23.0361ZM24.96 19.8397C24.7065 20.1099 24.2773 20.1392 23.9935 19.8951C23.713 19.6509 23.6826 19.2376 23.936 18.9642C25.9873 16.7345 27.0281 14.4073 26.9909 12.0767C26.9538 9.8113 25.8758 7.51983 23.6927 5.29021C23.4291 5.02981 23.4494 4.61318 23.7198 4.3593C23.9901 4.10541 24.4226 4.12494 24.6862 4.38534C27.116 6.8721 28.3055 9.46302 28.3528 12.0605C28.4001 14.723 27.2376 17.3497 24.9532 19.83L24.96 19.8397ZM21.8307 16.7443C21.5975 17.0242 21.165 17.0698 20.8744 16.8419C20.5838 16.6173 20.5364 16.2007 20.7696 15.9208C21.8003 14.7035 22.3342 13.4015 22.3342 12.1125C22.3342 10.8496 21.8375 9.56718 20.7899 8.34007C20.5567 8.06015 20.5939 7.64352 20.8947 7.41893C21.1853 7.19434 21.6178 7.23014 21.851 7.51658C23.098 8.9878 23.7062 10.5567 23.6961 12.119C23.686 13.727 23.0507 15.2958 21.8206 16.7573L21.8307 16.7443Z" fill="#82CF45" stroke="#82CF45" stroke-width="0.5"/>
</svg>
