<svg width="18" height="94" viewBox="0 0 18 94" fill="none" xmlns="http://www.w3.org/2000/svg">
<g clip-path="url(#clip0_115_2042)">
<path d="M8.9998 0.900391C7.23314 0.900391 5.7998 2.33372 5.7998 4.10039C5.7998 5.86706 7.23314 7.30039 8.9998 7.30039C10.7665 7.30039 12.1998 5.86706 12.1998 4.10039C12.1998 2.33372 10.7665 0.900391 8.9998 0.900391Z" fill="#BAC7D5"/>
<rect x="8.5" y="8.30078" width="1" height="30" fill="#E8EDF1"/>
<path d="M8.92894 43.1717L9.00428 43.167C9.15037 43.167 9.29146 43.2203 9.40106 43.3169C9.51067 43.4135 9.58127 43.5467 9.59961 43.6917L9.60428 43.767L9.60361 49.3623L11.2163 47.7557C11.3165 47.6708 11.4417 47.621 11.5729 47.6138C11.704 47.6065 11.834 47.6423 11.9429 47.7157L12.0069 47.7663C12.2336 47.969 12.2703 48.3043 12.1043 48.549L12.0543 48.6137L9.47761 51.235C9.37299 51.3514 9.22717 51.4226 9.07102 51.4334C8.91487 51.4442 8.76063 51.3939 8.64094 51.293L5.94161 48.613C5.8888 48.5546 5.84805 48.4863 5.82167 48.4121C5.7953 48.3379 5.78383 48.2592 5.78792 48.1805C5.792 48.1019 5.81157 48.0248 5.84549 47.9537C5.87942 47.8827 5.92703 47.819 5.98561 47.7663C6.09365 47.6692 6.23316 47.6143 6.37845 47.6118C6.52374 47.6094 6.66502 47.6595 6.77628 47.753L8.40361 49.3317V43.767C8.40361 43.6208 8.45699 43.4796 8.55372 43.37C8.65045 43.2604 8.78388 43.1899 8.92894 43.1717Z" fill="#2E353B"/>
<rect x="8.5" y="56.3008" width="1" height="30" fill="#E8EDF1"/>
<path d="M8.9998 87.3008C7.23314 87.3008 5.7998 88.7341 5.7998 90.5008C5.7998 92.2674 7.23314 93.7008 8.9998 93.7008C10.7665 93.7008 12.1998 92.2674 12.1998 90.5008C12.1998 88.7341 10.7665 87.3008 8.9998 87.3008Z" fill="#BAC7D5"/>
</g>
<defs>
<clipPath id="clip0_115_2042">
<rect width="18" height="92.8" fill="white" transform="translate(0 0.900391)"/>
</clipPath>
</defs>
</svg>
