<svg width="44" height="30" viewBox="0 0 44 30" fill="none" xmlns="http://www.w3.org/2000/svg">
<path d="M25.1031 1.72287C25.697 1.72287 26.2344 1.96326 26.6232 2.35213C27.0121 2.74099 27.2525 3.27833 27.2525 3.87223C27.2525 4.46613 27.0121 5.00347 26.6232 5.39233C26.2344 5.78119 25.697 6.02158 25.1031 6.02158C24.5092 6.02158 23.9719 5.78119 23.583 5.39233C23.1942 5.00347 22.9538 4.46613 22.9538 3.87223C22.9538 3.27833 23.1942 2.74099 23.583 2.35213C23.9684 1.9668 24.5092 1.72287 25.1031 1.72287ZM34.5242 21.3923C33.6369 20.5368 32.785 19.7343 32.4915 19.5646C31.7987 19.1687 30.2008 18.0763 29.4973 18.0905C28.9812 18.1046 28.4968 18.3945 28.0444 18.9884L25.6758 22.5589L25.2304 23.0184L24.785 22.5589L22.4164 18.9884C21.9639 18.3945 21.4796 18.1011 20.9635 18.0905C20.26 18.0763 18.6621 19.1687 17.9693 19.5646L16.3219 20.5014L4.91759 22.9972C4.18229 23.5416 -0.6679 28.8408 0.237091 29.0281H20.3837H20.3979H24.64H43.5671V24.6446L40.0956 23.0078C38.9785 22.4811 37.8225 23.3543 37.2145 23.6477V17.1325H42.9449C43.5176 17.0653 43.6484 16.3689 43.3868 16.0649L43.0368 15.6583L39.8587 11.9252H41.9763C42.4783 11.8298 42.701 11.1369 42.2626 10.7056L38.6179 6.43519H39.5795C40.2511 6.43519 40.5799 5.85543 40.1946 5.30042L36.6382 1.15019C36.4332 0.913332 36.2282 0.591636 35.8853 0.581031C35.4893 0.570425 35.2419 0.969894 35.0156 1.2421L31.6679 5.21557C31.2366 5.79533 31.4027 6.41751 32.0744 6.3963H33.1455L29.4761 10.7092C29.0731 11.2111 29.3205 11.9252 29.9816 11.8298H31.8057L31.9047 11.9288L28.4968 15.927C28.1151 16.5138 28.2953 17.2173 29.1897 17.136H34.5242V21.3923ZM12.0267 1.80418C12.5959 1.60975 13.1933 1.66631 13.6953 1.91024C14.1973 2.15416 14.6074 2.59605 14.8018 3.1652C14.9962 3.73436 14.9432 4.33179 14.6957 4.83378C14.4518 5.33577 14.0099 5.74584 13.4408 5.94027C12.8716 6.13471 12.2742 6.08168 11.7722 5.83422C11.2702 5.5903 10.8601 5.14841 10.6657 4.57925C10.4713 4.0101 10.5243 3.41266 10.7718 2.91068C11.0192 2.40869 11.454 2.00215 12.0267 1.80418ZM17.6723 7.91641C17.5875 7.60532 17.7748 7.28362 18.0859 7.20231C18.397 7.11747 18.7187 7.30483 18.8 7.61592L18.9874 8.3088L19.0121 8.2982L19.0192 8.29466C19.2419 8.22043 19.5 8.26638 19.7262 8.40072C19.8888 8.49617 20.0338 8.63404 20.1363 8.80726C20.2423 8.98048 20.306 9.18551 20.306 9.41176C20.3024 9.73699 20.161 10.0976 19.8005 10.4582C19.7863 10.4723 19.7686 10.4864 19.7474 10.49L19.5883 10.5536L21.2569 16.7754C21.1509 16.7613 21.0413 16.7471 20.9352 16.7471C20.6772 16.7401 20.3873 16.8072 20.0868 16.9133L18.496 10.9849L18.0859 11.1475L17.9339 11.2041C17.0466 11.5187 16.3997 11.7485 15.272 11.4692C15.2649 11.4657 15.2578 11.4657 15.2472 11.4621C14.4589 11.1581 14.0488 10.7304 13.6529 10.3132L13.5963 10.2531L13.0908 13.463C13.5433 13.7458 13.9922 13.9579 14.4165 14.1559C15.7068 14.7569 16.7673 15.2553 16.9971 17.2809C17.0395 17.6451 17.0183 17.988 17.0006 18.3592V18.3662C16.9971 18.4192 16.9936 18.4758 16.99 18.6101L16.4986 18.8894C15.9401 18.9248 15.3108 19.045 14.6462 19.2217C14.6569 18.9531 14.671 18.6879 14.6851 18.4228L14.6957 18.239C14.7063 18.0269 14.7169 17.8324 14.7063 17.6486C14.6957 17.4754 14.6639 17.3128 14.5897 17.1537L14.5685 17.1113C14.4872 16.938 14.4129 16.7719 14.3033 16.7224C14.0806 16.6199 13.7342 16.4926 13.3347 16.3618C12.8787 16.2098 12.3696 16.0578 11.9207 15.9341C11.5919 17.0264 11.1429 17.7476 10.6657 19.0025C10.4995 19.4338 10.3334 19.858 10.1602 20.2646C9.99756 20.3353 9.84555 20.4025 9.69708 20.4696C8.96177 20.7984 8.45271 21.0529 7.67145 20.8868C7.59014 20.8691 7.5053 20.8549 7.42046 20.8373C7.73508 20.0207 8.06738 19.098 8.39262 18.1683C8.88046 16.7754 9.3471 15.9482 9.69001 14.8099C9.48497 14.5589 9.29054 14.2796 9.1562 13.9685C9.00773 13.6292 8.93702 13.258 9.01126 12.862L9.72889 8.97694L9.69001 8.97341C9.43901 8.9628 9.23397 8.9522 8.99712 9.05825C8.66836 9.20319 8.41383 9.49307 8.12395 9.8183C8.00729 9.9491 7.88709 10.087 7.74922 10.2248L7.73862 10.2319C7.6361 10.338 7.53005 10.4476 7.42753 10.5501L6.15842 11.8333C6.10186 11.8899 6.01701 11.8899 5.96045 11.8333L4.57822 10.3804C4.52519 10.3238 4.52519 10.2354 4.58175 10.1824L5.84733 8.90271C5.95692 8.79312 6.05237 8.69413 6.14074 8.60222L6.15488 8.58808C6.72404 7.9659 7.19067 7.46391 7.78457 7.12807C8.38908 6.7887 9.11025 6.61548 10.192 6.66497H10.1955C10.5809 6.66851 11.0369 6.71093 11.4116 6.74628C11.5848 6.76042 11.7439 6.7781 11.8747 6.78517C13.6953 6.90536 14.5508 7.86338 15.2119 8.60929C15.5053 8.93806 15.7563 9.2244 16.032 9.3552C16.1593 9.4153 16.3643 9.33045 16.5941 9.23501C16.732 9.17491 16.8804 9.11481 17.036 9.07239C17.1385 9.0335 17.1915 9.01229 17.234 8.99815C17.2905 8.97694 17.3259 8.9628 17.3506 8.9522L17.8915 8.73655L17.6723 7.91641ZM23.18 0.931008C23.1129 0.817884 23.1517 0.669409 23.2684 0.602241C23.3815 0.535074 23.53 0.57396 23.5972 0.690619L23.9047 1.22442C23.9719 1.33755 23.933 1.48602 23.8163 1.55319C23.6997 1.62036 23.5547 1.58147 23.4876 1.46481L23.18 0.931008ZM24.9087 0.365388C24.9087 0.231054 25.0148 0.125 25.1491 0.125C25.2834 0.125 25.3895 0.234589 25.3895 0.365388V0.984034C25.3895 1.11837 25.2834 1.22442 25.1491 1.22442C25.0148 1.22442 24.9087 1.11483 24.9087 0.984034V0.365388ZM26.6904 0.740111C26.7576 0.626987 26.9025 0.584566 27.0192 0.651733C27.1323 0.7189 27.1747 0.86384 27.1075 0.980499L26.8 1.5143C26.7328 1.63096 26.5879 1.66985 26.4712 1.60268C26.3546 1.53551 26.3157 1.39057 26.3828 1.27391L26.6904 0.740111ZM28.0444 1.95619C28.161 1.88903 28.306 1.92791 28.3731 2.04457C28.4403 2.15769 28.4014 2.30617 28.2847 2.37334L27.7509 2.68089C27.6378 2.74806 27.4893 2.70917 27.4222 2.59251C27.355 2.47939 27.3939 2.33092 27.5105 2.26375L28.0444 1.95619ZM28.61 3.68487C28.7443 3.68487 28.8504 3.79092 28.8504 3.92525C28.8504 4.05959 28.7408 4.16564 28.61 4.16564H27.9913C27.857 4.16564 27.7509 4.05959 27.7509 3.92525C27.7509 3.79092 27.857 3.68487 27.9913 3.68487H28.61ZM28.2352 5.46657C28.3484 5.53373 28.3908 5.67868 28.3236 5.79533C28.2565 5.90846 28.1115 5.95088 27.9949 5.88371L27.4611 5.57616C27.3479 5.50899 27.3055 5.36405 27.3727 5.24739C27.4398 5.13073 27.5848 5.09184 27.7014 5.15901L28.2352 5.46657ZM27.0227 6.82052C27.0899 6.93364 27.051 7.08212 26.9343 7.14929C26.8212 7.21645 26.6727 7.17757 26.6056 7.06091L26.298 6.5271C26.2308 6.41398 26.2697 6.2655 26.3864 6.19834C26.4995 6.13117 26.648 6.17006 26.7151 6.28672L27.0227 6.82052ZM25.294 7.38614C25.294 7.52047 25.1844 7.62653 25.0536 7.62653C24.9193 7.62653 24.8133 7.51694 24.8133 7.38614V6.76749C24.8133 6.63316 24.9193 6.5271 25.0536 6.5271C25.188 6.5271 25.294 6.63316 25.294 6.76749V7.38614ZM23.5123 7.01142C23.4452 7.12454 23.3002 7.16696 23.1836 7.09979C23.0704 7.03263 23.028 6.88769 23.0952 6.77103L23.4027 6.23722C23.4699 6.1241 23.6148 6.08168 23.7315 6.14885C23.8482 6.21601 23.8871 6.36095 23.8199 6.47761L23.5123 7.01142ZM22.1584 5.79533C22.0453 5.8625 21.8968 5.82361 21.8296 5.70696C21.7624 5.59383 21.8013 5.44536 21.918 5.37819L22.4518 5.07063C22.5649 5.00347 22.7134 5.04235 22.7806 5.15901C22.8477 5.27214 22.8088 5.42061 22.6922 5.48778L22.1584 5.79533ZM21.5928 4.06666C21.4584 4.06666 21.3524 3.95707 21.3524 3.82627C21.3524 3.69194 21.462 3.58588 21.5928 3.58588H22.2114C22.3457 3.58588 22.4518 3.69194 22.4518 3.82627C22.4518 3.96061 22.3457 4.06666 22.2114 4.06666H21.5928ZM21.9675 2.28496C21.8544 2.21779 21.8119 2.07285 21.8791 1.95619C21.9463 1.84307 22.0912 1.80065 22.2079 1.86781L22.7417 2.17537C22.8583 2.24254 22.8972 2.38748 22.8301 2.50414C22.7629 2.61726 22.6179 2.65968 22.5013 2.59251L21.9675 2.28496Z" fill="#82CF45"/>
</svg>
