<svg width="29" height="29" viewBox="0 0 29 29" fill="none" xmlns="http://www.w3.org/2000/svg">
<path fill-rule="evenodd" clip-rule="evenodd" d="M6.38185 7.5H23.007C23.9352 7.5 24.6943 8.13035 24.6943 8.90082C24.6943 9.6713 23.9352 10.3018 23.007 10.3018H6.38185C5.45378 10.3018 4.69434 9.67143 4.69434 8.90096C4.69434 8.13035 5.45378 7.5 6.38185 7.5ZM6.38185 18.6984H23.007C23.9352 18.6984 24.6943 19.3287 24.6943 20.0992C24.6943 20.8696 23.9352 21.5 23.007 21.5H6.38185C5.45378 21.5 4.69434 20.8696 4.69434 20.0992C4.69434 19.3287 5.45378 18.6984 6.38185 18.6984ZM6.38185 13.0992H23.007C23.9352 13.0992 24.6943 13.7296 24.6943 14.5001C24.6943 15.2705 23.9352 15.901 23.007 15.901H6.38185C5.45378 15.901 4.69434 15.2705 4.69434 14.5001C4.69434 13.7296 5.45378 13.0992 6.38185 13.0992Z" fill="#82CF45"/>
</svg>
