<svg class="h-20" width="100" height="100" viewBox="0 0 100 100" fill="none" xmlns="http://www.w3.org/2000/svg"><circle cx="50" cy="50" r="50" fill="white"></circle><path d="M38.6675 49.2854C39.969 51.6348 41.4679 53.8909 43.4204 55.9496C45.3726 58.0198 47.8017 59.904 50.9509 61.5094C51.1832 61.6255 51.4042 61.6255 51.6015 61.5441C51.9037 61.428 52.2059 61.1836 52.5081 60.8812C52.7405 60.6486 53.0309 60.2763 53.3334 59.8692C54.5419 58.2757 56.0415 56.2987 58.1562 57.2873C58.2027 57.3103 58.2378 57.3339 58.284 57.3569L65.3379 61.4158C65.3611 61.4273 65.3848 61.451 65.4077 61.4624C66.3376 62.1021 66.7207 63.0908 66.7322 64.2074C66.7322 65.3473 66.3139 66.6262 65.6981 67.7081C64.8846 69.1386 63.6875 70.0807 62.3044 70.7089C60.9913 71.3137 59.5268 71.6395 58.1204 71.8488C55.9126 72.1741 53.844 71.9649 51.7286 71.3138C49.66 70.6745 47.5797 69.6159 45.302 68.2087L45.1395 68.1037C44.0936 67.4526 42.9664 66.7545 41.8625 65.9292C37.8063 62.87 33.6811 58.4505 30.9963 53.5888C28.7416 49.5065 27.5099 45.0985 28.1841 40.8998C28.5561 38.597 29.5437 36.5036 31.2638 35.1196C32.763 33.9102 34.785 33.2469 37.3996 33.4798C37.7018 33.5028 37.9689 33.6776 38.1085 33.9331L42.6291 41.586C43.2919 42.4468 43.3728 43.2957 43.0126 44.1446C42.7104 44.8427 42.1063 45.4823 41.281 46.0868C41.0372 46.2961 40.7468 46.5054 40.4446 46.7265C39.4334 47.4593 38.2829 48.3082 38.6779 49.3087L38.6675 49.2854ZM66.6419 34.4502C67.5708 34.4502 68.3234 35.2038 68.3234 36.133C68.3234 37.0622 67.5704 37.8158 66.6419 37.8158C65.7135 37.8158 64.9605 37.0622 64.9605 36.133C64.9605 35.2038 65.7131 34.4502 66.6419 34.4502ZM55.1055 34.4442C56.0364 34.4442 56.7909 35.1992 56.7909 36.1305C56.7909 37.0619 56.0364 37.8166 55.1055 37.8166C54.1745 37.8166 53.4211 37.0619 53.4211 36.1305C53.4211 35.1992 54.1749 34.4442 55.1055 34.4442ZM61.0805 34.4442C62.0115 34.4442 62.7659 35.1992 62.7659 36.1305C62.7659 37.0619 62.0115 37.8166 61.0805 37.8166C60.1495 37.8166 59.3958 37.0619 59.3958 36.1305C59.3958 35.1992 60.1495 34.4442 61.0805 34.4442ZM54.1441 28C52.8844 28 51.807 28.4436 50.9104 29.3309C50.0138 30.2182 49.5806 31.2968 49.5806 32.5675V40.583C49.5806 41.8533 50.0235 42.932 50.9104 43.8196C51.797 44.7069 52.8747 45.1501 54.1441 45.1501H57.8937C57.632 46.1582 57.3094 47.116 56.9065 48.0133C56.5134 48.921 55.8388 49.7879 54.9118 50.6146C56.6949 50.1509 58.2765 49.4553 59.6769 48.5376C61.0676 47.6302 62.2764 46.4911 63.2736 45.1498H67.4365C68.6961 45.1498 69.7739 44.6961 70.6705 43.8192C71.5671 42.9316 72 41.853 72 40.5826V32.5675C72 31.3068 71.5571 30.2282 70.6705 29.3309C69.7832 28.4336 68.7058 28 67.4361 28C63.3857 28 58.1945 28 54.1441 28Z" fill="#82CF45"></path></svg>