<svg class="h-20" width="101" height="100" viewBox="0 0 101 100" fill="none" xmlns="http://www.w3.org/2000/svg"><circle cx="50.5" cy="50" r="50" fill="white"></circle><path d="M48.818 43.3391C47.3264 43.3391 46.1164 44.5462 46.1164 46.0341C46.1164 47.522 47.3264 48.7291 48.818 48.7291C50.31 48.7291 51.5196 47.522 51.5196 46.0341C51.5196 44.5462 50.3096 43.3391 48.818 43.3391ZM32.24 43.3391C30.748 43.3391 29.5384 44.5462 29.5384 46.0341C29.5384 47.522 30.7485 48.7291 32.24 48.7291C33.7316 48.7291 34.9417 47.522 34.9417 46.0341C34.9417 44.5462 33.7316 43.3391 32.24 43.3391ZM40.5286 43.3391C39.0365 43.3391 37.8269 44.5462 37.8269 46.0341C37.8269 47.522 39.0365 48.7291 40.5286 48.7291C42.0206 48.7291 43.2302 47.522 43.2302 46.0341C43.2302 44.5462 42.0206 43.3391 40.5286 43.3391ZM61.0508 33.7146H72.9219C76.5404 33.7146 79.5002 36.6676 79.5002 40.2768V51.8579C79.5002 55.4666 76.5394 58.4201 72.9219 58.4201H67.8114C68.5423 61.3058 69.4279 63.898 72.1332 66.2917C66.9603 64.9721 62.967 62.3041 60.0365 58.4201H59.1528C58.8097 58.4201 58.4494 58.3927 58.0798 58.342C60.0342 56.7629 61.3915 54.7808 61.3915 52.6344V47.8085C61.8232 48.1074 62.348 48.2832 62.913 48.2832C64.3877 48.2832 65.5838 47.0901 65.5838 45.6193C65.5838 44.1486 64.3877 42.9555 62.913 42.9555C62.348 42.9555 61.8232 43.1308 61.3915 43.4298V36.2036C61.392 35.3425 61.2722 34.5078 61.0508 33.7146ZM71.4322 42.9555C69.9574 42.9555 68.7618 44.1486 68.7618 45.6193C68.7618 47.0901 69.9574 48.2832 71.4322 48.2832C72.907 48.2832 74.1026 47.0901 74.1026 45.6193C74.1026 44.1486 72.907 42.9555 71.4322 42.9555ZM31.3325 29.9102H49.7246H49.7265V29.9167C52.237 29.9176 54.5135 30.9364 56.1589 32.5782L56.1556 32.5814C57.8038 34.227 58.8265 36.4975 58.827 38.9962H58.8335V38.9972H58.827V52.102H58.8335V52.1034H58.827C58.826 54.7752 56.9653 57.1028 54.4865 58.7284C52.1787 60.2424 49.2641 61.1821 46.9134 61.1821V61.189H46.9125V61.1821H46.7242C45.0639 63.2447 43.137 65.0065 40.9308 66.4516C38.4907 68.0502 35.7303 69.2545 32.6344 70.0445L32.633 70.0389C32.0503 70.1854 31.408 70.011 30.9825 69.5316C30.3756 68.8472 30.4394 67.8015 31.1256 67.1961C32.4754 66.0025 33.3704 64.7601 34.0188 63.4572C34.3795 62.7323 34.6704 61.9749 34.9226 61.189H31.3325H31.3306V61.1821C28.8206 61.1816 26.5436 60.1624 24.8987 58.521C23.2524 56.8792 22.2306 54.6073 22.2302 52.1025H22.2236V52.1016H22.2302V38.9967H22.2236V38.9944H22.2302C22.2311 36.5421 23.2146 34.3116 24.8064 32.6777C24.8353 32.6437 24.8656 32.6103 24.8978 32.5782C26.5436 30.9364 28.8211 29.9167 31.3316 29.9162V29.9102H31.3325Z" fill="#82CF45"></path></svg>