<svg class="h-20" width="101" height="100" viewBox="0 0 101 100" fill="none" xmlns="http://www.w3.org/2000/svg"><circle cx="50.5" cy="50" r="50" fill="white"></circle><path fill-rule="evenodd" clip-rule="evenodd" d="M67.5061 32.9751C62.9946 28.4794 56.9942 26.0023 50.6008 26C37.4269 26 26.7052 36.6691 26.7006 49.7833C26.6983 53.9756 27.7996 58.0676 29.891 61.6738L26.5 74L39.1699 70.6926C42.6604 72.5882 46.5911 73.586 50.5906 73.5871H50.6008C63.7725 73.5871 74.4955 62.917 74.5 49.8027C74.5023 43.447 72.019 37.472 67.5061 32.9762V32.9751ZM50.6008 69.5704H50.5928C47.0288 69.5694 43.5325 68.6158 40.482 66.8151L39.7566 66.3864L32.2379 68.3489L34.2445 61.0534L33.7723 60.3053C31.7841 57.1576 30.7332 53.5195 30.7355 49.7845C30.7401 38.885 39.6512 30.0167 50.6089 30.0167C55.9146 30.019 60.902 32.0776 64.6526 35.8149C68.4035 39.551 70.4673 44.519 70.4651 49.8004C70.4604 60.701 61.5495 69.5694 50.6008 69.5694V69.5704ZM61.4967 54.7649C60.8996 54.4673 57.9638 53.0302 57.4159 52.8318C56.8682 52.6333 56.4706 52.5342 56.0729 53.1294C55.6752 53.7249 54.5305 55.0637 54.182 55.4594C53.8336 55.8563 53.4853 55.9054 52.8882 55.6076C52.2912 55.31 50.3671 54.6828 48.0855 52.6584C46.3104 51.0823 45.1116 49.1367 44.7634 48.5413C44.415 47.946 44.7267 47.6244 45.0246 47.329C45.2927 47.0622 45.6216 46.6345 45.9207 46.2878C46.2199 45.941 46.3184 45.6925 46.5177 45.2967C46.7173 44.8997 46.6175 44.5533 46.4686 44.2554C46.3195 43.9578 45.1254 41.0325 44.6269 39.843C44.1421 38.6843 43.6495 38.8417 43.2839 38.8223C42.9354 38.8052 42.5379 38.8018 42.1391 38.8018C41.7403 38.8018 41.0939 38.95 40.5461 39.5454C39.9984 40.1406 38.4559 41.5788 38.4559 44.5029C38.4559 47.4271 40.5955 50.2544 40.8946 50.6513C41.1936 51.0482 45.1059 57.0504 51.0959 59.6256C52.5204 60.238 53.633 60.6041 54.5006 60.8778C55.9308 61.3305 57.2326 61.2668 58.2616 61.1138C59.4089 60.9429 61.7948 59.6757 62.2921 58.2877C62.7893 56.8998 62.7893 55.7092 62.6404 55.4616C62.4915 55.2142 62.0927 55.0648 61.4956 54.7672L61.4967 54.7649Z" fill="#82CF45"></path></svg>