<svg width="24" height="18" viewBox="0 0 24 18" fill="none" xmlns="http://www.w3.org/2000/svg">
<path d="M20.5046 4.49999L5.23668 4.52199L5.90876 4.93699L4.80863 2.737C4.74884 2.61738 4.65815 2.51592 4.54596 2.44313C4.43377 2.37034 4.30416 2.32886 4.17055 2.323L1.87726 2.223C0.817134 2.228 -0.00596814 3.06 3.26015e-05 4.08299C0.00203285 4.32599 0.0510389 4.56699 0.146051 4.79199L2.21831 9.47199C2.44623 9.99937 2.82336 10.4486 3.3033 10.7645C3.78323 11.0804 4.34505 11.2492 4.91964 11.25H8.96314L8.28706 10.175L5.80275 15.343C5.66124 15.6229 5.59402 15.9344 5.60751 16.2478C5.621 16.5611 5.71476 16.8657 5.8798 17.1324C6.04484 17.3991 6.27563 17.619 6.55004 17.7709C6.82445 17.9228 7.13329 18.0017 7.44695 18H9.54621C9.81695 17.9999 10.0844 17.9403 10.3296 17.8256C10.5748 17.7109 10.7918 17.5437 10.9654 17.336L16.131 10.973L15.549 11.25H20.5056C22.3258 11.34 23.905 9.90899 23.996 8.05199L24 7.91799C23.9991 7.46749 23.9093 7.02159 23.7358 6.60583C23.5624 6.19006 23.3086 5.81258 22.989 5.49501C22.6694 5.17743 22.2904 4.926 21.8735 4.75509C21.4566 4.58418 21.0101 4.49715 20.5596 4.49899L20.4856 4.49999H20.5046ZM20.5246 5.99999H20.5666C21.0767 5.9976 21.567 6.19788 21.9295 6.55679C22.292 6.91571 22.4972 7.40388 22.4998 7.91399L22.4978 7.97899C22.4735 8.47319 22.2538 8.9375 21.8872 9.2698C21.5205 9.6021 21.0368 9.77518 20.5426 9.75099L15.549 9.74999C15.4374 9.74999 15.3273 9.77486 15.2266 9.82278C15.1259 9.87069 15.0372 9.94046 14.9669 10.027L9.80624 16.382C9.77379 16.419 9.73381 16.4487 9.68897 16.469C9.64413 16.4894 9.59546 16.4999 9.54621 16.5H7.44595C7.3882 16.5002 7.33136 16.4856 7.28092 16.4574C7.23048 16.4293 7.18814 16.3887 7.15799 16.3394C7.12783 16.2902 7.11088 16.234 7.10877 16.1763C7.10665 16.1186 7.11945 16.0613 7.14592 16.01L9.63922 10.825C9.69421 10.7106 9.71928 10.5842 9.71211 10.4576C9.70493 10.3309 9.66574 10.2081 9.5982 10.1007C9.53065 9.99334 9.43696 9.90483 9.3259 9.84349C9.21484 9.78214 9.09002 9.74997 8.96314 9.74999H4.92164C4.63874 9.74912 4.36226 9.66554 4.12627 9.50954C3.89028 9.35353 3.70508 9.13192 3.59348 8.87199L1.52322 4.19599C1.50319 4.14312 1.49626 4.08617 1.50304 4.03004C1.50982 3.9739 1.5301 3.92024 1.56214 3.87366C1.59419 3.82707 1.63705 3.78893 1.68705 3.76252C1.73705 3.73611 1.79271 3.7222 1.84926 3.72199L4.10454 3.82199L3.46646 3.407L4.5666 5.60699C4.62893 5.73183 4.72485 5.8368 4.84358 5.91012C4.96231 5.98343 5.09914 6.02217 5.23868 6.02199L20.5066 5.99999H20.5246ZM16.3221 4.75999L13.3297 0.739999C13.1572 0.510159 12.9335 0.323632 12.6764 0.195191C12.4194 0.0667503 12.1359 -7.75601e-05 11.8485 6.75522e-08H9.78124C9.46665 0.000569769 9.15739 0.0813352 8.8827 0.234664C8.60802 0.387993 8.37696 0.608821 8.21138 0.87628C8.0458 1.14374 7.95116 1.449 7.9364 1.76321C7.92164 2.07741 7.98725 2.3902 8.12704 2.672L9.56621 5.58199C9.65837 5.75312 9.81337 5.88179 9.99855 5.94089C10.1837 5.99999 10.3846 5.98491 10.5589 5.89882C10.7332 5.81273 10.8672 5.66236 10.9328 5.47939C10.9983 5.29643 10.9903 5.09516 10.9104 4.91799L9.4702 2.007C9.44374 1.95367 9.43128 1.89448 9.43399 1.83501C9.4367 1.77554 9.45449 1.71773 9.4857 1.66703C9.5169 1.61633 9.56049 1.5744 9.61237 1.54518C9.66424 1.51596 9.7227 1.50041 9.78224 1.5H11.8485C11.9027 1.50015 11.9561 1.51288 12.0045 1.53717C12.0529 1.56147 12.095 1.59666 12.1275 1.64L15.1179 5.65699C15.1767 5.73598 15.2506 5.80261 15.3352 5.85307C15.4197 5.90354 15.5135 5.93685 15.6109 5.9511C15.7084 5.96535 15.8077 5.96027 15.9032 5.93615C15.9987 5.91202 16.0885 5.86932 16.1675 5.81049C16.2465 5.75166 16.3132 5.67785 16.3636 5.59326C16.4141 5.50868 16.4474 5.41499 16.4617 5.31753C16.4759 5.22008 16.4708 5.12077 16.4467 5.02528C16.4226 4.92979 16.3799 4.83998 16.3211 4.76099L16.3221 4.75999Z" fill="#505050"/>
</svg>
