<svg width="22" height="20" viewBox="0 0 22 20" fill="none" xmlns="http://www.w3.org/2000/svg">
<path d="M1.64502 19.0996C1.0127 19.0996 0.5 18.58 0.5 17.9391C0.5 17.2982 1.0127 16.7785 1.64502 16.7785H4.52808V13.6538H1.0896C0.513672 13.7074 0.397461 13.2467 0.643555 12.8639L2.84131 10.2536L2.77808 10.1895H1.60229C1.17676 10.2536 1.01782 9.78588 1.27588 9.45677L3.64282 6.64031H2.95239C2.52002 6.65243 2.41235 6.24884 2.69092 5.86777L4.84595 3.27302C4.99292 3.09635 5.15015 2.83652 5.40649 2.84172C5.62695 2.84692 5.76025 3.05824 5.89014 3.21413L7.12402 4.6726L5.87134 6.16224C5.84058 6.19342 5.81152 6.22633 5.78418 6.26097C5.56372 6.54158 5.44238 6.86895 5.41333 7.19286C5.38428 7.50118 5.44067 7.80777 5.57397 8.07452C5.69189 8.31009 5.8645 8.51275 6.09009 8.66345L5.15356 9.77549C5.12109 9.81359 5.09033 9.85516 5.06299 9.89847C4.82886 10.264 4.7229 10.6849 4.75879 11.0781C4.7793 11.3067 4.84424 11.5232 4.95361 11.7207C5.07153 11.9303 5.2373 12.1121 5.44922 12.2542C5.72095 12.4326 6.05762 12.5365 6.4541 12.5244C6.46606 12.5244 6.47803 12.5244 6.48999 12.5244H8.91675V13.6555H6.26099V16.7803H10.0703V11.3552H6.4917C5.89185 11.4106 5.77051 10.9308 6.02686 10.5324L8.31348 7.8147L8.24683 7.74715H7.02319C6.58057 7.81297 6.41479 7.32624 6.68481 6.985L9.14746 4.05422H8.42798C7.97681 4.06635 7.86572 3.64543 8.15454 3.25051L10.4001 0.548364C10.554 0.364757 10.718 0.0928106 10.9846 0.0997392C11.2136 0.104936 11.3521 0.324918 11.4888 0.486007L13.8745 3.30593C14.1326 3.68354 13.9121 4.07847 13.4609 4.07847H12.8167L15.2622 6.98327C15.5562 7.27774 15.4058 7.74888 15.0691 7.81297H13.6472L15.7783 10.3506L16.0125 10.6277C16.1902 10.8338 16.1013 11.3084 15.7168 11.3535H11.8733V16.7768H15.6006V13.6538H13.0269V12.5227H15.7168V12.5209C15.7612 12.5209 15.8057 12.5175 15.8518 12.5123C16.1919 12.4707 16.4756 12.3304 16.7029 12.1277C16.9233 11.932 17.0754 11.6895 17.1626 11.4366C17.2446 11.1976 17.2703 10.9395 17.2412 10.6953C17.2087 10.4268 17.1096 10.1618 16.9421 9.93831C16.925 9.91406 16.9062 9.89154 16.8875 9.86729L16.6533 9.59015L15.8962 8.69116C15.9697 8.63747 16.0398 8.57684 16.103 8.51275C16.2893 8.32222 16.426 8.08492 16.5012 7.83029C16.5747 7.58259 16.5901 7.31238 16.5405 7.0439C16.4841 6.74597 16.3491 6.45324 16.1184 6.20381L14.7905 4.62583L15.9185 3.26956C16.0654 3.09288 16.2227 2.83306 16.479 2.83826C16.6995 2.84345 16.8328 3.05477 16.9626 3.21067L19.2544 5.91974C19.5039 6.28175 19.2903 6.66109 18.8579 6.66109H18.2393L20.5891 9.45158C20.8711 9.73392 20.7275 10.1877 20.4028 10.2484H19.0374L21.0864 12.6838L21.3103 12.9505C21.4812 13.1497 21.3958 13.6035 21.0266 13.6486H17.3335V16.7733H20.355C20.9873 16.7733 21.5 17.293 21.5 17.9339C21.5 18.5748 20.9873 19.0944 20.355 19.0944H1.64502V19.0996Z" fill="#82CF45"/>
</svg>
