<svg width="7" height="9" viewBox="0 0 7 9" fill="none" xmlns="http://www.w3.org/2000/svg">
<path d="M3.42894 0.670926L3.50428 0.66626C3.65037 0.66624 3.79146 0.719526 3.90106 0.816122C4.01067 0.912718 4.08127 1.04599 4.09961 1.19093L4.10428 1.26626L4.10361 6.86159L5.71628 5.25493C5.81653 5.17007 5.94175 5.12025 6.0729 5.11303C6.20405 5.10581 6.33397 5.14158 6.44294 5.21493L6.50694 5.26559C6.73361 5.46826 6.77028 5.80359 6.60428 6.04826L6.55428 6.11293L3.97761 8.73426C3.87299 8.85069 3.72717 8.92184 3.57102 8.93266C3.41487 8.94349 3.26063 8.89314 3.14094 8.79226L0.441609 6.11226C0.388804 6.05383 0.348047 5.98555 0.321674 5.91134C0.2953 5.83713 0.283829 5.75845 0.287916 5.6798C0.292004 5.60114 0.311569 5.52407 0.345493 5.453C0.379417 5.38192 0.427031 5.31824 0.485609 5.26559C0.593651 5.16843 0.733161 5.11357 0.878449 5.11112C1.02374 5.10867 1.16502 5.15879 1.27628 5.25226L2.90361 6.83093V1.26626C2.90361 1.12006 2.95699 0.978894 3.05372 0.869273C3.15045 0.759651 3.28388 0.68912 3.42894 0.670926Z" fill="#2E353B"/>
</svg>
