<svg width="20" height="15" viewBox="0 0 20 15" fill="none" xmlns="http://www.w3.org/2000/svg">
<path fill-rule="evenodd" clip-rule="evenodd" d="M0.546875 0.269531H1.73503C2.03613 0.269531 2.2819 0.547288 2.2819 0.867776V8.66099H8.35775L10.0895 1.99483H16.901C18.6051 1.99483 20 3.52427 20 5.38488V8.77494H19.9967C19.9984 8.7963 20 8.81767 20 8.84081V14.2695H17.7181V11.7216H2.2819V14.1538H0V0.867776C0 0.538385 0.245768 0.269531 0.546875 0.269531ZM5.76823 2.1159C7.17122 2.1159 8.30892 3.36046 8.30892 4.89525C8.30892 6.43003 7.17122 7.67459 5.76823 7.67459C4.36523 7.67459 3.22754 6.43003 3.22754 4.89525C3.22754 3.36046 4.36523 2.1159 5.76823 2.1159Z" fill="#82CF45"/>
</svg>
