<svg width="15" height="15" viewBox="0 0 15 15" fill="none" xmlns="http://www.w3.org/2000/svg">
<path d="M7.5 0C6.46484 0 5.49316 0.195312 4.58496 0.585938C3.67676 0.986328 2.8833 1.52588 2.20459 2.20459C1.52588 2.8833 0.986328 3.67676 0.585938 4.58496C0.195313 5.49316 0 6.46484 0 7.5C0 8.53516 0.195313 9.50684 0.585938 10.415C0.986328 11.3232 1.52588 12.1167 2.20459 12.7954C2.8833 13.4741 3.67676 14.0137 4.58496 14.4141C5.49316 14.8047 6.46484 15 7.5 15C8.53516 15 9.50684 14.8047 10.415 14.4141C11.3232 14.0137 12.1167 13.4741 12.7954 12.7954C13.4741 12.1167 14.0137 11.3232 14.4141 10.415C14.8047 9.50684 15 8.53516 15 7.5C15 6.46484 14.8047 5.49316 14.4141 4.58496C14.0137 3.67676 13.4741 2.8833 12.7954 2.20459C12.1167 1.52588 11.3232 0.986328 10.415 0.585938C9.50684 0.195312 8.53516 0 7.5 0ZM7.5 13.4033C6.68945 13.4033 5.92285 13.2471 5.2002 12.9346C4.4873 12.6318 3.8623 12.2119 3.3252 11.6748C2.78809 11.1377 2.36816 10.5127 2.06543 9.7998C1.75293 9.07715 1.59668 8.31055 1.59668 7.5C1.59668 6.68945 1.75293 5.92285 2.06543 5.2002C2.36816 4.4873 2.78809 3.8623 3.3252 3.3252C3.8623 2.78809 4.4873 2.36816 5.2002 2.06543C5.92285 1.75293 6.68945 1.59668 7.5 1.59668C8.31055 1.59668 9.07715 1.75293 9.7998 2.06543C10.5127 2.36816 11.1377 2.78809 11.6748 3.3252C12.2119 3.8623 12.6318 4.4873 12.9346 5.2002C13.2471 5.92285 13.4033 6.68945 13.4033 7.5C13.4033 8.31055 13.2471 9.07715 12.9346 9.7998C12.6318 10.5127 12.2119 11.1377 11.6748 11.6748C11.1377 12.2119 10.5127 12.6318 9.7998 12.9346C9.07715 13.2471 8.31055 13.4033 7.5 13.4033ZM11.4111 7.26562H8.04199V3.22266C8.04199 3.04688 7.98096 2.89795 7.85889 2.77588C7.73682 2.65381 7.59277 2.59277 7.42676 2.59277C7.25098 2.59277 7.10205 2.65381 6.97998 2.77588C6.85791 2.89795 6.79688 3.04688 6.79688 3.22266V7.88086C6.79688 8.05664 6.85791 8.20557 6.97998 8.32764C7.10205 8.44971 7.25098 8.51074 7.42676 8.51074H11.4111C11.5771 8.51074 11.7212 8.44971 11.8433 8.32764C11.9653 8.20557 12.0264 8.05664 12.0264 7.88086C12.0264 7.71484 11.9653 7.5708 11.8433 7.44873C11.7212 7.32666 11.5771 7.26562 11.4111 7.26562Z" fill="#82CF45"/>
</svg>
