<svg width="17" height="20" viewBox="0 0 17 20" fill="none" xmlns="http://www.w3.org/2000/svg">
<path d="M8.12506 18.6406L7.78349 18.3212C5.70148 16.3742 4.13663 14.5865 3.10676 12.9586C2.08215 11.3391 1.5313 9.84328 1.53125 8.4866L8.12506 18.6406ZM8.12506 18.6406L8.46658 18.3211M8.12506 18.6406L8.46658 18.3211M8.46658 18.3211C10.5486 16.3735 12.1134 14.5855 13.1432 12.9576C14.1679 11.338 14.7188 9.8425 14.7188 8.48642C14.7188 6.49232 14.0902 4.82169 12.8104 3.51825C11.5378 2.22224 9.96564 1.5706 8.1252 1.56986H8.125M8.46658 18.3211L8.125 1.56986M8.125 1.56986C6.28378 1.56986 4.71116 2.22153 3.43852 3.51835M8.125 1.56986L3.43852 3.51835M3.43852 3.51835C2.15878 4.82242 1.53057 6.49298 1.53125 8.48642L3.43852 3.51835ZM2.16579 13.3352L2.16574 13.3351C1.6137 12.4369 1.19919 11.5814 0.917259 10.7682C0.63671 9.95894 0.500647 9.19919 0.5 8.48618C0.500048 6.01371 1.27569 4.09286 2.79308 2.6671C4.33859 1.21492 6.1091 0.5 8.125 0.5C10.1416 0.5 11.9125 1.21495 13.4579 2.6671C14.9753 4.09287 15.7506 6.01374 15.75 8.48629V8.48642C15.75 9.19843 15.614 9.95802 15.3328 10.768C15.0502 11.582 14.6356 12.4377 14.0842 13.3352C13.5339 14.231 12.8439 15.1624 12.0117 16.1292C11.1788 17.0967 10.2185 18.0926 9.12963 19.1169C8.99227 19.2439 8.8384 19.3377 8.66494 19.4008C8.47923 19.4684 8.30001 19.5 8.125 19.5C7.94999 19.5 7.77077 19.4684 7.58506 19.4008C7.4116 19.3377 7.25773 19.2439 7.12037 19.1169C6.03149 18.0926 5.07116 17.0967 4.23831 16.1292C3.40605 15.1624 2.71614 14.231 2.16579 13.3352ZM8.125 9.84929H8.12438C7.70374 9.84981 7.35375 9.70333 7.0478 9.39158C6.74156 9.07951 6.59375 8.71787 6.59375 8.27943L6.59375 8.27884C6.59323 7.84147 6.74057 7.48036 7.04679 7.16832C7.35275 6.85655 7.70328 6.70957 8.125 6.70957L8.12562 6.70957C8.54626 6.70905 8.89625 6.85553 9.2022 7.16728C9.50844 7.47935 9.65625 7.84099 9.65625 8.27943V8.28002C9.65677 8.71911 9.50921 9.08029 9.20351 9.39127C8.89762 9.70244 8.547 9.84929 8.125 9.84929Z" stroke="#82CF45"/>
</svg>
