<svg width="27" height="22" viewBox="0 0 27 22" fill="none" xmlns="http://www.w3.org/2000/svg">
<path d="M24.6465 1.77904C24.0371 1.19438 23.3092 0.751709 22.4629 0.451025C21.6165 0.150343 20.6517 0 19.5684 0C19.2637 0 18.959 0.0250568 18.6543 0.0751705C18.3496 0.125286 18.0449 0.200457 17.7402 0.300684C17.4186 0.417616 17.1139 0.5429 16.8262 0.676538C16.5384 0.810175 16.2591 0.968868 15.9883 1.15262C15.7174 1.31967 15.4678 1.48671 15.2393 1.65376C15.0107 1.8208 14.7949 1.9795 14.5918 2.12984C14.4056 2.28018 14.2194 2.4347 14.0332 2.5934C13.847 2.75209 13.6693 2.92331 13.5 3.10706C13.3307 2.92331 13.153 2.75209 12.9668 2.5934C12.7806 2.4347 12.5944 2.28018 12.4082 2.12984C12.2051 1.9795 11.9893 1.8208 11.7607 1.65376C11.5322 1.48671 11.2826 1.31967 11.0117 1.15262C10.7409 0.968868 10.4616 0.810175 10.1738 0.676538C9.88607 0.5429 9.58138 0.417616 9.25977 0.300684C8.95508 0.200457 8.65039 0.125286 8.3457 0.0751705C8.04102 0.0250568 7.73633 0 7.43164 0C6.34831 0 5.38346 0.150343 4.53711 0.451025C3.69076 0.751709 2.96289 1.19438 2.35352 1.77904C1.72721 2.36371 1.26172 3.06948 0.957031 3.89636C0.652344 4.72323 0.5 5.66287 0.5 6.71526C0.5 7.03265 0.529622 7.35421 0.588867 7.67995C0.648112 8.0057 0.728516 8.33561 0.830078 8.6697C0.948568 9.0205 1.07129 9.33789 1.19824 9.62187C1.3252 9.90585 1.46484 10.1731 1.61719 10.4237C1.76953 10.6576 1.92611 10.8914 2.08691 11.1253C2.24772 11.3591 2.42122 11.5847 2.60742 11.8018C2.79362 12.0357 2.95443 12.232 3.08984 12.3907C3.22526 12.5494 3.33529 12.6705 3.41992 12.754C3.50456 12.8375 3.5765 12.9085 3.63574 12.967C3.69499 13.0254 3.75 13.0797 3.80078 13.1298L12.8652 21.7494C12.9499 21.833 13.0472 21.8956 13.1572 21.9374C13.2673 21.9791 13.3815 22 13.5 22C13.6185 22 13.7327 21.9791 13.8428 21.9374C13.9528 21.8956 14.0501 21.833 14.1348 21.7494L23.1738 13.1549C24.291 12.0524 25.1247 10.9666 25.6748 9.89749C26.2249 8.8284 26.5 7.76765 26.5 6.71526C26.5 5.66287 26.3477 4.72323 26.043 3.89636C25.7383 3.06948 25.2728 2.36371 24.6465 1.77904ZM21.9043 11.8018L13.5 19.795L5.07031 11.7768C4.17318 10.8914 3.49609 10.027 3.03906 9.18337C2.58203 8.33979 2.35352 7.51709 2.35352 6.71526C2.35352 6.31435 2.37891 5.94685 2.42969 5.61276C2.48047 5.27866 2.55664 4.96128 2.6582 4.66059C2.77669 4.35991 2.89941 4.09264 3.02637 3.85877C3.15332 3.6249 3.30143 3.42445 3.4707 3.2574C3.62305 3.07365 3.80078 2.91078 4.00391 2.76879C4.20703 2.6268 4.41862 2.5057 4.63867 2.40547C4.87565 2.28853 5.1084 2.19248 5.33691 2.11731C5.56543 2.04214 5.78971 1.98785 6.00977 1.95444C6.22982 1.92103 6.45833 1.8918 6.69531 1.86674C6.93229 1.84169 7.17773 1.82916 7.43164 1.82916C7.68555 1.82916 7.94792 1.86257 8.21875 1.92939C8.48958 1.9962 8.76888 2.08808 9.05664 2.20501C9.3444 2.32195 9.6237 2.45558 9.89453 2.60592C10.1654 2.75626 10.4193 2.92331 10.6562 3.10706C10.9102 3.29081 11.1387 3.47039 11.3418 3.64579C11.5449 3.82118 11.7396 3.99241 11.9258 4.15945C12.0951 4.3098 12.2516 4.46014 12.3955 4.61048C12.5394 4.76082 12.6706 4.90281 12.7891 5.03645C12.8737 5.13667 12.9753 5.21185 13.0938 5.26196C13.2122 5.31207 13.3477 5.33713 13.5 5.33713C13.6523 5.33713 13.7878 5.31207 13.9062 5.26196C14.0247 5.21185 14.1263 5.13667 14.2109 5.03645C14.3294 4.90281 14.4606 4.76082 14.6045 4.61048C14.7484 4.46014 14.9049 4.3098 15.0742 4.15945C15.2604 3.99241 15.4551 3.82118 15.6582 3.64579C15.8613 3.47039 16.0898 3.29081 16.3438 3.10706C16.5807 2.92331 16.8346 2.75626 17.1055 2.60592C17.3763 2.45558 17.6556 2.32195 17.9434 2.20501C18.2311 2.08808 18.5104 1.9962 18.7812 1.92939C19.0521 1.86257 19.3145 1.82916 19.5684 1.82916C19.8223 1.82916 20.0677 1.84169 20.3047 1.86674C20.5417 1.8918 20.7702 1.92103 20.9902 1.95444C21.2103 1.98785 21.4346 2.04214 21.6631 2.11731C21.8916 2.19248 22.1243 2.28853 22.3613 2.40547C22.5814 2.5057 22.793 2.6268 22.9961 2.76879C23.1992 2.91078 23.377 3.07365 23.5293 3.2574C23.6986 3.42445 23.8467 3.6249 23.9736 3.85877C24.1006 4.09264 24.2233 4.35991 24.3418 4.66059C24.4434 4.96128 24.5195 5.27866 24.5703 5.61276C24.6211 5.94685 24.6465 6.31435 24.6465 6.71526C24.6465 7.51709 24.418 8.33979 23.9609 9.18337C23.5039 10.027 22.8184 10.8998 21.9043 11.8018Z" fill="#82CF45"/>
</svg>
