<svg width="21" height="22" viewBox="0 0 21 22" fill="none" xmlns="http://www.w3.org/2000/svg">
<circle cx="10.5" cy="11" r="10.5" fill="#404040"/>
<path d="M10.884 6.25C10.8747 6.48333 10.786 6.67467 10.618 6.824C10.4593 6.964 10.268 7.034 10.044 7.034C9.82 7.034 9.62867 6.95467 9.47 6.796C9.31133 6.63733 9.232 6.446 9.232 6.222C9.232 5.97933 9.33 5.788 9.526 5.648C9.722 5.508 9.92267 5.438 10.128 5.438C10.3707 5.438 10.5573 5.522 10.688 5.69C10.8187 5.84867 10.884 6.03533 10.884 6.25ZM10.688 9.512L10.576 12.452C10.576 12.9653 10.618 13.3667 10.702 13.656C10.786 13.9453 10.9493 14.09 11.192 14.09C11.4627 14.09 11.696 14.0293 11.892 13.908C12.0973 13.7773 12.2933 13.628 12.48 13.46L12.662 13.6V13.754C12.5033 13.9593 12.3167 14.1693 12.102 14.384C11.8967 14.5893 11.6727 14.762 11.43 14.902C11.1967 15.042 10.9493 15.112 10.688 15.112C10.492 15.112 10.3053 15.0747 10.128 15C9.96 14.9347 9.82467 14.79 9.722 14.566C9.61933 14.342 9.568 14.0013 9.568 13.544L9.652 10.45C9.652 10.086 9.61467 9.79667 9.54 9.582C9.47467 9.36733 9.34867 9.26 9.162 9.26C9.01267 9.26 8.83067 9.31133 8.616 9.414C8.40133 9.50733 8.21 9.60533 8.042 9.708L7.86 9.456C8.17733 9.204 8.51333 8.966 8.868 8.742C9.232 8.518 9.54933 8.406 9.82 8.406C10.1373 8.406 10.3613 8.51333 10.492 8.728C10.6227 8.94267 10.688 9.204 10.688 9.512Z" fill="white"/>
</svg>
