<svg width="16" height="16" viewBox="0 0 16 16" fill="none" xmlns="http://www.w3.org/2000/svg">
<path fill-rule="evenodd" clip-rule="evenodd" d="M5.60473 8.17398C10.2665 8.52067 10.024 5.97279 15.4 4.75454C11.5847 1.60598 8.61082 3.74681 5.60473 1.2275V1.14615C5.60473 0.807907 5.31912 0.533524 4.96703 0.533524C4.61494 0.533524 4.32933 0.807907 4.32933 1.14615V12.1766C4.32933 12.5148 4.61494 12.7892 4.96703 12.7892C5.31912 12.7892 5.60473 12.5148 5.60473 12.1766V8.17398ZM6.8516 9.93429C7.52997 10.0165 8.20622 10.3326 8.69823 10.809C9.17719 11.2733 9.49012 11.8879 9.49012 12.5962C9.49012 13.0554 9.31529 13.5021 8.99508 13.9025C8.70916 14.2597 8.30213 14.5819 7.80072 14.8382C7.41312 15.0362 6.9633 15.1977 6.46491 15.3071C5.9987 15.4094 5.49546 15.4669 4.96703 15.4669C4.47441 15.4669 4.00365 15.417 3.56506 15.3278C3.09521 15.2321 2.66845 15.0913 2.29542 14.9181C1.49868 14.5475 0.986636 14.0509 0.712859 13.5141C0.475201 13.0479 0.416317 12.5565 0.507374 12.0865C0.594789 11.6331 0.82243 11.2088 1.16147 10.8574C1.61037 10.3927 2.26264 10.0503 3.0433 9.94449L3.16684 11.0321C2.61625 11.107 2.16673 11.3377 1.86655 11.6485C1.67502 11.8471 1.54815 12.0757 1.50293 12.3101C1.46104 12.528 1.49048 12.7601 1.60521 12.9852C1.77488 13.3182 2.12576 13.6418 2.69759 13.9077C3.00901 14.0524 3.36382 14.1696 3.75233 14.2489C4.12233 14.3241 4.52965 14.3661 4.96703 14.3661C5.43658 14.3661 5.87122 14.318 6.26186 14.232C6.67556 14.1413 7.04768 14.008 7.36668 13.845C7.7394 13.6546 8.032 13.4272 8.22625 13.1843C8.38409 12.9869 8.47029 12.7851 8.47029 12.5962C8.47029 12.2247 8.29273 11.8894 8.02107 11.6261C7.68538 11.301 7.21613 11.0843 6.74021 11.0266L6.8516 9.93429Z" fill="white"/>
</svg>
