<svg width="11" height="15" viewBox="0 0 11 15" fill="none" xmlns="http://www.w3.org/2000/svg">
<path d="M8.01693 2.95491C7.07226 2.95491 7.07226 2.84424 7.07226 2.67758V2.17758C7.07226 2.01091 7.18359 1.89958 7.35026 1.89958C7.73893 1.89958 7.90559 1.62158 7.90559 1.28824C7.90559 0.95491 7.73893 0.73291 7.35026 0.73291H3.46159C3.07226 0.73291 2.90559 1.01091 2.90559 1.28824C2.90559 1.56624 3.07226 1.84424 3.40559 1.84424C3.62826 1.89958 3.73893 2.01091 3.73893 2.17758V2.62158C3.73893 2.78824 3.62826 2.89958 3.46159 2.89958H1.57226C0.794927 2.95491 0.183594 3.56624 0.183594 4.28824V12.1216C0.183594 12.7882 0.628261 13.3442 1.29493 13.4549C1.35026 13.4549 1.40559 13.5662 1.40559 13.6216C1.40559 13.9549 1.62826 14.0662 1.96159 14.0662C2.29493 14.0662 2.51693 13.9549 2.51693 13.6216C2.5191 13.5928 2.53155 13.5658 2.55199 13.5455C2.57243 13.5252 2.59951 13.5129 2.62826 13.5109H8.07226C8.10102 13.5129 8.12809 13.5252 8.14853 13.5455C8.16898 13.5658 8.18142 13.5928 8.18359 13.6216C8.18359 13.9549 8.40626 14.0662 8.73959 14.0662C9.07293 14.0662 9.29493 13.9549 9.29493 13.6216C9.29493 13.5662 9.46159 13.4549 9.51693 13.4549C10.1836 13.3442 10.6283 12.7329 10.6283 12.1216V4.28824C10.6283 3.56624 10.1283 2.95491 9.35026 2.95491H8.01693ZM7.81026 5.23291C7.81026 5.1003 7.86294 4.97313 7.95671 4.87936C8.05048 4.78559 8.17765 4.73291 8.31026 4.73291C8.44287 4.73291 8.57005 4.78559 8.66381 4.87936C8.75758 4.97313 8.81026 5.1003 8.81026 5.23291V10.8996C8.81026 11.0322 8.75758 11.1594 8.66381 11.2531C8.57005 11.3469 8.44287 11.3996 8.31026 11.3996C8.17765 11.3996 8.05048 11.3469 7.95671 11.2531C7.86294 11.1594 7.81026 11.0322 7.81026 10.8996V5.23291ZM4.94359 5.23291C4.94359 5.1003 4.99627 4.97313 5.09004 4.87936C5.18381 4.78559 5.31099 4.73291 5.44359 4.73291C5.5762 4.73291 5.70338 4.78559 5.79715 4.87936C5.89092 4.97313 5.94359 5.1003 5.94359 5.23291V10.8996C5.94359 11.0322 5.89092 11.1594 5.79715 11.2531C5.70338 11.3469 5.5762 11.3996 5.44359 11.3996C5.31099 11.3996 5.18381 11.3469 5.09004 11.2531C4.99627 11.1594 4.94359 11.0322 4.94359 10.8996V5.23291ZM2.57693 4.73291C2.70954 4.73291 2.83671 4.78559 2.93048 4.87936C3.02425 4.97313 3.07693 5.1003 3.07693 5.23291V10.8996C3.07693 11.0322 3.02425 11.1594 2.93048 11.2531C2.83671 11.3469 2.70954 11.3996 2.57693 11.3996C2.44432 11.3996 2.31714 11.3469 2.22337 11.2531C2.12961 11.1594 2.07693 11.0322 2.07693 10.8996V5.23291C2.07693 5.1003 2.12961 4.97313 2.22337 4.87936C2.31714 4.78559 2.44432 4.73291 2.57693 4.73291ZM4.85026 2.12158C4.85026 1.95491 4.96159 1.84424 5.12826 1.84424H5.68359C5.85026 1.84424 5.96159 1.95491 5.96159 2.12158V2.61958C5.96159 2.78624 5.85026 2.89758 5.68359 2.89758H5.12826C4.96159 2.89758 4.85026 2.78624 4.85026 2.61958V2.12158Z" fill="#5D5D5D"/>
</svg>
