<svg width="27" height="20" viewBox="0 0 27 20" fill="none" xmlns="http://www.w3.org/2000/svg">
<path d="M26.1686 0.836906L26.1686 0.836864L0.830905 0.836948C0.534249 1.13655 0.35 1.551 0.35 2.00707V17.9927C0.35 18.449 0.5348 18.8632 0.831116 19.1628L0.831199 19.1629C1.12821 19.4628 1.53922 19.65 1.99129 19.65H25.0089C25.402 19.65 25.7637 19.5075 26.0465 19.2742C26.1036 19.2434 26.1568 19.2046 26.2049 19.1588L26.206 19.1578C26.2814 19.0846 26.3377 18.9992 26.3752 18.9076C26.5486 18.6451 26.65 18.3301 26.65 17.9927V2.00707C26.65 1.55174 26.4655 1.13687 26.1686 0.836906ZM13.2538 12.3004L13.2541 12.3007L14.0799 12.1755L14.1777 12.2892L14.1778 12.2891C14.1779 12.2891 14.1779 12.289 14.1779 12.289L16.6892 10.1266L24.3 18.1938H2.64125L10.6094 10.1211L13.2538 12.3004ZM1.79386 2.85746L9.48849 9.19758L1.79386 16.9932V2.85746ZM25.2061 2.79388V17.0463L17.7867 9.18181L25.2061 2.79388ZM13.6986 10.7911L2.79409 1.80596H24.1349L13.6986 10.7911Z" fill="#82CF45" stroke="#82CF45" stroke-width="0.3"/>
</svg>
