<svg 
    xmlns="http://www.w3.org/2000/svg" 
    viewBox="0 0 37 37" 
    fill="currentColor" 
    width="1em" 
    height="1em">
    <path xmlns="http://www.w3.org/2000/svg" style="stroke: none; stroke-width: 1; stroke-dasharray: none; stroke-linecap: butt; stroke-dashoffset: 0; stroke-linejoin: miter; stroke-miterlimit: 4; fill: rgb(0,0,0); fill-rule: nonzero; opacity: 1;" transform=" translate(-18.8, -18.8)" d="M 28.4719 21.6954 C 28.5045 21.6954 28.535 21.6993 28.5656 21.7032 C 28.7652 21.3712 28.9464 21.0216 29.1094 20.6563 C 29.1134 20.6485 29.1155 20.6426 29.1195 20.6348 C 29.366 20.0782 29.5513 19.5001 29.6756 18.9004 C 29.7733 18.4356 29.8324 17.959 29.8548 17.4708 L 26.924 17.4708 C 26.871 18.8985 26.427 20.3048 25.5981 21.6934 L 28.4719 21.6934 L 28.4719 21.6954 Z M 9.05204 28.5802 C 9.05408 28.088 9.34532 27.6075 9.81783 27.0704 L 7.07645 25.4083 C 6.90333 25.336 6.90741 25.2345 7.0072 25.1153 L 7.58766 24.6407 C 7.69357 24.5782 7.80559 24.5509 7.92575 24.5841 L 11.3107 25.1329 L 13.5124 22.7969 L 6.93185 18.5235 C 6.76484 18.4297 6.75058 18.3243 6.92166 18.2012 L 7.87076 17.4747 L 16.4534 19.7872 L 18.989 17.1875 C 19.8404 16.4825 20.6652 16.1661 21.3007 16.3165 C 21.651 16.3985 21.7732 16.5 21.8811 16.8145 C 22.0909 17.4317 21.7651 18.2598 20.9952 19.1133 L 18.2864 21.543 L 20.6978 29.7735 L 19.9402 30.6837 C 19.8119 30.8478 19.7019 30.8341 19.6041 30.6759 L 15.1479 24.3634 L 12.712 26.4747 L 13.2843 29.7208 C 13.3169 29.836 13.2904 29.9435 13.2252 30.045 L 12.7303 30.6017 C 12.6061 30.6974 12.5002 30.7013 12.4248 30.5353 L 10.6916 27.9063 C 10.1274 28.3614 9.62639 28.6407 9.11314 28.6407 C 9.06222 28.6388 9.05204 28.6231 9.05204 28.5802 Z M 27.9607 22.5919 L 25.0075 22.5919 C 24.1989 23.7149 23.1378 24.8263 21.8262 25.9239 L 21.5451 24.9669 C 22.4535 24.1778 23.2233 23.3868 23.8567 22.5919 L 20.8485 22.5919 L 20.6938 22.0645 L 21.1052 21.6954 L 24.5105 21.6954 C 25.4352 20.2989 25.9321 18.8907 25.9912 17.4727 L 24.205 17.4727 C 24.2519 17.17 24.258 16.8692 24.2213 16.5762 L 25.9708 16.5762 C 25.8486 15.1895 25.313 13.7832 24.3537 12.3535 L 20.6041 12.3535 L 20.6041 14.1231 C 20.3129 14.17 20.0216 14.25 19.7284 14.3594 C 19.708 14.3672 19.6897 14.375 19.6693 14.3828 L 19.6693 12.3555 L 15.9198 12.3555 C 14.9605 13.7832 14.4248 15.1914 14.3026 16.5782 L 16.7874 16.5782 L 15.9136 17.4747 L 15.9014 17.4747 L 12.5755 16.5782 L 13.3698 16.5782 C 13.4778 15.1797 13.9625 13.7735 14.8281 12.3555 L 11.7038 12.3555 C 11.5062 12.6856 11.327 13.0313 11.1641 13.3926 C 11.16 13.4004 11.158 13.4063 11.1539 13.4141 C 10.9075 13.9707 10.7221 14.5489 10.5979 15.1485 C 10.5388 15.4317 10.494 15.7168 10.4614 16.0079 L 9.54899 15.7618 C 9.58158 15.4961 9.62639 15.2325 9.67934 14.9727 C 9.8158 14.3184 10.0215 13.6817 10.2944 13.0625 C 10.2985 13.0547 10.3005 13.0469 10.3046 13.0371 C 10.5816 12.4199 10.9095 11.8399 11.2904 11.2949 C 11.6712 10.752 12.103 10.2481 12.5857 9.78712 C 13.0664 9.32423 13.5918 8.91017 14.158 8.54493 C 14.7263 8.17969 15.3332 7.86329 15.9747 7.59961 L 15.9768 7.59961 C 16.6285 7.33203 17.3006 7.13281 17.9911 7 C 18.6897 6.86719 19.4025 6.80078 20.1377 6.80078 C 20.8709 6.80078 21.5858 6.86719 22.2783 7 C 22.9606 7.13086 23.6245 7.32813 24.2702 7.58985 C 24.2783 7.59375 24.2885 7.59571 24.2967 7.59961 C 24.9403 7.86524 25.5451 8.17969 26.1134 8.54493 C 26.6816 8.91017 27.205 9.32423 27.6857 9.78712 C 28.1704 10.2481 28.6002 10.752 28.981 11.2949 C 29.3619 11.8399 29.6918 12.4219 29.9668 13.0371 L 29.9668 13.0391 C 30.2458 13.6641 30.4536 14.3086 30.5921 14.9707 C 30.7306 15.6348 30.7998 16.3204 30.7998 17.0235 C 30.7998 17.7266 30.7306 18.4122 30.5921 19.0762 C 30.4556 19.7305 30.2499 20.3673 29.977 20.9844 C 29.9749 20.9923 29.9709 21.0001 29.9668 21.0098 C 29.6898 21.627 29.3619 22.2071 28.981 22.752 C 28.6002 23.295 28.1704 23.7989 27.6857 24.2598 C 27.203 24.7227 26.6796 25.1368 26.1134 25.502 C 25.5451 25.8673 24.9382 26.1837 24.2967 26.4474 L 24.2946 26.4474 C 23.6429 26.7149 22.9708 26.9142 22.2803 27.047 C 22.2416 27.0548 22.2029 27.0606 22.1663 27.0685 L 21.9117 26.2032 C 21.9728 26.1934 22.0359 26.1817 22.097 26.17 C 22.7304 26.0489 23.3414 25.8673 23.928 25.627 C 24.5248 25.3809 25.0808 25.0919 25.5961 24.7618 C 26.1113 24.4298 26.5879 24.0528 27.0279 23.6309 L 27.0299 23.629 C 27.3659 23.3067 27.6776 22.961 27.9607 22.5919 Z M 12.3128 11.459 L 15.4248 11.459 C 16.3108 10.2344 17.4839 9.00196 18.9463 7.76172 C 18.6876 7.79102 18.431 7.83008 18.1764 7.87891 C 17.543 8.00001 16.934 8.18165 16.3454 8.42188 C 15.7487 8.66798 15.1927 8.95704 14.6774 9.28712 C 14.1621 9.61915 13.6855 9.99611 13.2456 10.418 L 13.2435 10.4199 C 12.9075 10.7442 12.5959 11.0918 12.3128 11.459 Z M 21.3251 7.76172 C 22.7875 9.00196 23.9606 10.2324 24.8466 11.459 L 27.9607 11.459 C 27.6776 11.0918 27.3659 10.7442 27.0279 10.4199 L 27.0258 10.418 C 26.5879 9.99611 26.1093 9.61915 25.594 9.28712 C 25.0787 8.95704 24.5227 8.66798 23.926 8.42188 C 23.9178 8.41798 23.9117 8.41602 23.9036 8.41212 C 23.3231 8.17579 22.7203 7.99805 22.095 7.87891 C 21.8424 7.83008 21.5858 7.79102 21.3251 7.76172 Z M 28.5676 12.3555 L 25.4454 12.3555 C 26.313 13.7715 26.7957 15.1797 26.9036 16.5782 L 29.8527 16.5782 C 29.8303 16.0899 29.7692 15.6133 29.6735 15.1485 C 29.5472 14.5411 29.3578 13.9571 29.1073 13.3926 C 28.9444 13.0313 28.7672 12.6856 28.5676 12.3555 Z M 20.6041 8.34376 L 20.6041 11.459 L 23.6979 11.459 C 22.8852 10.4317 21.8547 9.39259 20.6041 8.34376 Z M 19.6693 11.459 L 19.6693 8.34376 C 18.4188 9.39259 17.3882 10.4317 16.5756 11.459 L 19.6693 11.459 Z" stroke-linecap="round"/>
    <!-- Agrega el resto de los <path> aquí -->
</svg>
