<svg width="16" height="17" viewBox="0 0 16 17" fill="none" xmlns="http://www.w3.org/2000/svg">
<path d="M8.00586 16.4702C6.95478 16.4712 5.9138 16.2651 4.94244 15.8637C3.97109 15.4623 3.08841 14.8734 2.34488 14.1307C1.60135 13.388 1.01154 12.5061 0.609193 11.5354C0.206841 10.5647 -0.000166513 9.52421 5.20377e-06 8.47347C-0.00119427 7.42235 0.204978 6.38131 0.606723 5.40994C1.00847 4.43857 1.59789 3.55594 2.34127 2.81256C3.08465 2.06919 3.96737 1.47966 4.93893 1.07773C5.91049 0.675805 6.9518 0.469361 8.00326 0.470218C9.05377 0.469704 10.0941 0.676214 11.0647 1.07794C12.0353 1.47966 12.9172 2.06872 13.6599 2.81142C14.4026 3.55412 14.9915 4.4359 15.3931 5.40633C15.7946 6.37675 16.0009 7.41679 16 8.46696C16.0007 9.51717 15.7942 10.5572 15.3924 11.5276C14.9906 12.498 14.4014 13.3796 13.6584 14.1221C12.9154 14.8646 12.0333 15.4534 11.0625 15.8547C10.0917 16.2561 9.05121 16.4621 8.00065 16.4611L8.00586 16.4702ZM12.2752 8.47217L7.80393 4.43473V7.01478H4.69017V9.92825H7.80262V12.5044L12.2752 8.46696V8.47217Z" fill="#82CF45"/>
</svg>
