<svg width="9" height="15" viewBox="0 0 9 15" fill="none" xmlns="http://www.w3.org/2000/svg">
<path d="M6.34017 5.45491C6.1735 5.45491 6.06217 5.34424 6.06217 5.17758V2.17758C6.06217 2.01091 6.1735 1.89958 6.34017 1.89958C6.72884 1.89958 6.8955 1.62158 6.8955 1.28824C6.8955 0.95491 6.72884 0.73291 6.34017 0.73291H2.4515C2.06217 0.73291 1.8955 1.01091 1.8955 1.28824C1.8955 1.56624 2.06217 1.84424 2.3955 1.84424C2.61817 1.89958 2.72884 2.01091 2.72884 2.17758V5.12158C2.72884 5.28824 2.61817 5.39958 2.4515 5.39958H1.8955C1.11817 5.45491 0.506836 6.06624 0.506836 6.78824V12.1216C0.506836 12.7882 0.951503 13.3442 1.61817 13.4549C1.6735 13.4549 1.72884 13.5662 1.72884 13.6216C1.72884 13.9549 1.9515 14.0662 2.28484 14.0662C2.61817 14.0662 2.84017 13.9549 2.84017 13.6216C2.84234 13.5928 2.85479 13.5658 2.87523 13.5455C2.89567 13.5252 2.92275 13.5129 2.9515 13.5109H5.72884C5.75759 13.5129 5.78467 13.5252 5.80511 13.5455C5.82555 13.5658 5.838 13.5928 5.84017 13.6216C5.84017 13.9549 6.06217 14.0662 6.3955 14.0662C6.72884 14.0662 6.9515 13.9549 6.9515 13.6216C6.9515 13.5662 7.11817 13.4549 7.1735 13.4549C7.84017 13.3442 8.28484 12.7329 8.28484 12.1216V6.78824C8.28484 6.06624 7.78484 5.45491 7.00684 5.45491H6.34017ZM6.34017 8.28824H4.00684C3.84017 8.28824 3.72884 8.39958 3.72884 8.56624V9.12158C3.72884 9.34424 3.56217 9.56624 3.28484 9.56624C3.00684 9.56624 2.84017 9.39958 2.84017 9.12158V8.56624C2.84017 8.39958 2.72884 8.28824 2.61817 8.28824H2.4515C2.39292 8.28914 2.33475 8.27827 2.28043 8.25629C2.22612 8.2343 2.17678 8.20164 2.13531 8.16024C2.09385 8.11884 2.06112 8.06954 2.03905 8.01526C2.01698 7.96099 2.00603 7.90283 2.00684 7.84424C2.00684 7.56624 2.1735 7.39958 2.4515 7.39958H6.34017C6.56217 7.39958 6.78484 7.56624 6.78484 7.84424C6.78565 7.90283 6.77469 7.96099 6.75262 8.01526C6.73056 8.06954 6.69782 8.11884 6.65636 8.16024C6.6149 8.20164 6.56555 8.2343 6.51124 8.25629C6.45693 8.27827 6.39876 8.28914 6.34017 8.28824ZM4.6735 1.84424C4.84017 1.84424 4.9515 1.95491 4.9515 2.12158V5.11958C4.9515 5.28624 4.84017 5.39758 4.6735 5.39758H4.11817C3.9515 5.39758 3.84017 5.28624 3.84017 5.11958V2.12158C3.84017 1.95491 3.9515 1.84424 4.11817 1.84424H4.6735Z" fill="#5D5D5D"/>
</svg>
