<svg width="16" height="15" viewBox="0 0 16 15" fill="none" xmlns="http://www.w3.org/2000/svg">
<path d="M10.4531 2.72937C10.7865 2.92729 11.1458 2.97677 11.5312 2.87781C11.9167 2.77885 12.2083 2.5575 12.4062 2.21375C12.6042 1.88041 12.6536 1.52104 12.5547 1.13562C12.4557 0.750203 12.2396 0.458537 11.9062 0.26062C11.5625 0.0627031 11.1979 0.0132246 10.8125 0.112183C10.4271 0.211141 10.1354 0.427287 9.9375 0.76062C9.73958 1.10437 9.6901 1.46895 9.78906 1.85437C9.88802 2.23979 10.1094 2.53145 10.4531 2.72937ZM12.7969 7.66687C12.7552 7.66687 12.7135 7.66687 12.6719 7.66687C12.6302 7.66687 12.5938 7.67208 12.5625 7.6825L12.0938 5.35437L12.2344 5.29187C12.4115 5.22937 12.5391 5.11218 12.6172 4.94031C12.6953 4.76843 12.7031 4.59916 12.6406 4.4325C12.5677 4.25541 12.4479 4.12781 12.2812 4.04968C12.1146 3.97156 11.9427 3.96895 11.7656 4.04187L10.0781 4.66687L10.0156 4.0575C10.1094 3.83875 10.1484 3.60437 10.1328 3.35437C10.1172 3.10437 10.026 2.88562 9.85938 2.69812C9.50521 2.3127 9.14844 2.15906 8.78906 2.23718C8.42969 2.31531 8.1875 2.40645 8.0625 2.51062L4.57812 5.32312C4.52604 5.3752 4.47917 5.42989 4.4375 5.48718C4.39583 5.54447 4.35938 5.60958 4.32812 5.6825C4.28646 5.76583 4.26302 5.85177 4.25781 5.94031C4.2526 6.02885 4.26042 6.12 4.28125 6.21375C4.13542 6.22416 4.01562 6.27885 3.92188 6.37781C3.82812 6.47677 3.78125 6.59916 3.78125 6.745C3.78125 6.89083 3.83333 7.01583 3.9375 7.12C4.04167 7.22416 4.16667 7.27625 4.3125 7.27625L4.09375 7.79187C3.94792 7.7502 3.80208 7.71895 3.65625 7.69812C3.51042 7.67729 3.35938 7.66687 3.20312 7.66687C2.76562 7.66687 2.35417 7.7502 1.96875 7.91687C1.57292 8.08354 1.22917 8.3127 0.9375 8.60437C0.645833 8.89604 0.416667 9.23979 0.25 9.63562C0.0833333 10.021 0 10.4325 0 10.87C0 11.3179 0.0833333 11.7346 0.25 12.12C0.416667 12.5158 0.645833 12.8596 0.9375 13.1512C1.22917 13.4429 1.57292 13.6721 1.96875 13.8387C2.35417 14.0054 2.76562 14.0887 3.20312 14.0887C3.65104 14.0887 4.06771 14.0054 4.45312 13.8387C4.84896 13.6721 5.19271 13.4429 5.48438 13.1512C5.77604 12.8596 6.00521 12.5158 6.17188 12.12C6.33854 11.7346 6.42188 11.3179 6.42188 10.87C6.42188 10.2867 6.27604 9.7502 5.98438 9.26062C5.69271 8.77104 5.30729 8.38562 4.82812 8.10437L5.1875 7.27625H5.76562L7.73438 8.07312L6.67188 9.79187C6.53646 10.0106 6.5 10.245 6.5625 10.495C6.625 10.745 6.76562 10.9377 6.98438 11.0731C7.06771 11.1252 7.15104 11.1617 7.23438 11.1825C7.31771 11.2033 7.40104 11.2137 7.48438 11.2137C7.64062 11.2137 7.79167 11.1747 7.9375 11.0966C8.08333 11.0184 8.19792 10.9065 8.28125 10.7606L9.23438 9.19812L9.85938 9.57312C9.76562 9.77104 9.69531 9.97937 9.64844 10.1981C9.60156 10.4169 9.57812 10.6408 9.57812 10.87C9.57812 11.3179 9.66146 11.7346 9.82812 12.12C9.99479 12.5158 10.224 12.8596 10.5156 13.1512C10.8073 13.4429 11.151 13.6721 11.5469 13.8387C11.9323 14.0054 12.349 14.0887 12.7969 14.0887C13.2344 14.0887 13.6458 14.0054 14.0312 13.8387C14.4271 13.6721 14.7708 13.4429 15.0625 13.1512C15.3542 12.8596 15.5833 12.5158 15.75 12.12C15.9167 11.7346 16 11.3179 16 10.87C16 10.4325 15.9167 10.021 15.75 9.63562C15.5833 9.23979 15.3542 8.89604 15.0625 8.60437C14.7708 8.3127 14.4271 8.08354 14.0312 7.91687C13.6458 7.7502 13.2344 7.66687 12.7969 7.66687ZM3.20312 13.2762C2.54688 13.2762 1.98438 13.0419 1.51562 12.5731C1.04688 12.1044 0.8125 11.5367 0.8125 10.87C0.8125 10.2137 1.04688 9.64864 1.51562 9.17468C1.98438 8.70072 2.54688 8.46375 3.20312 8.46375C3.30729 8.46375 3.40625 8.47156 3.5 8.48718C3.59375 8.50281 3.68229 8.52104 3.76562 8.54187L3.10938 10.1044C2.91146 10.1252 2.7474 10.2085 2.61719 10.3544C2.48698 10.5002 2.42188 10.6721 2.42188 10.87C2.42188 11.0887 2.5 11.2762 2.65625 11.4325C2.8125 11.5887 2.99479 11.6669 3.20312 11.6669C3.34896 11.6669 3.48177 11.6304 3.60156 11.5575C3.72135 11.4846 3.8125 11.3908 3.875 11.2762H5.57812C5.48438 11.8492 5.21615 12.3257 4.77344 12.7059C4.33073 13.0861 3.80729 13.2762 3.20312 13.2762ZM5.57812 10.4794H3.875C3.875 10.469 3.8724 10.4585 3.86719 10.4481C3.86198 10.4377 3.85417 10.4273 3.84375 10.4169L4.51562 8.85437C4.78646 9.04187 5.01562 9.27364 5.20312 9.54968C5.39062 9.82572 5.51562 10.1356 5.57812 10.4794ZM9.65625 8.51062L9.90625 8.10437C9.97917 7.98979 10.0234 7.86479 10.0391 7.72937C10.0547 7.59395 10.0417 7.45854 10 7.32312C9.95833 7.1877 9.89062 7.07052 9.79688 6.97156C9.70312 6.8726 9.58854 6.79708 9.45312 6.745L7.73438 6.0575L8.79688 5.19812L8.85938 5.66687C8.86979 5.77104 8.90365 5.86739 8.96094 5.95593C9.01823 6.04447 9.08854 6.11479 9.17188 6.16687C9.22396 6.19812 9.28125 6.22156 9.34375 6.23718C9.40625 6.25281 9.46354 6.26062 9.51562 6.26062C9.55729 6.26062 9.59896 6.25802 9.64062 6.25281C9.68229 6.2476 9.71875 6.23458 9.75 6.21375L11.3281 5.63562L11.7656 7.83875C11.474 7.9325 11.2005 8.07052 10.9453 8.25281C10.6901 8.4351 10.4688 8.64604 10.2812 8.88562L9.65625 8.51062ZM12.2188 10.0575L10.9844 9.3075C11.1094 9.16166 11.2526 9.03145 11.4141 8.91687C11.5755 8.80229 11.7448 8.70854 11.9219 8.63562L12.2188 10.0575ZM12.7969 13.2762C12.1302 13.2762 11.5625 13.0419 11.0938 12.5731C10.625 12.1044 10.3906 11.5367 10.3906 10.87C10.3906 10.7137 10.4036 10.5627 10.4297 10.4169C10.4557 10.271 10.5 10.1304 10.5625 9.995L12 10.87C12 11.0887 12.0781 11.2762 12.2344 11.4325C12.3906 11.5887 12.5781 11.6669 12.7969 11.6669C13.0052 11.6669 13.1875 11.5887 13.3438 11.4325C13.5 11.2762 13.5781 11.0887 13.5781 10.87C13.5781 10.7033 13.5286 10.5523 13.4297 10.4169C13.3307 10.2815 13.2031 10.1877 13.0469 10.1356L12.7188 8.47937C12.7292 8.47937 12.7396 8.47677 12.75 8.47156C12.7604 8.46635 12.776 8.46375 12.7969 8.46375C13.4531 8.46375 14.0156 8.70072 14.4844 9.17468C14.9531 9.64864 15.1875 10.2137 15.1875 10.87C15.1875 11.5367 14.9531 12.1044 14.4844 12.5731C14.0156 13.0419 13.4531 13.2762 12.7969 13.2762Z" fill="#82CF45"/>
</svg>
