<svg width="21" height="20" viewBox="0 0 21 20" fill="none" xmlns="http://www.w3.org/2000/svg">
<path fill-rule="evenodd" clip-rule="evenodd" d="M14.9863 6.37439C15.3493 6.2494 15.7318 6.44771 15.984 6.75769H18.9886C18.9995 6.75769 19.0103 6.75989 19.0204 6.76416C19.0304 6.76843 19.0396 6.77469 19.0473 6.78258C19.055 6.79048 19.0611 6.79985 19.0653 6.81016C19.0695 6.82047 19.0716 6.83152 19.0716 6.84268V7.65262C19.0716 7.66378 19.0695 7.67484 19.0653 7.68515C19.0611 7.69546 19.055 7.70483 19.0473 7.71272C19.0396 7.72061 19.0304 7.72687 19.0204 7.73114C19.0103 7.73542 18.9995 7.73762 18.9886 7.73762H18.4629V10.4357H17.8558V7.73762H16.2184C16.1337 7.95176 16.0023 8.14328 15.8343 8.29757V10.4357H15.224V8.7342C14.8045 8.95544 14.3692 9.14375 13.9219 9.29749C13.4424 9.48031 12.9534 9.63554 12.457 9.76246C12.0096 9.86385 11.5452 9.85635 11.1011 9.74058C10.657 9.6248 10.2457 9.40398 9.90007 9.09584C9.70027 8.92122 9.51061 8.73481 9.33203 8.53755L9.27669 8.47756L8.78841 11.4357C9.1635 11.6938 9.55499 11.9259 9.96029 12.1306C11.2266 12.7356 12.2682 13.2355 12.4912 15.272C12.5319 15.6287 12.514 17.7185 12.4912 18.7451H14.2474C14.2127 18.7165 14.1849 18.6801 14.166 18.6388C14.1471 18.5975 14.1376 18.5524 14.1383 18.5068V18.1918C13.9344 18.1892 13.7397 18.1045 13.5962 17.9561C13.4528 17.8076 13.3722 17.6074 13.3717 17.3985V11.399C13.3726 11.1889 13.4545 10.9876 13.5996 10.839C13.7447 10.6905 13.9413 10.6066 14.1465 10.6057H14.3239C14.3223 10.6185 14.3223 10.6313 14.3239 10.6441L14.5176 11.4007C14.5648 11.6113 14.6653 11.8056 14.8089 11.964C14.8759 12.0315 14.9556 12.0842 15.0432 12.1189C15.1308 12.1535 15.2245 12.1695 15.3184 12.1656H16.0947V12.5906C16.0947 12.6589 16.4072 12.7122 16.4723 12.7122H17.5026C17.5181 12.7125 17.5335 12.7095 17.548 12.7036C17.5624 12.6976 17.5755 12.6888 17.5865 12.6777C17.5976 12.6665 17.6064 12.6532 17.6123 12.6385C17.6183 12.6239 17.6214 12.6081 17.6214 12.5922V12.1656H18.4352C18.531 12.1664 18.626 12.1473 18.7144 12.1095C18.8028 12.0717 18.8828 12.0159 18.9495 11.9456C19.0936 11.7879 19.1907 11.5913 19.2295 11.379L19.3923 10.6324C19.3938 10.6191 19.3938 10.6057 19.3923 10.5924H19.4753C19.6805 10.5933 19.877 10.6771 20.0221 10.8257C20.1672 10.9743 20.2491 11.1755 20.25 11.3857V17.3935C20.2496 17.6024 20.1689 17.8026 20.0255 17.9511C19.8821 18.0995 19.6873 18.1842 19.4834 18.1868V18.4984C19.4841 18.544 19.4747 18.5892 19.4558 18.6305C19.4369 18.6718 19.409 18.7081 19.3743 18.7368H20.25V20H0.25V18.7368H3.47754C3.70703 18.1051 3.94303 17.4319 4.17415 16.7553C4.65104 15.357 5.1084 13.9221 5.44369 12.7822C5.23278 12.5268 5.057 12.2431 4.92122 11.939C4.76565 11.5933 4.71573 11.2076 4.778 10.8324L5.48275 7.19599C5.23047 7.18266 4.93913 7.106 4.7015 7.21266C4.24089 7.41931 3.56217 8.29924 3.16016 8.71254L2.62142 9.27083C2.20638 9.7008 1.92969 10.1774 1.29492 10.1258C0.507161 10.0624 -0.0559896 9.16584 0.499023 8.47756L1.74089 7.19099C2.33822 6.56937 2.90625 5.83776 3.64355 5.41113C4.236 5.06782 4.88053 4.83284 5.94661 4.8795C6.33724 4.8795 6.75065 4.9245 7.14128 4.96283L7.59701 5.00283C9.38737 5.12115 10.2207 6.08608 10.8717 6.83602C11.1598 7.16933 11.4072 7.45264 11.6758 7.58429C11.8027 7.64596 12.0013 7.5593 12.2275 7.46264L13.8828 6.83268L14.9863 6.37939V6.37439ZM10.2028 18.7434C10.2256 17.5869 10.25 15.9553 10.2321 15.6403C10.2174 15.4154 10.0693 14.8204 9.83822 14.7121C9.52831 14.5746 9.21158 14.4539 8.88932 14.3504C8.44173 14.1988 8.07552 14.0455 7.63281 13.9205C7.30729 15.0171 6.87109 16.3403 6.40072 17.6019L5.95638 18.7434H10.2028ZM18.8079 18.7434H14.8154C14.8504 18.7151 14.8784 18.6788 14.8974 18.6374C14.9163 18.5961 14.9256 18.5508 14.9245 18.5051V18.1901H18.6989V18.4984C18.6978 18.5441 18.7071 18.5894 18.726 18.6307C18.7449 18.6721 18.773 18.7084 18.8079 18.7368V18.7434ZM14.721 16.7053C14.683 16.7053 14.6466 16.6898 14.6198 16.6623C14.5929 16.6348 14.5778 16.5975 14.5778 16.5586C14.5778 16.5197 14.5929 16.4824 14.6198 16.4549C14.6466 16.4274 14.683 16.4119 14.721 16.4119H18.9235C18.9615 16.4119 18.9979 16.4274 19.0248 16.4549C19.0516 16.4824 19.0667 16.5197 19.0667 16.5586C19.0667 16.5975 19.0516 16.6348 19.0248 16.6623C18.9979 16.6898 18.9615 16.7053 18.9235 16.7053H14.721ZM14.721 15.287C14.683 15.287 14.6466 15.2716 14.6198 15.2441C14.5929 15.2166 14.5778 15.1793 14.5778 15.1404C14.5778 15.1015 14.5929 15.0642 14.6198 15.0367C14.6466 15.0092 14.683 14.9937 14.721 14.9937H18.9235C18.9615 14.9937 18.9979 15.0092 19.0248 15.0367C19.0516 15.0642 19.0667 15.1015 19.0667 15.1404C19.0667 15.1793 19.0516 15.2166 19.0248 15.2441C18.9979 15.2716 18.9615 15.287 18.9235 15.287H14.721ZM14.721 13.8688C14.683 13.8688 14.6466 13.8534 14.6198 13.8259C14.5929 13.7984 14.5778 13.761 14.5778 13.7222C14.5778 13.6833 14.5929 13.646 14.6198 13.6185C14.6466 13.5909 14.683 13.5755 14.721 13.5755H18.9235C18.9615 13.5755 18.9979 13.5909 19.0248 13.6185C19.0516 13.646 19.0667 13.6833 19.0667 13.7222C19.0667 13.761 19.0516 13.7984 19.0248 13.8259C18.9979 13.8534 18.9615 13.8688 18.9235 13.8688H14.721ZM19.0716 10.744H14.6543L14.8008 11.3157C14.8355 11.4761 14.9107 11.6243 15.0189 11.7456C15.0571 11.7871 15.1033 11.82 15.1546 11.8424C15.2058 11.8648 15.261 11.8761 15.3167 11.8756H18.4368C18.4951 11.8759 18.5529 11.8641 18.6066 11.8409C18.6603 11.8177 18.7089 11.7836 18.7493 11.7406C18.8535 11.6233 18.9234 11.4783 18.9512 11.3223L19.0716 10.744ZM7.54492 0.118204C8.01417 -0.0462007 8.52458 -0.0389096 8.98916 0.138835C9.45375 0.31658 9.84377 0.65378 10.0927 1.09297C10.3417 1.53216 10.4343 2.04617 10.3546 2.5474C10.2749 3.04862 10.028 3.50605 9.65584 3.84174C9.2837 4.17743 8.80938 4.37059 8.31373 4.38832C7.81807 4.40605 7.33175 4.24725 6.93763 3.93897C6.54351 3.63069 6.26599 3.19202 6.15236 2.69771C6.03872 2.20339 6.09601 1.68403 6.31445 1.22812C6.43808 0.969273 6.61042 0.737976 6.82158 0.547507C7.03274 0.357037 7.27855 0.211145 7.54492 0.118204Z" fill="#82CF45"/>
</svg>
