<svg width="41" height="41" viewBox="0 0 41 41" fill="none" xmlns="http://www.w3.org/2000/svg">
<path d="M20.5 0.5C31.5449 0.5 40.5 9.4551 40.5 20.5C40.5 31.5449 31.5449 40.5 20.5 40.5C9.4551 40.5 0.5 31.5449 0.5 20.5C0.5 9.4551 9.4551 0.5 20.5 0.5Z" fill="#ECF8E4" stroke="#82CF45"/>
<path fill-rule="evenodd" clip-rule="evenodd" d="M3.92383 31.0903C2.71598 29.2585 1.81177 27.2065 1.28125 25.0077L4.89144 26.7494L4.91146 27.8271C4.91146 28.2242 4.23747 29.065 4.02059 29.3853L3.92383 31.0903ZM26.1288 2.16874C33.0089 4.45431 38.1706 10.5102 39.1649 17.8841L38.5142 17.814C38.3975 18.3145 38.2907 18.3245 38.2907 18.9251C38.2907 19.4556 38.958 19.8093 38.958 20.927C38.958 21.2273 38.254 21.8246 38.224 21.9314L37.1796 20.7068V22.265L37.0228 22.2583L36.7425 19.3822L36.1586 19.5657L35.4646 17.427L33.179 19.816L33.1523 21.5643L32.4049 22.0648L31.6108 17.5804L31.137 17.9275L30.0627 16.476L28.4578 16.5227L27.8438 15.8187L27.2132 15.9922L25.9753 14.5742L25.7351 14.7377L26.5025 16.6996H27.3934V16.2558H27.8372C28.1575 17.1434 28.5045 16.6162 28.5045 17.1467C28.5045 18.9985 26.2189 20.3598 24.7208 20.7068C24.8009 21.0405 24.7708 21.3741 25.1646 21.3741C26.002 21.3741 25.585 21.2273 26.4992 21.1506C26.4558 23.0424 24.3304 25.3013 23.4229 26.706L23.8299 29.6055C23.9367 30.2361 22.522 30.9001 22.0415 31.6108L22.2717 32.7219L21.6211 32.9855C21.5077 34.1266 20.3999 35.3912 19.1554 35.3912H17.8207C17.8207 33.8296 16.7063 31.5975 16.7063 30.493C16.7063 29.5555 17.1501 29.4287 17.1501 28.2675C17.1501 27.1932 16.039 25.655 16.039 25.3747V23.593H15.1481C15.0146 23.0958 15.0981 22.9257 14.4808 22.9257H14.2572C13.2863 22.9257 13.4498 23.3694 12.4755 23.3694H11.5846C10.7805 23.3694 9.35913 20.7936 9.35913 20.4766V17.8073C9.35913 16.6562 10.4135 15.4017 11.1409 14.9145V13.8034L12.1418 12.7858L12.6991 12.6923C13.8936 12.6923 13.7501 12.025 14.4808 12.025H16.4827V13.5832L18.6849 14.5241L18.8918 13.5732C19.8894 13.8068 20.1497 14.2505 21.3775 14.2505H21.8213C22.6654 14.2505 22.7122 13.1294 22.7122 12.2486L20.9304 12.4254L20.153 10.7371L19.3822 10.9406C19.5224 11.5446 19.5958 11.2943 19.5958 11.8048C19.5958 12.1051 19.3489 12.1385 19.1487 12.2486L18.3779 10.2933L16.7196 9.10885L16.4994 9.32572L17.9108 10.8105C17.724 11.3444 17.7006 12.8825 16.9232 11.8048L17.6506 11.4545L15.8354 9.55261L14.7477 9.97636L13.6733 11.004C13.5599 11.8315 13.3363 12.2486 12.4688 12.2486C11.8916 12.2486 12.2386 12.0984 11.3544 12.025V9.79952H13.3564L12.7057 8.31807L12.4655 8.46488V8.01778L15.7187 6.51965C15.6586 6.05253 15.5819 6.30278 15.5819 5.79228C15.5819 5.76225 15.7987 5.35185 15.8054 5.34517L16.6462 5.86902L16.446 4.91142L15.1481 5.17834L14.9079 4.01388C15.9355 3.47335 18.2011 1.56482 18.9218 1.56482H19.5891C20.2931 1.56482 22.175 2.25883 22.4819 2.6759L20.6969 2.49573L22.0215 3.58679L22.1483 3.11967L23.1359 2.84941L23.1493 2.23214H23.5964V2.89945L26.1288 2.16874Z" fill="#82CF45"/>
</svg>
